STARTFONT 2.1
FONT -Adobe-Helvetica-Medium-R-Normal--34-240-100-100-P-176-ISO10646-1
SIZE 24 100 100
FONTBOUNDINGBOX 39 48 -5 -11
COMMENT ISO10646-1 extension by Markus Kuhn <mkuhn@acm.org>, 2001-03-20
COMMENT 
COMMENT +
COMMENT  Copyright 1984-1989, 1994 Adobe Systems Incorporated.
COMMENT  Copyright 1988, 1994 Digital Equipment Corporation.
COMMENT
COMMENT  Adobe is a trademark of Adobe Systems Incorporated which may be
COMMENT  registered in certain jurisdictions.
COMMENT  Permission to use these trademarks is hereby granted only in
COMMENT  association with the images described in this file.
COMMENT
COMMENT  Permission to use, copy, modify, distribute and sell this software
COMMENT  and its documentation for any purpose and without fee is hereby
COMMENT  granted, provided that the above copyright notices appear in all
COMMENT  copies and that both those copyright notices and this permission
COMMENT  notice appear in supporting documentation, and that the names of
COMMENT  Adobe Systems and Digital Equipment Corporation not be used in
COMMENT  advertising or publicity pertaining to distribution of the software
COMMENT  without specific, written prior permission.  Adobe Systems and
COMMENT  Digital Equipment Corporation make no representations about the
COMMENT  suitability of this software for any purpose.  It is provided "as
COMMENT  is" without express or implied warranty.
COMMENT -
STARTPROPERTIES 26
FOUNDRY "Adobe"
FAMILY_NAME "Helvetica"
WEIGHT_NAME "Medium"
SLANT "R"
SETWIDTH_NAME "Normal"
ADD_STYLE_NAME ""
PIXEL_SIZE 34
POINT_SIZE 240
RESOLUTION_X 100
RESOLUTION_Y 100
SPACING "P"
AVERAGE_WIDTH 176
CHARSET_REGISTRY "ISO10646"
CHARSET_ENCODING "1"
CAP_HEIGHT 25
X_HEIGHT 18
FONT_ASCENT 28
FONT_DESCENT 7
FACE_NAME "Helvetica"
COPYRIGHT "Copyright (c) 1984, 1987 Adobe Systems Incorporated. All Rights Reserved. Copyright (c) 1988, 1991 Digital Equipment Corporation. All Rights Reserved."

STARTCHAR char0
ENCODING 0
SWIDTH 722 0
DWIDTH 24 0
BBX 17 25 3 0
BITMAP
AAAA80
000000
800080
000000
800080
000000
800080
000000
800080
000000
800080
000000
800080
000000
800080
000000
800080
000000
800080
000000
800080
000000
800080
000000
AAAA80
ENDCHAR
STARTCHAR space
ENCODING 32
SWIDTH 278 0
DWIDTH 9 0
BBX 1 1 0 0
BITMAP
00
ENDCHAR
STARTCHAR exclam
ENCODING 33
SWIDTH 278 0
DWIDTH 9 0
BBX 3 25 4 0
BITMAP
E0
E0
E0
E0
E0
E0
E0
E0
E0
E0
E0
E0
E0
E0
E0
E0
E0
40
40
00
00
E0
E0
E0
E0
ENDCHAR
STARTCHAR quotedbl
ENCODING 34
SWIDTH 355 0
DWIDTH 12 0
BBX 8 8 2 15
BITMAP
E7
E7
E7
E7
E7
E7
42
42
ENDCHAR
STARTCHAR numbersign
ENCODING 35
SWIDTH 556 0
DWIDTH 19 0
BBX 17 23 1 0
BITMAP
038700
038700
030600
030600
070E00
070E00
7FFF80
7FFF80
7FFF80
0E1C00
0E1C00
0C1800
1C3800
1C3800
FFFF00
FFFF00
FFFF00
387000
387000
306000
306000
70E000
70E000
ENDCHAR
STARTCHAR dollar
ENCODING 36
SWIDTH 556 0
DWIDTH 18 0
BBX 16 31 1 -4
BITMAP
0180
0180
0180
0FF0
1FF8
3DBC
718E
718E
E18E
E180
E180
7180
7D80
3FC0
1FF0
07FC
01FE
019E
018F
0187
E187
E187
718E
718E
3DBC
3FF8
0FF0
0180
0180
0180
0180
ENDCHAR
STARTCHAR percent
ENCODING 37
SWIDTH 889 0
DWIDTH 29 0
BBX 26 24 1 0
BITMAP
00003000
1F007000
7F806000
73C0E000
E0C0C000
C0E1C000
C0E18000
C0E38000
E0C30000
73C70000
7F860000
1F0E0000
000C0000
001C3E00
00187F80
0038F380
0030C1C0
0071C0C0
0061C0C0
00E1C0C0
00C0C1C0
01C0E380
01807F80
03803E00
ENDCHAR
STARTCHAR ampersand
ENCODING 38
SWIDTH 667 0
DWIDTH 22 0
BBX 18 23 2 0
BITMAP
07C000
0FE000
1E7000
3C3800
383800
383800
3C7000
1EF000
0FE000
07C000
0F8000
3FC000
79C700
70E700
E0F600
E07E00
E03C00
E01C00
F03E00
787F00
7FF780
3FE3C0
0F0000
ENDCHAR
STARTCHAR quotesingle
ENCODING 39
SWIDTH 191 0
DWIDTH 6 0
BBX 3 8 2 15
BITMAP
E0
E0
E0
E0
E0
E0
E0
40
ENDCHAR
STARTCHAR parenleft
ENCODING 40
SWIDTH 333 0
DWIDTH 11 0
BBX 7 31 2 -7
BITMAP
06
0C
0C
18
18
38
30
70
70
70
60
E0
E0
E0
E0
E0
E0
E0
E0
E0
60
70
70
70
30
38
18
18
0C
0C
06
ENDCHAR
STARTCHAR parenright
ENCODING 41
SWIDTH 333 0
DWIDTH 11 0
BBX 7 31 1 -7
BITMAP
C0
60
60
30
30
38
18
1C
1C
1C
0C
0E
0E
0E
0E
0E
0E
0E
0E
0C
0C
1C
1C
18
18
38
30
70
60
60
C0
ENDCHAR
STARTCHAR asterisk
ENCODING 42
SWIDTH 389 0
DWIDTH 13 0
BBX 10 11 1 15
BITMAP
0C00
0C00
4C80
EDC0
7F80
3F00
1E00
3F00
7380
E1C0
4080
ENDCHAR
STARTCHAR plus
ENCODING 43
SWIDTH 584 0
DWIDTH 19 0
BBX 17 16 1 1
BITMAP
01C000
01C000
01C000
01C000
01C000
01C000
01C000
FFFF80
FFFF80
FFFF80
01C000
01C000
01C000
01C000
01C000
01C000
ENDCHAR
STARTCHAR comma
ENCODING 44
SWIDTH 278 0
DWIDTH 9 0
BBX 3 9 3 -5
BITMAP
E0
E0
E0
E0
20
60
60
C0
80
ENDCHAR
STARTCHAR hyphen
ENCODING 45
SWIDTH 333 0
DWIDTH 11 0
BBX 8 2 1 8
BITMAP
FF
FF
ENDCHAR
STARTCHAR period
ENCODING 46
SWIDTH 278 0
DWIDTH 9 0
BBX 3 4 3 0
BITMAP
E0
E0
E0
E0
ENDCHAR
STARTCHAR slash
ENCODING 47
SWIDTH 278 0
DWIDTH 9 0
BBX 9 24 0 0
BITMAP
0180
0180
0180
0300
0300
0300
0600
0600
0600
0C00
0C00
0C00
0800
1800
1800
1800
3000
3000
3000
6000
6000
6000
C000
C000
ENDCHAR
STARTCHAR zero
ENCODING 48
SWIDTH 556 0
DWIDTH 18 0
BBX 15 24 1 0
BITMAP
07C0
1FF0
3FF8
3C78
783C
701C
701C
E00E
E00E
E00E
E00E
E00E
E00E
E00E
E00E
E00E
E00E
701C
701C
703C
3C78
3FF8
1FF0
07C0
ENDCHAR
STARTCHAR one
ENCODING 49
SWIDTH 556 0
DWIDTH 18 0
BBX 8 24 3 0
BITMAP
03
07
07
0F
3F
FF
FF
07
07
07
07
07
07
07
07
07
07
07
07
07
07
07
07
07
ENDCHAR
STARTCHAR two
ENCODING 50
SWIDTH 556 0
DWIDTH 18 0
BBX 15 24 1 0
BITMAP
07C0
1FF0
3FF8
783C
701C
F00E
E00E
E00E
000E
001C
003C
0078
00F0
03E0
07C0
1F00
3C00
7800
7000
E000
E000
FFFE
FFFE
FFFE
ENDCHAR
STARTCHAR three
ENCODING 51
SWIDTH 556 0
DWIDTH 18 0
BBX 15 24 1 0
BITMAP
07C0
1FF0
3FF8
3838
701C
701C
701C
701C
001C
0038
03F8
03F0
03F8
003C
001E
000E
E00E
E00E
E00E
701C
783C
3FF8
1FF0
07C0
ENDCHAR
STARTCHAR four
ENCODING 52
SWIDTH 556 0
DWIDTH 18 0
BBX 16 24 0 0
BITMAP
0018
0038
0078
0078
00F8
01F8
03B8
03B8
0738
0E38
0E38
1C38
3838
3838
7038
E038
FFFF
FFFF
FFFF
0038
0038
0038
0038
0038
ENDCHAR
STARTCHAR five
ENCODING 53
SWIDTH 556 0
DWIDTH 18 0
BBX 15 24 1 0
BITMAP
3FFC
3FFC
3FFC
3800
3800
3800
7000
7000
77C0
7FF0
7FF8
787C
701C
001E
000E
000E
000E
E00E
E01E
F01C
787C
7FF8
3FF0
0F80
ENDCHAR
STARTCHAR six
ENCODING 54
SWIDTH 556 0
DWIDTH 18 0
BBX 15 24 1 0
BITMAP
03C0
0FF0
1FF8
3C38
381C
701C
7000
7000
6000
E3C0
EFF0
FFF8
F83C
F01C
F00E
E00E
E00E
600E
700E
701C
383C
3FF8
1FF0
07C0
ENDCHAR
STARTCHAR seven
ENCODING 55
SWIDTH 556 0
DWIDTH 18 0
BBX 15 24 1 0
BITMAP
FFFE
FFFE
FFFE
000E
001C
0018
0038
0070
0070
00E0
00E0
01C0
01C0
0380
0380
0700
0700
0700
0E00
0E00
0E00
1C00
1C00
1C00
ENDCHAR
STARTCHAR eight
ENCODING 56
SWIDTH 556 0
DWIDTH 18 0
BBX 15 24 1 0
BITMAP
07C0
1FF0
3FF8
383C
701C
701C
701C
701C
783C
3C78
1FF0
0FE0
3FF8
783C
701C
E00E
E00E
E00E
E00E
F01C
783C
3FF8
1FF0
07C0
ENDCHAR
STARTCHAR nine
ENCODING 57
SWIDTH 556 0
DWIDTH 18 0
BBX 15 24 1 0
BITMAP
07C0
1FF0
3FF8
787C
703C
F01C
E01E
E00E
E00E
E00E
E01E
E01E
703E
7FFE
3FEE
0FCE
000E
001C
E01C
F03C
7878
3FF0
3FE0
0F80
ENDCHAR
STARTCHAR colon
ENCODING 58
SWIDTH 278 0
DWIDTH 9 0
BBX 3 18 4 0
BITMAP
E0
E0
E0
E0
00
00
00
00
00
00
00
00
00
00
E0
E0
E0
E0
ENDCHAR
STARTCHAR semicolon
ENCODING 59
SWIDTH 278 0
DWIDTH 9 0
BBX 3 22 4 -5
BITMAP
E0
E0
E0
E0
00
00
00
00
00
00
00
00
00
E0
E0
E0
E0
20
60
60
C0
80
ENDCHAR
STARTCHAR less
ENCODING 60
SWIDTH 584 0
DWIDTH 19 0
BBX 16 16 2 0
BITMAP
0003
000F
003F
01FC
07E0
1F80
FE00
F000
F000
FE00
1F80
07E0
01FC
007F
000F
0003
ENDCHAR
STARTCHAR equal
ENCODING 61
SWIDTH 584 0
DWIDTH 19 0
BBX 15 9 2 4
BITMAP
FFFE
FFFE
FFFE
0000
0000
0000
FFFE
FFFE
FFFE
ENDCHAR
STARTCHAR greater
ENCODING 62
SWIDTH 584 0
DWIDTH 19 0
BBX 16 16 1 0
BITMAP
C000
F000
FE00
3F80
07E0
01F8
007F
000F
000F
007F
01F8
07E0
3F80
FE00
F000
C000
ENDCHAR
STARTCHAR question
ENCODING 63
SWIDTH 556 0
DWIDTH 18 0
BBX 14 25 2 0
BITMAP
07C0
1FF0
3FF8
7838
701C
F01C
E01C
E01C
001C
0038
0038
0070
00E0
01E0
01C0
0380
0380
0380
0380
0000
0000
0380
0380
0380
0380
ENDCHAR
STARTCHAR at
ENCODING 64
SWIDTH 1015 0
DWIDTH 34 0
BBX 29 30 1 -5
BITMAP
0007C000
003FF800
00FFFE00
03F03F80
07C007C0
0F0003E0
1E0001E0
1C0000F0
380F8C70
381FDC38
703CFC38
70707C38
60E03818
E0E03818
E1E03818
E1C07038
E1C07038
E1C07070
E1C0E070
E1E0E0E0
70F3F3C0
70FF7F80
783E7F00
3C000000
1E000000
1F000000
0F800000
03E07800
01FFF800
007FE000
ENDCHAR
STARTCHAR A
ENCODING 65
SWIDTH 667 0
DWIDTH 22 0
BBX 20 25 1 0
BITMAP
00F000
00F000
00F800
01F800
01F800
039C00
039C00
039C00
079E00
070E00
070E00
0F0F00
0F0F00
0E0700
1E0780
1FFF80
1FFF80
3FFFC0
3C03C0
3801C0
7801E0
7801E0
7000E0
F000F0
F000F0
ENDCHAR
STARTCHAR B
ENCODING 66
SWIDTH 667 0
DWIDTH 22 0
BBX 17 25 3 0
BITMAP
FFF000
FFFC00
FFFE00
E03E00
E00F00
E00F00
E00700
E00700
E00F00
E00E00
E03E00
FFFC00
FFFC00
FFFE00
E01F00
E00780
E00380
E00380
E00380
E00380
E00780
E00F00
FFFE00
FFFE00
FFF800
ENDCHAR
STARTCHAR C
ENCODING 67
SWIDTH 722 0
DWIDTH 24 0
BBX 20 25 2 0
BITMAP
01FC00
07FF00
0FFF80
1F07C0
3C01E0
3800E0
7000F0
700070
E00000
E00000
E00000
E00000
E00000
E00000
E00000
E00000
E00070
F00070
7000F0
7800E0
3C01E0
3F07C0
1FFF80
07FE00
01F800
ENDCHAR
STARTCHAR D
ENCODING 68
SWIDTH 722 0
DWIDTH 24 0
BBX 18 25 3 0
BITMAP
FFF000
FFFC00
FFFE00
E01F00
E00F00
E00780
E00380
E00380
E001C0
E001C0
E001C0
E001C0
E001C0
E001C0
E001C0
E001C0
E003C0
E00380
E00380
E00780
E00F00
E01E00
FFFE00
FFFC00
FFF000
ENDCHAR
STARTCHAR E
ENCODING 69
SWIDTH 667 0
DWIDTH 22 0
BBX 17 25 3 0
BITMAP
FFFF00
FFFF00
FFFF00
E00000
E00000
E00000
E00000
E00000
E00000
E00000
E00000
FFFF00
FFFF00
FFFF00
E00000
E00000
E00000
E00000
E00000
E00000
E00000
E00000
FFFF80
FFFF80
FFFF80
ENDCHAR
STARTCHAR F
ENCODING 70
SWIDTH 611 0
DWIDTH 20 0
BBX 16 25 3 0
BITMAP
FFFF
FFFF
FFFF
E000
E000
E000
E000
E000
E000
E000
E000
FFFC
FFFC
FFFC
E000
E000
E000
E000
E000
E000
E000
E000
E000
E000
E000
ENDCHAR
STARTCHAR G
ENCODING 71
SWIDTH 778 0
DWIDTH 25 0
BBX 22 25 1 0
BITMAP
00FE00
03FF80
0FFFC0
1F83F0
3E00F0
3C0078
780038
700038
F00000
E00000
E00000
E00000
E00FFC
E00FFC
E00FFC
E0001C
F0001C
70001C
78003C
38003C
3C00FC
1F01FC
0FFFDC
07FF1C
01FC1C
ENDCHAR
STARTCHAR H
ENCODING 72
SWIDTH 722 0
DWIDTH 24 0
BBX 18 25 3 0
BITMAP
E001C0
E001C0
E001C0
E001C0
E001C0
E001C0
E001C0
E001C0
E001C0
E001C0
E001C0
FFFFC0
FFFFC0
FFFFC0
E001C0
E001C0
E001C0
E001C0
E001C0
E001C0
E001C0
E001C0
E001C0
E001C0
E001C0
ENDCHAR
STARTCHAR I
ENCODING 73
SWIDTH 278 0
DWIDTH 9 0
BBX 3 25 3 0
BITMAP
E0
E0
E0
E0
E0
E0
E0
E0
E0
E0
E0
E0
E0
E0
E0
E0
E0
E0
E0
E0
E0
E0
E0
E0
E0
ENDCHAR
STARTCHAR J
ENCODING 74
SWIDTH 500 0
DWIDTH 16 0
BBX 13 25 1 0
BITMAP
0038
0038
0038
0038
0038
0038
0038
0038
0038
0038
0038
0038
0038
0038
0038
0038
E038
E038
E038
E038
F078
78F0
7FF0
3FE0
1F80
ENDCHAR
STARTCHAR K
ENCODING 75
SWIDTH 667 0
DWIDTH 22 0
BBX 20 25 3 0
BITMAP
E003C0
E00780
E00F00
E01E00
E03C00
E07800
E0F000
E1E000
E3C000
E7C000
EF8000
FFC000
FFC000
F9E000
F0F000
E07000
E07800
E03C00
E01C00
E01E00
E00F00
E00780
E003C0
E003E0
E001F0
ENDCHAR
STARTCHAR L
ENCODING 76
SWIDTH 556 0
DWIDTH 18 0
BBX 14 25 3 0
BITMAP
E000
E000
E000
E000
E000
E000
E000
E000
E000
E000
E000
E000
E000
E000
E000
E000
E000
E000
E000
E000
E000
E000
FFFC
FFFC
FFFC
ENDCHAR
STARTCHAR M
ENCODING 77
SWIDTH 833 0
DWIDTH 27 0
BBX 21 25 3 0
BITMAP
F00078
F00078
F800F8
F800F8
FC01F8
FC01F8
FC01F8
EC01B8
EE03B8
EE03B8
E60338
E70738
E70738
E30638
E38E38
E38E38
E38E38
E18C38
E1DC38
E1DC38
E0D838
E0F838
E0F838
E07038
E07038
ENDCHAR
STARTCHAR N
ENCODING 78
SWIDTH 722 0
DWIDTH 24 0
BBX 19 25 2 0
BITMAP
F000E0
F000E0
F800E0
FC00E0
FC00E0
FE00E0
EF00E0
E700E0
E780E0
E3C0E0
E3C0E0
E1E0E0
E0E0E0
E0F0E0
E078E0
E038E0
E03CE0
E01CE0
E01EE0
E00FE0
E007E0
E007E0
E003E0
E001E0
E001E0
ENDCHAR
STARTCHAR O
ENCODING 79
SWIDTH 778 0
DWIDTH 25 0
BBX 23 25 1 0
BITMAP
00FE00
03FF80
0FEFE0
1F01F0
3E00F8
3C0078
78003C
70001C
F0001E
E0000E
E0000E
E0000E
E0000E
E0000E
E0000E
E0000E
F0001E
F0001E
78003C
3C0078
3E00F8
1F01F0
0FEFE0
03FF80
00FE00
ENDCHAR
STARTCHAR P
ENCODING 80
SWIDTH 667 0
DWIDTH 22 0
BBX 17 25 3 0
BITMAP
FFF800
FFFE00
FFFF00
E00F00
E00780
E00380
E00380
E00380
E00380
E00380
E00780
E00F00
FFFF00
FFFE00
FFF800
E00000
E00000
E00000
E00000
E00000
E00000
E00000
E00000
E00000
E00000
ENDCHAR
STARTCHAR Q
ENCODING 81
SWIDTH 778 0
DWIDTH 26 0
BBX 23 26 1 -1
BITMAP
00FE00
03FF80
0FEFE0
1F01F0
3E00F8
3C0078
78003C
70001C
F0001E
E0000E
E0000E
E0000E
E0000E
E0000E
E0000E
E0000E
F0001E
F0021E
78073C
3C07B8
3E03F8
1F01F0
0FEFF8
03FFBC
00FE1E
00000C
ENDCHAR
STARTCHAR R
ENCODING 82
SWIDTH 722 0
DWIDTH 24 0
BBX 19 25 3 0
BITMAP
FFFC00
FFFF00
FFFF80
E00780
E003C0
E001C0
E001C0
E001C0
E001C0
E003C0
E00380
E00F80
FFFF00
FFFE00
FFFF00
E00F80
E00780
E00380
E003C0
E003C0
E003C0
E001C0
E001C0
E001C0
E001E0
ENDCHAR
STARTCHAR S
ENCODING 83
SWIDTH 667 0
DWIDTH 22 0
BBX 19 25 1 0
BITMAP
03F800
0FFE00
1FFF00
3C0F80
3803C0
7001C0
7001C0
700000
780000
7C0000
3FC000
1FF800
07FF00
007F80
000FC0
0001E0
0000E0
E000E0
F000E0
7001E0
7801C0
3E07C0
3FFF80
0FFE00
03F800
ENDCHAR
STARTCHAR T
ENCODING 84
SWIDTH 611 0
DWIDTH 20 0
BBX 19 25 0 0
BITMAP
FFFFE0
FFFFE0
FFFFE0
00E000
00E000
00E000
00E000
00E000
00E000
00E000
00E000
00E000
00E000
00E000
00E000
00E000
00E000
00E000
00E000
00E000
00E000
00E000
00E000
00E000
00E000
ENDCHAR
STARTCHAR U
ENCODING 85
SWIDTH 722 0
DWIDTH 24 0
BBX 18 25 3 0
BITMAP
E001C0
E001C0
E001C0
E001C0
E001C0
E001C0
E001C0
E001C0
E001C0
E001C0
E001C0
E001C0
E001C0
E001C0
E001C0
E001C0
E001C0
E001C0
E001C0
F003C0
780780
7C0F80
3FFF00
1FFE00
03F000
ENDCHAR
STARTCHAR V
ENCODING 86
SWIDTH 667 0
DWIDTH 22 0
BBX 19 25 1 0
BITMAP
F001E0
F001E0
F001E0
7001C0
7803C0
7803C0
380380
380380
3C0780
1C0700
1C0700
1E0F00
0E0E00
0E0E00
0F0E00
071C00
071C00
079C00
03B800
03B800
03B800
01F000
01F000
00E000
00E000
ENDCHAR
STARTCHAR W
ENCODING 87
SWIDTH 944 0
DWIDTH 31 0
BBX 29 25 1 0
BITMAP
F0070078
F0070078
F00F8078
700F8070
700F8070
781DC0F0
781DC0F0
381DC0E0
381DC0E0
3838E0E0
3C38E1E0
1C38E1C0
1C30E1C0
1C7071C0
1C7071C0
0E707380
0EE03B80
0EE03B80
0EE03B80
07E03F80
07C01F00
07C01F00
07C01F00
03800E00
03800E00
ENDCHAR
STARTCHAR X
ENCODING 88
SWIDTH 667 0
DWIDTH 22 0
BBX 20 25 1 0
BITMAP
F800F0
7801E0
3C03C0
1C03C0
1E0780
0F0700
0F0F00
079E00
039C00
03FC00
01F800
00F000
00F000
01F800
01F800
039C00
079E00
070E00
0F0F00
1E0780
1E0780
3C03C0
7801E0
7801E0
F000F0
ENDCHAR
STARTCHAR Y
ENCODING 89
SWIDTH 667 0
DWIDTH 22 0
BBX 21 25 0 0
BITMAP
F00078
7800F0
7800E0
3C01E0
1C01C0
1E03C0
0E0780
0F0780
078F00
038E00
03DE00
01DC00
01FC00
00F800
00F800
007000
007000
007000
007000
007000
007000
007000
007000
007000
007000
ENDCHAR
STARTCHAR Z
ENCODING 90
SWIDTH 611 0
DWIDTH 20 0
BBX 18 25 1 0
BITMAP
7FFFC0
7FFFC0
7FFFC0
000780
000F80
000F00
001E00
003C00
003C00
007800
00F000
01E000
01E000
03C000
078000
078000
0F0000
1E0000
3C0000
3C0000
780000
F00000
FFFFC0
FFFFC0
FFFFC0
ENDCHAR
STARTCHAR bracketleft
ENCODING 91
SWIDTH 278 0
DWIDTH 9 0
BBX 6 32 2 -7
BITMAP
FC
FC
E0
E0
E0
E0
E0
E0
E0
E0
E0
E0
E0
E0
E0
E0
E0
E0
E0
E0
E0
E0
E0
E0
E0
E0
E0
E0
E0
E0
FC
FC
ENDCHAR
STARTCHAR backslash
ENCODING 92
SWIDTH 278 0
DWIDTH 9 0
BBX 9 24 0 0
BITMAP
C000
C000
6000
6000
6000
3000
3000
3000
1000
1800
1800
1800
0C00
0C00
0C00
0600
0600
0600
0200
0300
0300
0300
0180
0180
ENDCHAR
STARTCHAR bracketright
ENCODING 93
SWIDTH 278 0
DWIDTH 9 0
BBX 6 32 1 -7
BITMAP
FC
FC
1C
1C
1C
1C
1C
1C
1C
1C
1C
1C
1C
1C
1C
1C
1C
1C
1C
1C
1C
1C
1C
1C
1C
1C
1C
1C
1C
1C
FC
FC
ENDCHAR
STARTCHAR asciicircum
ENCODING 94
SWIDTH 469 0
DWIDTH 16 0
BBX 12 13 1 11
BITMAP
0600
0F00
0F00
1F80
1980
1980
39C0
30C0
70E0
6060
6060
E070
C030
ENDCHAR
STARTCHAR underscore
ENCODING 95
SWIDTH 556 0
DWIDTH 18 0
BBX 18 2 0 -6
BITMAP
FFFFC0
FFFFC0
ENDCHAR
STARTCHAR grave
ENCODING 96
SWIDTH 333 0
DWIDTH 11 0
BBX 6 5 1 20
BITMAP
E0
F0
70
38
1C
ENDCHAR
STARTCHAR a
ENCODING 97
SWIDTH 556 0
DWIDTH 18 0
BBX 16 18 1 0
BITMAP
0FE0
3FF8
3C78
703C
701C
001C
003C
01FC
1FFC
7E1C
781C
F01C
E01C
E03C
E07C
79FE
7FDF
3F8F
ENDCHAR
STARTCHAR b
ENCODING 98
SWIDTH 556 0
DWIDTH 18 0
BBX 15 25 2 0
BITMAP
E000
E000
E000
E000
E000
E000
E000
E3E0
EFF0
FFF8
F83C
F01C
F01E
E00E
E00E
E00E
E00E
E00E
E00E
F01E
F01C
FC3C
FFF8
EFF0
E7E0
ENDCHAR
STARTCHAR c
ENCODING 99
SWIDTH 500 0
DWIDTH 16 0
BBX 14 18 1 0
BITMAP
07C0
1FF0
3FF8
383C
701C
701C
E000
E000
E000
E000
E000
E01C
E01C
701C
7838
3FF8
1FF0
07C0
ENDCHAR
STARTCHAR d
ENCODING 100
SWIDTH 556 0
DWIDTH 18 0
BBX 15 25 1 0
BITMAP
000E
000E
000E
000E
000E
000E
000E
07CE
1FEE
3FFE
7C3E
701E
F01E
E00E
E00E
E00E
E00E
E00E
E00E
F01E
F01E
783E
7FFE
3FEE
0FCE
ENDCHAR
STARTCHAR e
ENCODING 101
SWIDTH 556 0
DWIDTH 18 0
BBX 15 18 2 0
BITMAP
07C0
1FF0
3FF8
783C
701C
F00E
E00E
E00E
FFFE
FFFE
E000
E000
F00E
701E
783C
3FF8
1FF0
07C0
ENDCHAR
STARTCHAR f
ENCODING 102
SWIDTH 278 0
DWIDTH 9 0
BBX 8 25 1 0
BITMAP
0F
1F
3C
38
38
38
38
FF
FF
FF
38
38
38
38
38
38
38
38
38
38
38
38
38
38
38
ENDCHAR
STARTCHAR g
ENCODING 103
SWIDTH 556 0
DWIDTH 18 0
BBX 15 25 1 -7
BITMAP
07CE
1FEE
3FFE
7C3E
701E
F01E
E00E
E00E
E00E
E00E
E00E
E00E
F01E
703E
783E
3FFE
1FEE
078E
000E
E00E
E01C
F01C
7C78
3FF8
1FE0
ENDCHAR
STARTCHAR h
ENCODING 104
SWIDTH 556 0
DWIDTH 18 0
BBX 14 25 2 0
BITMAP
E000
E000
E000
E000
E000
E000
E000
E3E0
EFF0
FFF8
F83C
F01C
E01C
E01C
E01C
E01C
E01C
E01C
E01C
E01C
E01C
E01C
E01C
E01C
E01C
ENDCHAR
STARTCHAR i
ENCODING 105
SWIDTH 222 0
DWIDTH 7 0
BBX 3 25 2 0
BITMAP
E0
E0
E0
E0
00
00
00
E0
E0
E0
E0
E0
E0
E0
E0
E0
E0
E0
E0
E0
E0
E0
E0
E0
E0
ENDCHAR
STARTCHAR j
ENCODING 106
SWIDTH 222 0
DWIDTH 7 0
BBX 6 32 -1 -7
BITMAP
1C
1C
1C
1C
00
00
00
1C
1C
1C
1C
1C
1C
1C
1C
1C
1C
1C
1C
1C
1C
1C
1C
1C
1C
1C
1C
1C
1C
3C
FC
F8
ENDCHAR
STARTCHAR k
ENCODING 107
SWIDTH 500 0
DWIDTH 16 0
BBX 15 25 1 0
BITMAP
E000
E000
E000
E000
E000
E000
E000
E078
E0F0
E1E0
E3C0
E780
EF00
FF00
FF00
FB80
F3C0
E1C0
E1E0
E0E0
E0F0
E078
E038
E03C
E01E
ENDCHAR
STARTCHAR l
ENCODING 108
SWIDTH 222 0
DWIDTH 7 0
BBX 3 25 2 0
BITMAP
E0
E0
E0
E0
E0
E0
E0
E0
E0
E0
E0
E0
E0
E0
E0
E0
E0
E0
E0
E0
E0
E0
E0
E0
E0
ENDCHAR
STARTCHAR m
ENCODING 109
SWIDTH 833 0
DWIDTH 27 0
BBX 23 18 2 0
BITMAP
E3C0F0
EFF3FC
FFF7FC
F87E1E
F03C0E
E0380E
E0380E
E0380E
E0380E
E0380E
E0380E
E0380E
E0380E
E0380E
E0380E
E0380E
E0380E
E0380E
ENDCHAR
STARTCHAR n
ENCODING 110
SWIDTH 556 0
DWIDTH 18 0
BBX 14 18 2 0
BITMAP
E3E0
EFF8
FFF8
F83C
F01C
E01C
E01C
E01C
E01C
E01C
E01C
E01C
E01C
E01C
E01C
E01C
E01C
E01C
ENDCHAR
STARTCHAR o
ENCODING 111
SWIDTH 556 0
DWIDTH 18 0
BBX 15 18 1 0
BITMAP
07C0
1FF0
3FF8
783C
701C
F01E
E00E
E00E
E00E
E00E
E00E
E00E
F01E
701C
783C
3FF8
1FF0
07C0
ENDCHAR
STARTCHAR p
ENCODING 112
SWIDTH 556 0
DWIDTH 18 0
BBX 15 25 2 -7
BITMAP
03C0
EFF0
FFF8
F83C
F01C
F01E
E00E
E00E
E00E
E00E
E00E
E00E
F01E
F01C
F83C
FFF8
EFF0
E7E0
E000
E000
E000
E000
E000
E000
E000
ENDCHAR
STARTCHAR q
ENCODING 113
SWIDTH 556 0
DWIDTH 18 0
BBX 15 25 1 -7
BITMAP
07C0
1FEE
3FFE
7C3E
701E
F01E
E00E
E00E
E00E
E00E
E00E
E00E
F01E
701E
783E
3FFE
1FEE
0FCE
000E
000E
000E
000E
000E
000E
000E
ENDCHAR
STARTCHAR r
ENCODING 114
SWIDTH 333 0
DWIDTH 11 0
BBX 8 18 2 0
BITMAP
E7
EF
FF
FC
F0
F0
E0
E0
E0
E0
E0
E0
E0
E0
E0
E0
E0
E0
ENDCHAR
STARTCHAR s
ENCODING 115
SWIDTH 500 0
DWIDTH 16 0
BBX 13 18 2 0
BITMAP
0F80
3FE0
7FE0
70F0
E070
E000
7000
7E00
3FC0
07F0
00F0
0078
E038
E038
F070
7FF0
7FE0
1F80
ENDCHAR
STARTCHAR t
ENCODING 116
SWIDTH 278 0
DWIDTH 9 0
BBX 8 22 1 0
BITMAP
38
38
38
38
FF
FF
FF
38
38
38
38
38
38
38
38
38
38
38
38
3C
3F
1F
ENDCHAR
STARTCHAR u
ENCODING 117
SWIDTH 556 0
DWIDTH 18 0
BBX 14 18 2 0
BITMAP
E01C
E01C
E01C
E01C
E01C
E01C
E01C
E01C
E01C
E01C
E01C
E01C
E01C
E03C
F07C
7FFC
7FDC
1F1C
ENDCHAR
STARTCHAR v
ENCODING 118
SWIDTH 500 0
DWIDTH 16 0
BBX 15 18 0 0
BITMAP
E00E
E00E
701C
701C
701C
3838
3838
3838
1C70
1C70
1C70
0EE0
0EE0
0EE0
07C0
07C0
0380
0380
ENDCHAR
STARTCHAR w
ENCODING 119
SWIDTH 722 0
DWIDTH 23 0
BBX 23 18 0 0
BITMAP
E0380E
E0380E
707C1C
707C1C
706C1C
38EE1C
38EE38
38EE38
38C638
18C630
1DC770
1DC770
1DC770
0D8360
0F83E0
0F83E0
0701C0
0701C0
ENDCHAR
STARTCHAR x
ENCODING 120
SWIDTH 500 0
DWIDTH 16 0
BBX 15 18 0 0
BITMAP
F01E
781C
3838
3C70
1C70
0EE0
0FE0
07C0
0380
07C0
07C0
0FE0
1EE0
1C70
3878
3838
701C
F01E
ENDCHAR
STARTCHAR y
ENCODING 121
SWIDTH 500 0
DWIDTH 16 0
BBX 14 25 1 -7
BITMAP
E01C
E01C
F038
7038
7038
7070
3870
3870
38E0
3CE0
1CE0
1DC0
1DC0
0FC0
0F80
0F80
0700
0700
0700
0E00
0E00
1C00
7C00
7800
7000
ENDCHAR
STARTCHAR z
ENCODING 122
SWIDTH 500 0
DWIDTH 16 0
BBX 14 18 1 0
BITMAP
7FF8
7FF8
7FF8
0078
00F0
00E0
01C0
03C0
0780
0700
0E00
1C00
3C00
7800
7000
FFFC
FFFC
FFFC
ENDCHAR
STARTCHAR braceleft
ENCODING 123
SWIDTH 334 0
DWIDTH 11 0
BBX 8 32 1 -7
BITMAP
0F
1F
1C
18
18
18
18
18
18
18
18
18
38
38
70
E0
E0
70
38
38
18
18
18
18
18
18
18
18
18
1C
1F
0F
ENDCHAR
STARTCHAR bar
ENCODING 124
SWIDTH 260 0
DWIDTH 9 0
BBX 2 31 3 -7
BITMAP
C0
C0
C0
C0
C0
C0
C0
C0
C0
C0
C0
C0
C0
C0
C0
C0
C0
C0
C0
C0
C0
C0
C0
C0
C0
C0
C0
C0
C0
C0
C0
ENDCHAR
STARTCHAR braceright
ENCODING 125
SWIDTH 334 0
DWIDTH 11 0
BBX 8 32 1 -7
BITMAP
F0
F8
38
18
18
18
18
18
18
18
18
18
1C
1C
0E
07
07
0E
1C
1C
18
18
18
18
18
18
18
18
18
38
F8
F0
ENDCHAR
STARTCHAR asciitilde
ENCODING 126
SWIDTH 584 0
DWIDTH 19 0
BBX 14 6 2 9
BITMAP
1800
7C0C
7F0C
C7DC
C1F8
00F0
ENDCHAR
STARTCHAR space
ENCODING 160
SWIDTH 278 0
DWIDTH 9 0
BBX 1 1 0 0
BITMAP
00
ENDCHAR
STARTCHAR exclamdown
ENCODING 161
SWIDTH 333 0
DWIDTH 11 0
BBX 3 25 4 -7
BITMAP
E0
E0
E0
E0
00
00
40
40
E0
E0
E0
E0
E0
E0
E0
E0
E0
E0
E0
E0
E0
E0
E0
E0
E0
ENDCHAR
STARTCHAR cent
ENCODING 162
SWIDTH 556 0
DWIDTH 19 0
BBX 14 25 2 -4
BITMAP
0020
0060
0040
07E0
1FF0
3CF8
78BC
709C
709C
E180
E100
E100
E300
E300
E20C
E21C
761C
7C3C
3C78
1FF0
0FE0
0800
1800
1000
1000
ENDCHAR
STARTCHAR sterling
ENCODING 163
SWIDTH 556 0
DWIDTH 19 0
BBX 15 24 1 0
BITMAP
03C0
0FF8
1FFC
3C3C
781E
700E
700E
7000
7000
3800
3800
FFC0
FFC0
0C00
0E00
0E00
0C00
1C00
1800
3800
7386
FFFE
FFFE
607C
ENDCHAR
STARTCHAR currency
ENCODING 164
SWIDTH 556 0
DWIDTH 18 0
BBX 12 13 3 5
BITMAP
E630
FFF0
7FF0
70E0
6060
E070
E070
E070
6060
70E0
7FF0
FFF0
E630
ENDCHAR
STARTCHAR yen
ENCODING 165
SWIDTH 556 0
DWIDTH 18 0
BBX 16 24 1 0
BITMAP
E007
E007
700E
700E
381C
381C
1C38
1C38
0E70
0E70
07E0
7FFE
7FFE
7FFE
01C0
01C0
7FFE
7FFE
7FFE
01C0
01C0
01C0
01C0
01C0
ENDCHAR
STARTCHAR brokenbar
ENCODING 166
SWIDTH 260 0
DWIDTH 9 0
BBX 2 32 3 -7
BITMAP
C0
C0
C0
C0
C0
C0
C0
C0
C0
C0
C0
C0
C0
00
00
00
00
00
00
C0
C0
C0
C0
C0
C0
C0
C0
C0
C0
C0
C0
C0
ENDCHAR
STARTCHAR section
ENCODING 167
SWIDTH 556 0
DWIDTH 18 0
BBX 15 32 1 -7
BITMAP
03C0
0FF0
1FF8
1C78
383C
381C
381C
3C00
1E00
1F80
3FE0
71F0
E0F8
E07C
E01C
E01E
700E
7C0E
3E0E
1F1C
0F9C
03F8
01F0
00F0
0078
7038
7038
7838
3870
3FF0
1FE0
0780
ENDCHAR
STARTCHAR dieresis
ENCODING 168
SWIDTH 333 0
DWIDTH 11 0
BBX 8 3 1 22
BITMAP
E7
E7
E7
ENDCHAR
STARTCHAR copyright
ENCODING 169
SWIDTH 737 0
DWIDTH 25 0
BBX 24 25 0 0
BITMAP
00FE00
03FF80
0701E0
0C0070
180018
307E0C
60FF86
61C1C6
C380C3
C30003
C70003
860001
860001
860001
860001
C70003
C380C3
61E1C6
60FF86
303E0C
180018
1C0038
0701E0
03FF80
00FE00
ENDCHAR
STARTCHAR ordfeminine
ENCODING 170
SWIDTH 370 0
DWIDTH 12 0
BBX 10 15 1 10
BITMAP
3F00
7780
6180
0180
0780
7F80
E180
C180
C380
E780
7DC0
0000
0000
FFC0
FFC0
ENDCHAR
STARTCHAR guillemotleft
ENCODING 171
SWIDTH 556 0
DWIDTH 18 0
BBX 12 9 3 5
BITMAP
1C70
38E0
71C0
E380
C300
E380
71C0
38E0
1C70
ENDCHAR
STARTCHAR logicalnot
ENCODING 172
SWIDTH 584 0
DWIDTH 19 0
BBX 16 9 1 3
BITMAP
FFFF
FFFF
FFFF
0007
0007
0007
0007
0007
0007
ENDCHAR
STARTCHAR hyphen
ENCODING 173
SWIDTH 333 0
DWIDTH 11 0
BBX 8 2 1 8
BITMAP
FF
FF
ENDCHAR
STARTCHAR registered
ENCODING 174
SWIDTH 737 0
DWIDTH 25 0
BBX 24 25 0 0
BITMAP
007E00
03FF80
0701E0
0C0070
180018
30000C
61FF06
61FF86
C181C3
C180C3
C180C3
818181
81FF01
81FC01
818E01
C18603
C18303
618186
6181C6
30000C
180018
1C0038
0701E0
03FF80
007E00
ENDCHAR
STARTCHAR macron
ENCODING 175
SWIDTH 333 0
DWIDTH 11 0
BBX 9 2 1 22
BITMAP
FF80
FF80
ENDCHAR
STARTCHAR degree
ENCODING 176
SWIDTH 400 0
DWIDTH 13 0
BBX 9 9 2 15
BITMAP
3E00
7F00
E380
C180
C180
C180
E380
7F00
3E00
ENDCHAR
STARTCHAR plusminus
ENCODING 177
SWIDTH 584 0
DWIDTH 19 0
BBX 17 21 1 0
BITMAP
01C000
01C000
01C000
01C000
01C000
01C000
01C000
FFFF80
FFFF80
FFFF80
01C000
01C000
01C000
01C000
01C000
01C000
000000
000000
FFFF80
FFFF80
FFFF80
ENDCHAR
STARTCHAR twosuperior
ENCODING 178
SWIDTH 333 0
DWIDTH 11 0
BBX 9 15 1 9
BITMAP
1E00
7F00
6300
C180
C180
0180
0300
0700
1E00
3800
7000
E000
C000
FF80
FF80
ENDCHAR
STARTCHAR threesuperior
ENCODING 179
SWIDTH 333 0
DWIDTH 11 0
BBX 9 15 1 9
BITMAP
3E00
7F00
E380
C180
C180
0380
0F00
0F00
0380
0180
C180
C180
E380
7F00
3E00
ENDCHAR
STARTCHAR acute
ENCODING 180
SWIDTH 333 0
DWIDTH 11 0
BBX 7 5 3 22
BITMAP
1E
3C
38
70
E0
ENDCHAR
STARTCHAR mu
ENCODING 181
SWIDTH 556 0
DWIDTH 19 0
BBX 14 24 2 -6
BITMAP
E01C
E01C
E01C
E01C
E01C
E01C
E01C
E01C
E01C
E01C
E01C
E01C
E01C
E03C
F07C
FFFC
FFDC
FF1C
E000
E000
E000
E000
E000
E000
ENDCHAR
STARTCHAR paragraph
ENCODING 182
SWIDTH 537 0
DWIDTH 17 0
BBX 16 30 1 -5
BITMAP
07FF
1FFF
3F8C
3F8C
7F8C
7F8C
FF8C
FF8C
FF8C
FF8C
7F8C
7F8C
3F8C
3F8C
1F8C
038C
018C
018C
018C
018C
018C
018C
018C
018C
018C
018C
018C
018C
018C
018C
ENDCHAR
STARTCHAR periodcentered
ENCODING 183
SWIDTH 278 0
DWIDTH 9 0
BBX 4 4 3 11
BITMAP
60
F0
F0
60
ENDCHAR
STARTCHAR cedilla
ENCODING 184
SWIDTH 333 0
DWIDTH 11 0
BBX 7 7 2 -7
BITMAP
18
18
3C
0E
06
CE
7C
ENDCHAR
STARTCHAR onesuperior
ENCODING 185
SWIDTH 333 0
DWIDTH 11 0
BBX 5 15 2 9
BITMAP
18
38
F8
F8
18
18
18
18
18
18
18
18
18
18
18
ENDCHAR
STARTCHAR ordmasculine
ENCODING 186
SWIDTH 365 0
DWIDTH 12 0
BBX 10 15 1 10
BITMAP
1E00
7F80
6180
E1C0
C0C0
C0C0
C0C0
C0C0
E1C0
6180
7F80
1E00
0000
FFC0
FFC0
ENDCHAR
STARTCHAR guillemotright
ENCODING 187
SWIDTH 556 0
DWIDTH 18 0
BBX 12 9 3 5
BITMAP
E380
71C0
38E0
1C70
0C30
1C70
38E0
71C0
E380
ENDCHAR
STARTCHAR onequarter
ENCODING 188
SWIDTH 834 0
DWIDTH 28 0
BBX 25 25 1 0
BITMAP
00003000
18007000
38006000
F800E000
F801C000
18018000
18038000
18030000
18070000
180E0000
180C0000
181C0600
18180E00
18381E00
18703E00
18607600
00E06600
01C0C600
0181C600
03838600
0303FF80
0703FF80
06000600
0E000600
0C000600
ENDCHAR
STARTCHAR onehalf
ENCODING 189
SWIDTH 834 0
DWIDTH 28 0
BBX 25 25 1 0
BITMAP
00006000
1800E000
3800C000
F8018000
F8038000
18030000
18060000
180E0000
180C0000
181C0000
18180000
18383C00
1830FF00
1870C380
18618180
18C18180
01C00380
01800700
03800E00
03003C00
06007000
0E00E000
0C01C000
1C01FF80
1801FF80
ENDCHAR
STARTCHAR threequarters
ENCODING 190
SWIDTH 834 0
DWIDTH 28 0
BBX 25 24 1 0
BITMAP
3E000E00
7F000C00
63801800
C1803800
C1803000
03806000
0F00E000
0F80C000
01C18000
00C38000
C0C30600
C0C70E00
61CE1E00
7F8C3E00
1E187600
00386600
0030C600
0061C600
00E38600
01C3FF80
0183FF80
03000600
07000600
06000600
ENDCHAR
STARTCHAR questiondown
ENCODING 191
SWIDTH 611 0
DWIDTH 19 0
BBX 14 25 3 -7
BITMAP
0380
0380
0380
0380
0000
0000
0380
0380
0380
0780
0700
0F00
1E00
3C00
7800
7000
F000
E01C
E01C
E01C
F03C
7878
7FF0
3FE0
0780
ENDCHAR
STARTCHAR Agrave
ENCODING 192
SWIDTH 667 0
DWIDTH 22 0
BBX 20 31 1 0
BITMAP
03C000
01E000
00E000
007000
003800
000000
00F000
00F000
00F000
01F800
01F800
03FC00
039C00
039C00
079E00
070E00
070E00
0F0F00
0E0F00
0E0700
1E0780
1FFF80
1FFF80
3FFFC0
3C03C0
3801C0
7801E0
7801E0
7000E0
F000F0
F000F0
ENDCHAR
STARTCHAR Aacute
ENCODING 193
SWIDTH 667 0
DWIDTH 22 0
BBX 20 31 1 0
BITMAP
003C00
007800
007000
00E000
01C000
000000
00F000
00F000
00F000
01F800
01F800
03FC00
039C00
039C00
079E00
070E00
070E00
0F0F00
0F0F00
0E0700
1E0780
1FFF80
1FFF80
3FFFC0
3C03C0
7801C0
7801E0
7801E0
7000E0
F000F0
F000F0
ENDCHAR
STARTCHAR Acircumflex
ENCODING 194
SWIDTH 667 0
DWIDTH 22 0
BBX 20 31 1 0
BITMAP
004000
00E000
01F000
03B800
071C00
000000
00F000
00F000
00F000
01F800
01F800
03FC00
039C00
039C00
079E00
070E00
070E00
0F0F00
0F0F00
0E0700
1E0780
1FFF80
1FFF80
3FFFC0
3C03C0
3801C0
7801E0
7801E0
7000E0
F000F0
F000F0
ENDCHAR
STARTCHAR Atilde
ENCODING 195
SWIDTH 667 0
DWIDTH 22 0
BBX 20 30 1 0
BITMAP
01C600
03FE00
07FC00
063800
000000
00F000
00F000
00F000
01F800
01F800
03FC00
039C00
039C00
079E00
070E00
070E00
0F0F00
0F0F00
0E0700
1E0780
1FFF80
1FFF80
3FFFC0
3C03C0
3801C0
7801E0
7801E0
7000E0
F000F0
F000F0
ENDCHAR
STARTCHAR Adieresis
ENCODING 196
SWIDTH 667 0
DWIDTH 22 0
BBX 20 30 1 0
BITMAP
039C00
039C00
039C00
000000
000000
00F000
00F000
00F000
01F800
01F800
03FC00
039C00
039C00
079E00
070E00
070E00
0F0F00
0F0F00
0E0700
1E0780
1FFF80
1FFF80
3FFFC0
3C03C0
3801C0
7801E0
7801E0
7000E0
F000F0
F000F0
ENDCHAR
STARTCHAR Aring
ENCODING 197
SWIDTH 667 0
DWIDTH 22 0
BBX 20 31 1 0
BITMAP
00F000
019800
010800
010800
019800
00F000
000000
00F000
00F000
01F800
01F800
03FC00
039C00
039C00
079E00
070E00
070E00
0F0F00
0E0F00
0E0700
1E0780
1FFF80
1FFF80
3FFFC0
3C03C0
3801C0
7801E0
7801E0
7000E0
F000F0
F000F0
ENDCHAR
STARTCHAR AE
ENCODING 198
SWIDTH 1000 0
DWIDTH 32 0
BBX 29 25 1 0
BITMAP
007FFFF8
007FFFF8
00FFFFF8
00E38000
01C38000
01C38000
03C38000
03838000
03838000
07838000
07038000
0703FFF0
0F03FFF0
0E03FFF0
1E038000
1FFF8000
1FFF8000
3FFF8000
38038000
78038000
78038000
70038000
F003FFF8
E003FFF8
E003FFF8
ENDCHAR
STARTCHAR Ccedilla
ENCODING 199
SWIDTH 722 0
DWIDTH 23 0
BBX 20 32 2 -7
BITMAP
01F800
07FE00
0FFF80
1F0780
3C03C0
7801E0
7000E0
7000E0
F00000
F00000
E00000
E00000
E00000
E00000
E00000
F00070
F00070
7000F0
7000E0
7801E0
3C03C0
1F07C0
0FFF80
07FE00
01F800
006000
006000
00F000
003800
001800
033800
01F000
ENDCHAR
STARTCHAR Egrave
ENCODING 200
SWIDTH 667 0
DWIDTH 22 0
BBX 17 31 3 0
BITMAP
0F0000
078000
038000
01C000
00E000
000000
FFFF00
FFFF00
FFFF00
E00000
E00000
E00000
E00000
E00000
E00000
E00000
E00000
FFFF00
FFFF00
FFFF00
E00000
E00000
E00000
E00000
E00000
E00000
E00000
E00000
FFFF80
FFFF80
FFFF80
ENDCHAR
STARTCHAR Eacute
ENCODING 201
SWIDTH 667 0
DWIDTH 22 0
BBX 17 31 3 0
BITMAP
007800
00F000
00E000
01C000
038000
000000
FFFF00
FFFF00
FFFF00
E00000
E00000
E00000
E00000
E00000
E00000
E00000
E00000
FFFF00
FFFF00
FFFF00
E00000
E00000
E00000
E00000
E00000
E00000
E00000
E00000
FFFF80
FFFF80
FFFF80
ENDCHAR
STARTCHAR Ecircumflex
ENCODING 202
SWIDTH 667 0
DWIDTH 22 0
BBX 17 31 3 0
BITMAP
008000
01C000
03E000
077000
0E3800
000000
FFFF00
FFFF00
FFFF00
E00000
E00000
E00000
E00000
E00000
E00000
E00000
E00000
FFFF00
FFFF00
FFFF00
E00000
E00000
E00000
E00000
E00000
E00000
E00000
E00000
FFFF80
FFFF80
FFFF80
ENDCHAR
STARTCHAR Edieresis
ENCODING 203
SWIDTH 667 0
DWIDTH 22 0
BBX 17 30 3 0
BITMAP
1C3800
1C3800
1C3800
000000
000000
FFFF00
FFFF00
FFFF00
E00000
E00000
E00000
E00000
E00000
E00000
E00000
E00000
FFFF00
FFFF00
FFFF00
E00000
E00000
E00000
E00000
E00000
E00000
E00000
E00000
FFFF80
FFFF80
FFFF80
ENDCHAR
STARTCHAR Igrave
ENCODING 204
SWIDTH 278 0
DWIDTH 9 0
BBX 7 31 0 0
BITMAP
F0
78
38
1C
0E
00
1C
1C
1C
1C
1C
1C
1C
1C
1C
1C
1C
1C
1C
1C
1C
1C
1C
1C
1C
1C
1C
1C
1C
1C
1C
ENDCHAR
STARTCHAR Iacute
ENCODING 205
SWIDTH 278 0
DWIDTH 9 0
BBX 7 31 2 0
BITMAP
1E
3C
38
70
E0
00
70
70
70
70
70
70
70
70
70
70
70
70
70
70
70
70
70
70
70
70
70
70
70
70
70
ENDCHAR
STARTCHAR Icircumflex
ENCODING 206
SWIDTH 278 0
DWIDTH 9 0
BBX 9 31 0 0
BITMAP
0800
1C00
3E00
7700
E380
0000
1C00
1C00
1C00
1C00
1C00
1C00
1C00
1C00
1C00
1C00
1C00
1C00
1C00
1C00
1C00
1C00
1C00
1C00
1C00
1C00
1C00
1C00
1C00
1C00
1C00
ENDCHAR
STARTCHAR Idieresis
ENCODING 207
SWIDTH 278 0
DWIDTH 9 0
BBX 9 30 0 0
BITMAP
E380
E380
E380
0000
0000
1C00
1C00
1C00
1C00
1C00
1C00
1C00
1C00
1C00
1C00
1C00
1C00
1C00
1C00
1C00
1C00
1C00
1C00
1C00
1C00
1C00
1C00
1C00
1C00
1C00
ENDCHAR
STARTCHAR Eth
ENCODING 208
SWIDTH 722 0
DWIDTH 23 0
BBX 21 25 0 0
BITMAP
1FFE00
1FFF80
1FFFC0
1C03E0
1C00E0
1C00F0
1C0070
1C0070
1C0038
1C0038
1C0038
FFC038
FFC038
1C0038
1C0038
1C0038
1C0078
1C0070
1C0070
1C00F0
1C00E0
1C03C0
1FFFC0
1FFF80
1FFE00
ENDCHAR
STARTCHAR Ntilde
ENCODING 209
SWIDTH 722 0
DWIDTH 24 0
BBX 19 30 2 0
BITMAP
01C600
03FE00
07FC00
063800
000000
F000E0
F800E0
F800E0
FC00E0
FC00E0
FE00E0
EF00E0
E700E0
E780E0
E3C0E0
E3C0E0
E1E0E0
E0E0E0
E0F0E0
E078E0
E038E0
E03CE0
E01CE0
E01EE0
E00FE0
E007E0
E007E0
E003E0
E001E0
E001E0
ENDCHAR
STARTCHAR Ograve
ENCODING 210
SWIDTH 778 0
DWIDTH 25 0
BBX 23 31 1 0
BITMAP
00F000
007800
003800
001C00
000E00
000000
00FE00
03FF80
0FFFE0
1F01F0
3E00F8
3C0078
78003C
70001C
70001C
F0001E
E0000E
E0000E
E0000E
E0000E
E0000E
F0001E
F0001E
70001C
78003C
3C0078
3E00F8
1F01F0
0FFFE0
03FF80
00FE00
ENDCHAR
STARTCHAR Oacute
ENCODING 211
SWIDTH 778 0
DWIDTH 25 0
BBX 23 31 1 0
BITMAP
000F00
001E00
001C00
003800
007000
000000
00FE00
03FF80
0FFFE0
1F01F0
3E00F8
3C0078
78003C
70001C
70001C
F0001E
E0000E
E0000E
E0000E
E0000E
E0000E
F0001E
F0001E
70001C
78003C
3C0078
3E00F8
1F01F0
0FFFE0
03FF80
00FE00
ENDCHAR
STARTCHAR Ocircumflex
ENCODING 212
SWIDTH 778 0
DWIDTH 25 0
BBX 23 31 1 0
BITMAP
001000
003800
007C00
00EE00
01C700
000000
00FE00
03FF80
0FFFE0
1F01F0
3E00F8
3C0078
78003C
70001C
70001C
F0001E
E0000E
E0000E
E0000E
E0000E
E0000E
F0001E
F0001E
70001C
78003C
3C0078
3E00F8
1F01F0
0FFFE0
03FF80
00FE00
ENDCHAR
STARTCHAR Otilde
ENCODING 213
SWIDTH 778 0
DWIDTH 25 0
BBX 23 30 1 0
BITMAP
007180
00FF80
01FF00
018E00
000000
00FE00
03FF80
0FFFE0
1F01F0
3E00F8
3C0078
78003C
70001C
70001C
F0001E
E0000E
E0000E
E0000E
E0000E
E0000E
F0001E
F0001E
70001C
78003C
3C0078
3E00F8
1F01F0
0FFFE0
03FF80
00FE00
ENDCHAR
STARTCHAR Odieresis
ENCODING 214
SWIDTH 778 0
DWIDTH 25 0
BBX 23 29 1 0
BITMAP
01C380
01C380
01C380
000000
00FE00
03FF80
0FFFE0
1F01F0
3E00F8
3C0078
78003C
70001C
70001C
F0001E
E0000E
E0000E
E0000E
E0000E
E0000E
F0001E
F0001E
70001C
78003C
3C0078
3E00F8
1F01F0
0FFFE0
03FF80
00FE00
ENDCHAR
STARTCHAR multiply
ENCODING 215
SWIDTH 584 0
DWIDTH 19 0
BBX 15 15 2 1
BITMAP
4004
E00E
F01E
783C
3C78
1FF0
0FE0
07C0
07C0
0FE0
1EF0
3C78
783C
F01E
600C
ENDCHAR
STARTCHAR Oslash
ENCODING 216
SWIDTH 778 0
DWIDTH 25 0
BBX 23 25 1 0
BITMAP
00FE06
03FF8C
0FFFF8
1F01F0
3E00F8
3C00F8
7801BC
70031C
70061C
F0061E
E00C0E
E0180E
E0300E
E0600E
E0C00E
E1801E
F3001E
76001C
7C003C
3C0078
3E00F8
3F01F0
6FFFE0
C3FF80
00FE00
ENDCHAR
STARTCHAR Ugrave
ENCODING 217
SWIDTH 722 0
DWIDTH 24 0
BBX 18 31 3 0
BITMAP
078000
03C000
01C000
00E000
007000
000000
E001C0
E001C0
E001C0
E001C0
E001C0
E001C0
E001C0
E001C0
E001C0
E001C0
E001C0
E001C0
E001C0
E001C0
E001C0
E001C0
E001C0
E001C0
E001C0
F003C0
780780
7C0F80
3FFF00
1FFE00
03F000
ENDCHAR
STARTCHAR Uacute
ENCODING 218
SWIDTH 722 0
DWIDTH 24 0
BBX 18 31 3 0
BITMAP
007800
00F000
00E000
01C000
038000
000000
E001C0
E001C0
E001C0
E001C0
E001C0
E001C0
E001C0
E001C0
E001C0
E001C0
E001C0
E001C0
E001C0
E001C0
E001C0
E001C0
E001C0
E001C0
E001C0
F003C0
780780
7C0F80
3FFF00
1FFE00
03F000
ENDCHAR
STARTCHAR Ucircumflex
ENCODING 219
SWIDTH 722 0
DWIDTH 24 0
BBX 18 31 3 0
BITMAP
004000
00E000
01F000
03B800
071C00
000000
E001C0
E001C0
E001C0
E001C0
E001C0
E001C0
E001C0
E001C0
E001C0
E001C0
E001C0
E001C0
E001C0
E001C0
E001C0
E001C0
E001C0
E001C0
E001C0
F003C0
780780
7C0F80
3FFF00
1FFE00
03F000
ENDCHAR
STARTCHAR Udieresis
ENCODING 220
SWIDTH 722 0
DWIDTH 24 0
BBX 18 30 3 0
BITMAP
0E1C00
0E1C00
0E1C00
000000
000000
E001C0
E001C0
E001C0
E001C0
E001C0
E001C0
E001C0
E001C0
E001C0
E001C0
E001C0
E001C0
E001C0
E001C0
E001C0
E001C0
E001C0
E001C0
E001C0
F003C0
780780
7C0F80
3FFF00
1FFE00
03F000
ENDCHAR
STARTCHAR Yacute
ENCODING 221
SWIDTH 667 0
DWIDTH 22 0
BBX 19 31 1 0
BITMAP
003C00
007800
007000
00E000
01C000
000000
E000E0
F001E0
7001C0
7803C0
380380
3C0780
1C0F00
1E0F00
0F1E00
071C00
07BC00
03B800
03F800
01F000
01F000
00E000
00E000
00E000
00E000
00E000
00E000
00E000
00E000
00E000
00E000
ENDCHAR
STARTCHAR Thorn
ENCODING 222
SWIDTH 667 0
DWIDTH 22 0
BBX 17 25 3 0
BITMAP
E00000
E00000
E00000
E00000
E00000
FFF800
FFFE00
FFFF00
E00F00
E00700
E00780
E00380
E00380
E00780
E00700
E00F00
FFFE00
FFFC00
FFF800
E00000
E00000
E00000
E00000
E00000
E00000
ENDCHAR
STARTCHAR germandbls
ENCODING 223
SWIDTH 611 0
DWIDTH 20 0
BBX 14 25 4 0
BITMAP
0F80
3FE0
7FF0
78F0
F078
E038
E038
E038
E078
E0F0
E3E0
E3E0
E3F0
E078
E03C
E01C
E01C
E01C
E01C
E01C
E038
E078
E7F0
E7E0
E780
ENDCHAR
STARTCHAR agrave
ENCODING 224
SWIDTH 556 0
DWIDTH 18 0
BBX 16 25 1 0
BITMAP
0F00
0780
0380
01C0
00E0
0000
0000
0FE0
3FF8
3C7C
701C
701C
001C
001C
00FC
1FFC
7F9C
781C
F01C
E01C
E03C
E07C
79FC
7FDF
3F8F
ENDCHAR
STARTCHAR aacute
ENCODING 225
SWIDTH 556 0
DWIDTH 18 0
BBX 16 25 1 0
BITMAP
00F0
01E0
01C0
0380
0700
0000
0000
0FE0
3FF8
3C7C
701C
701C
001C
001C
00FC
1FFC
7F9C
781C
F01C
E01C
E03C
E07C
78FC
7FDF
3F8F
ENDCHAR
STARTCHAR acircumflex
ENCODING 226
SWIDTH 556 0
DWIDTH 18 0
BBX 16 25 1 0
BITMAP
0100
0380
07C0
0EE0
1C70
0000
0000
0FE0
3FF8
3C7C
701C
701C
001C
001C
00FC
1FFC
7F9C
781C
F01C
E01C
E03C
E07C
78FC
7FDF
3F8F
ENDCHAR
STARTCHAR atilde
ENCODING 227
SWIDTH 556 0
DWIDTH 18 0
BBX 16 24 1 0
BITMAP
0718
0FF8
1FF0
18E0
0000
0000
0FE0
3FF8
3C7C
701C
701C
001C
001C
00FC
1FFC
7F9C
781C
F01C
E01C
E03C
E07C
78FC
7FDF
3F8F
ENDCHAR
STARTCHAR adieresis
ENCODING 228
SWIDTH 556 0
DWIDTH 18 0
BBX 16 23 1 0
BITMAP
0E70
0E70
0E70
0000
0000
0FE0
3FF8
3CFC
701C
701C
001C
001C
00FC
1FFC
7F9C
781C
F01C
E01C
E03C
E07C
79FC
7FDF
3F8F
ENDCHAR
STARTCHAR aring
ENCODING 229
SWIDTH 556 0
DWIDTH 18 0
BBX 16 25 1 0
BITMAP
0380
06C0
0440
0440
06C0
0380
0000
0FE0
3FF8
3C7C
701C
701C
001C
001C
00FC
1FFC
7F9C
781C
F01C
E01C
E03C
E07C
78FC
7FDF
3F8F
ENDCHAR
STARTCHAR ae
ENCODING 230
SWIDTH 889 0
DWIDTH 29 0
BBX 26 18 1 0
BITMAP
07C0F800
1FF1FE00
3C7F8F00
703E0380
701E0380
001C01C0
001C01C0
00FC01C0
0FFFFFC0
3FFFFFC0
7E1FFFC0
F01C0000
E01C01C0
E01E01C0
E07E0380
F8F78F00
7FE7FF00
3F81FC00
ENDCHAR
STARTCHAR ccedilla
ENCODING 231
SWIDTH 500 0
DWIDTH 17 0
BBX 14 25 1 -7
BITMAP
07C0
1FF0
3FF8
3838
701C
701C
E000
E000
E000
E000
E000
E01C
E01C
7038
7878
3FF0
1FE0
0780
0300
0300
0780
01C0
00C0
19C0
0F80
ENDCHAR
STARTCHAR egrave
ENCODING 232
SWIDTH 556 0
DWIDTH 18 0
BBX 15 25 1 0
BITMAP
1E00
0F00
0700
0380
01C0
0000
0000
07C0
1FF0
3E78
781C
701C
F00E
E00E
E00E
FFFE
FFFE
E000
E000
E00E
700E
781C
3C7C
1FF0
0FE0
ENDCHAR
STARTCHAR eacute
ENCODING 233
SWIDTH 556 0
DWIDTH 18 0
BBX 15 25 1 0
BITMAP
01E0
03C0
0380
0700
0E00
0000
0000
07C0
1FF0
3C78
781C
701C
F00E
E00E
E00E
FFFE
FFFE
E000
E000
E00E
700E
781C
3C7C
1FF0
0FE0
ENDCHAR
STARTCHAR ecircumflex
ENCODING 234
SWIDTH 556 0
DWIDTH 18 0
BBX 15 25 1 0
BITMAP
0100
0380
07C0
0EE0
1C70
0000
0000
07C0
1FF0
3C78
781C
701C
F00E
E00E
E00E
FFFE
FFFE
E000
E000
E00E
700E
781C
3C7C
1FF0
07C0
ENDCHAR
STARTCHAR edieresis
ENCODING 235
SWIDTH 556 0
DWIDTH 18 0
BBX 15 23 1 0
BITMAP
1C70
1C70
1C70
0000
0000
07C0
1FF0
3C78
781C
701C
F00E
E00E
E00E
FFFE
FFFE
E000
E000
E00E
700E
781C
3C7C
1FF0
07C0
ENDCHAR
STARTCHAR igrave
ENCODING 236
SWIDTH 278 0
DWIDTH 9 0
BBX 7 25 0 0
BITMAP
F0
78
38
1C
0E
00
00
1C
1C
1C
1C
1C
1C
1C
1C
1C
1C
1C
1C
1C
1C
1C
1C
1C
1C
ENDCHAR
STARTCHAR iacute
ENCODING 237
SWIDTH 278 0
DWIDTH 9 0
BBX 7 25 2 0
BITMAP
1E
3C
38
70
E0
00
00
70
70
70
70
70
70
70
70
70
70
70
70
70
70
70
70
70
70
ENDCHAR
STARTCHAR icircumflex
ENCODING 238
SWIDTH 278 0
DWIDTH 9 0
BBX 9 25 0 0
BITMAP
0800
1C00
3E00
7700
E380
0000
0000
1C00
1C00
1C00
1C00
1C00
1C00
1C00
1C00
1C00
1C00
1C00
1C00
1C00
1C00
1C00
1C00
1C00
1C00
ENDCHAR
STARTCHAR idieresis
ENCODING 239
SWIDTH 278 0
DWIDTH 9 0
BBX 8 23 1 0
BITMAP
E7
E7
E7
00
00
38
38
38
38
38
38
38
38
38
38
38
38
38
38
38
38
38
38
ENDCHAR
STARTCHAR eth
ENCODING 240
SWIDTH 556 0
DWIDTH 19 0
BBX 15 25 1 0
BITMAP
7840
3CE0
1FC0
0F80
1F80
3BC0
11E0
07F0
1FF8
3FF8
783C
701C
701C
E00E
E00E
E00E
E00E
E00E
E00E
701C
701C
783C
3FF8
1FF0
07C0
ENDCHAR
STARTCHAR ntilde
ENCODING 241
SWIDTH 556 0
DWIDTH 18 0
BBX 14 24 2 0
BITMAP
0E30
1FF0
3FE0
31C0
0000
0000
03C0
EFF0
FFF8
F83C
F01C
F01C
E01C
E01C
E01C
E01C
E01C
E01C
E01C
E01C
E01C
E01C
E01C
E01C
ENDCHAR
STARTCHAR ograve
ENCODING 242
SWIDTH 556 0
DWIDTH 19 0
BBX 15 25 1 0
BITMAP
1E00
0F00
0700
0380
01C0
0000
0000
07C0
1FF0
3FF8
783C
701C
701C
E00E
E00E
E00E
E00E
E00E
E00E
701C
701C
783C
3FF8
1FF0
07C0
ENDCHAR
STARTCHAR oacute
ENCODING 243
SWIDTH 556 0
DWIDTH 19 0
BBX 15 25 1 0
BITMAP
01E0
03C0
0380
0700
0E00
0000
0000
07C0
1FF0
3FF8
783C
701C
701C
E00E
E00E
E00E
E00E
E00E
E00E
701C
701C
783C
3FF8
1FF0
07C0
ENDCHAR
STARTCHAR ocircumflex
ENCODING 244
SWIDTH 556 0
DWIDTH 19 0
BBX 15 25 1 0
BITMAP
0100
0380
07C0
0EE0
1C70
0000
0000
07C0
1FF0
3FF8
783C
701C
701C
E00E
E00E
E00E
E00E
E00E
E00E
701C
701C
783C
3FF8
1FF0
07C0
ENDCHAR
STARTCHAR otilde
ENCODING 245
SWIDTH 556 0
DWIDTH 19 0
BBX 15 24 1 0
BITMAP
0E30
1FF0
3FE0
31C0
0000
0000
07C0
1FF0
3FF8
783C
701C
701C
E00E
E00E
E00E
E00E
E00E
E00E
701C
701C
783C
3FF8
1FF0
07C0
ENDCHAR
STARTCHAR odieresis
ENCODING 246
SWIDTH 556 0
DWIDTH 19 0
BBX 15 23 1 0
BITMAP
1C70
1C70
1C70
0000
0000
07C0
1FF0
3FF8
783C
701C
701C
E00E
E00E
E00E
E00E
E00E
E00E
701C
701C
783C
3FF8
1FF0
07C0
ENDCHAR
STARTCHAR divide
ENCODING 247
SWIDTH 584 0
DWIDTH 19 0
BBX 15 15 2 1
BITMAP
0380
0380
0380
0000
0000
0000
FFFE
FFFE
FFFE
0000
0000
0000
0380
0380
0380
ENDCHAR
STARTCHAR oslash
ENCODING 248
SWIDTH 611 0
DWIDTH 19 0
BBX 16 18 2 0
BITMAP
07C3
1FF6
3FFC
7878
701C
703C
E06E
E0CE
E18E
E30E
E60E
EC0E
781C
701C
383C
7FF8
DFF0
87C0
ENDCHAR
STARTCHAR ugrave
ENCODING 249
SWIDTH 556 0
DWIDTH 19 0
BBX 14 25 2 0
BITMAP
1E00
0F00
0700
0380
01C0
0000
0000
E01C
E01C
E01C
E01C
E01C
E01C
E01C
E01C
E01C
E01C
E01C
E01C
E03C
E03C
F0FC
7FFC
3FDC
0F00
ENDCHAR
STARTCHAR uacute
ENCODING 250
SWIDTH 556 0
DWIDTH 19 0
BBX 14 25 2 0
BITMAP
01E0
03C0
0380
0700
0E00
0000
0000
E01C
E01C
E01C
E01C
E01C
E01C
E01C
E01C
E01C
E01C
E01C
E01C
E03C
E03C
F0FC
7FFC
3FDC
0F00
ENDCHAR
STARTCHAR ucircumflex
ENCODING 251
SWIDTH 556 0
DWIDTH 19 0
BBX 14 25 2 0
BITMAP
0100
0380
07C0
0EE0
1C70
0000
0000
E01C
E01C
E01C
E01C
E01C
E01C
E01C
E01C
E01C
E01C
E01C
E01C
E03C
E03C
F0FC
7FFC
3FDC
0F00
ENDCHAR
STARTCHAR udieresis
ENCODING 252
SWIDTH 556 0
DWIDTH 19 0
BBX 14 23 2 0
BITMAP
1CE0
1CE0
1CE0
0000
0000
E01C
E01C
E01C
E01C
E01C
E01C
E01C
E01C
E01C
E01C
E01C
E01C
E03C
E03C
F0FC
7FFC
3FDC
0F00
ENDCHAR
STARTCHAR yacute
ENCODING 253
SWIDTH 500 0
DWIDTH 17 0
BBX 14 32 1 -7
BITMAP
00F0
01E0
01C0
0380
0700
0000
0000
E01C
E01C
E03C
7038
7038
7038
7870
3870
38F0
3CE0
1CE0
1DC0
1DC0
0FC0
0F80
0F80
0700
0700
0700
0E00
0E00
1E00
7C00
7C00
7000
ENDCHAR
STARTCHAR thorn
ENCODING 254
SWIDTH 556 0
DWIDTH 19 0
BBX 15 31 2 -6
BITMAP
E000
E000
E000
E000
E000
E000
E000
E7E0
EFF0
FFF8
F83C
F01C
F01E
E00E
E00E
E00E
E00E
E00E
E00E
F01C
F01C
F83C
FFF8
EFF0
E3C0
E000
E000
E000
E000
E000
E000
ENDCHAR
STARTCHAR ydieresis
ENCODING 255
SWIDTH 500 0
DWIDTH 17 0
BBX 14 30 1 -7
BITMAP
1C70
1C70
1C70
0000
0000
E01C
E01C
E03C
7038
7038
7078
7870
3870
38F0
3CE0
1CE0
1DC0
1DC0
0FC0
0F80
0F80
0700
0700
0700
0E00
0E00
1E00
7C00
7C00
7000
ENDCHAR
STARTCHAR Amacron
ENCODING 256
SWIDTH 667 0
DWIDTH 22 0
BBX 20 28 1 0
BITMAP
03FE00
03FE00
000000
00F000
00F000
00F800
01F800
01F800
039C00
039C00
039C00
079E00
070E00
070E00
0F0F00
0F0F00
0E0700
1E0780
1FFF80
1FFF80
3FFFC0
3C03C0
3801C0
7801E0
7801E0
7000E0
F000F0
F000F0
ENDCHAR
STARTCHAR amacron
ENCODING 257
SWIDTH 556 0
DWIDTH 18 0
BBX 16 21 1 0
BITMAP
1FF0
1FF0
0000
0FE0
3FF8
3C78
703C
701C
001C
003C
01FC
1FFC
7E1C
781C
F01C
E01C
E03C
E07C
79FE
7FDF
3F8F
ENDCHAR
STARTCHAR Abreve
ENCODING 258
SWIDTH 667 0
DWIDTH 22 0
BBX 20 30 1 0
BITMAP
020200
038600
01FC00
00F800
000000
00F000
00F000
00F800
01F800
01F800
039C00
039C00
039C00
079E00
070E00
070E00
0F0F00
0F0F00
0E0700
1E0780
1FFF80
1FFF80
3FFFC0
3C03C0
3801C0
7801E0
7801E0
7000E0
F000F0
F000F0
ENDCHAR
STARTCHAR abreve
ENCODING 259
SWIDTH 556 0
DWIDTH 18 0
BBX 16 23 1 0
BITMAP
1010
1C30
0FE0
07C0
0000
0FE0
3FF8
3C78
703C
701C
001C
003C
01FC
1FFC
7E1C
781C
F01C
E01C
E03C
E07C
79FE
7FDF
3F8F
ENDCHAR
STARTCHAR Aogonek
ENCODING 260
SWIDTH 667 0
DWIDTH 22 0
BBX 20 31 1 -6
BITMAP
00F000
00F000
00F800
01F800
01F800
039C00
039C00
039C00
079E00
070E00
070E00
0F0F00
0F0F00
0E0700
1E0780
1FFF80
1FFF80
3FFFC0
3C03C0
3801C0
7801E0
7801E0
7000E0
F000F0
F040F0
00C000
018000
018000
01CC00
00FC00
007800
ENDCHAR
STARTCHAR aogonek
ENCODING 261
SWIDTH 556 0
DWIDTH 18 0
BBX 16 24 1 -6
BITMAP
0FE0
3FF8
3C78
703C
701C
001C
003C
01FC
1FFC
7E1C
781C
F01C
E01C
E03C
E07C
79FE
7FDF
3F8F
0180
0300
0300
0398
01F8
00F0
ENDCHAR
STARTCHAR Cacute
ENCODING 262
SWIDTH 722 0
DWIDTH 24 0
BBX 20 31 2 0
BITMAP
001E00
003C00
003800
007000
00E000
000000
01FC00
07FF00
0FFF80
1F07C0
3C01E0
3800E0
7000F0
700070
E00000
E00000
E00000
E00000
E00000
E00000
E00000
E00000
E00070
F00070
7000F0
7800E0
3C01E0
3F07C0
1FFF80
07FE00
01F800
ENDCHAR
STARTCHAR cacute
ENCODING 263
SWIDTH 500 0
DWIDTH 16 0
BBX 14 24 1 0
BITMAP
00F0
01E0
01C0
0380
0700
0000
07C0
1FF0
3FF8
383C
701C
701C
E000
E000
E000
E000
E000
E01C
E01C
701C
7838
3FF8
1FF0
07C0
ENDCHAR
STARTCHAR Ccircumflex
ENCODING 264
SWIDTH 722 0
DWIDTH 24 0
BBX 20 31 2 0
BITMAP
002000
007000
00F800
01DC00
038E00
000000
01FC00
07FF00
0FFF80
1F07C0
3C01E0
3800E0
7000F0
700070
E00000
E00000
E00000
E00000
E00000
E00000
E00000
E00000
E00070
F00070
7000F0
7800E0
3C01E0
3F07C0
1FFF80
07FE00
01F800
ENDCHAR
STARTCHAR ccircumflex
ENCODING 265
SWIDTH 500 0
DWIDTH 16 0
BBX 14 24 1 0
BITMAP
0100
0380
07C0
0EE0
1C70
0000
07C0
1FF0
3FF8
383C
701C
701C
E000
E000
E000
E000
E000
E01C
E01C
701C
7838
3FF8
1FF0
07C0
ENDCHAR
STARTCHAR Cdotaccent
ENCODING 266
SWIDTH 722 0
DWIDTH 24 0
BBX 20 29 2 0
BITMAP
007000
007000
007000
000000
01FC00
07FF00
0FFF80
1F07C0
3C01E0
3800E0
7000F0
700070
E00000
E00000
E00000
E00000
E00000
E00000
E00000
E00000
E00070
F00070
7000F0
7800E0
3C01E0
3F07C0
1FFF80
07FE00
01F800
ENDCHAR
STARTCHAR cdotaccent
ENCODING 267
SWIDTH 500 0
DWIDTH 16 0
BBX 14 22 1 0
BITMAP
0380
0380
0380
0000
07C0
1FF0
3FF8
383C
701C
701C
E000
E000
E000
E000
E000
E01C
E01C
701C
7838
3FF8
1FF0
07C0
ENDCHAR
STARTCHAR Ccaron
ENCODING 268
SWIDTH 722 0
DWIDTH 24 0
BBX 20 31 2 0
BITMAP
038E00
01DC00
00F800
007000
002000
000000
01FC00
07FF00
0FFF80
1F07C0
3C01E0
3800E0
7000F0
700070
E00000
E00000
E00000
E00000
E00000
E00000
E00000
E00000
E00070
F00070
7000F0
7800E0
3C01E0
3F07C0
1FFF80
07FE00
01F800
ENDCHAR
STARTCHAR ccaron
ENCODING 269
SWIDTH 500 0
DWIDTH 16 0
BBX 14 24 1 0
BITMAP
1C70
0EE0
07C0
0380
0100
0000
07C0
1FF0
3FF8
383C
701C
701C
E000
E000
E000
E000
E000
E01C
E01C
701C
7838
3FF8
1FF0
07C0
ENDCHAR
STARTCHAR Dcaron
ENCODING 270
SWIDTH 722 0
DWIDTH 24 0
BBX 18 31 3 0
BITMAP
0E3800
077000
03E000
01C000
008000
000000
FFF000
FFFC00
FFFE00
E01F00
E00F00
E00780
E00380
E00380
E001C0
E001C0
E001C0
E001C0
E001C0
E001C0
E001C0
E001C0
E003C0
E00380
E00380
E00780
E00F00
E01E00
FFFE00
FFFC00
FFF000
ENDCHAR
STARTCHAR dcaron
ENCODING 271
SWIDTH 750 0
DWIDTH 24 0
BBX 21 25 1 0
BITMAP
000E38
000E38
000E38
000E38
000E08
000E18
000E30
07CE00
1FEE00
3FFE00
7C3E00
701E00
F01E00
E00E00
E00E00
E00E00
E00E00
E00E00
E00E00
F01E00
F01E00
783E00
7FFE00
3FEE00
0FCE00
ENDCHAR
STARTCHAR Dcroat
ENCODING 272
SWIDTH 722 0
DWIDTH 23 0
BBX 21 25 0 0
BITMAP
1FFE00
1FFF80
1FFFC0
1C03E0
1C00E0
1C00F0
1C0070
1C0070
1C0038
1C0038
1C0038
FFC038
FFC038
1C0038
1C0038
1C0038
1C0078
1C0070
1C0070
1C00F0
1C00E0
1C03C0
1FFFC0
1FFF80
1FFE00
ENDCHAR
STARTCHAR dcroat
ENCODING 273
SWIDTH 556 0
DWIDTH 18 0
BBX 15 25 1 0
BITMAP
000E
000E
000E
000E
000E
003E
003E
07CE
1FEE
3FFE
7C3E
701E
F01E
E00E
E00E
E00E
E00E
E00E
E00E
F01E
F01E
783E
7FFE
3FEE
0FCE
ENDCHAR
STARTCHAR Emacron
ENCODING 274
SWIDTH 667 0
DWIDTH 22 0
BBX 17 28 3 0
BITMAP
1FF000
1FF000
000000
FFFF00
FFFF00
FFFF00
E00000
E00000
E00000
E00000
E00000
E00000
E00000
E00000
FFFF00
FFFF00
FFFF00
E00000
E00000
E00000
E00000
E00000
E00000
E00000
E00000
FFFF80
FFFF80
FFFF80
ENDCHAR
STARTCHAR emacron
ENCODING 275
SWIDTH 556 0
DWIDTH 18 0
BBX 15 21 2 0
BITMAP
1FF0
1FF0
0000
07C0
1FF0
3FF8
783C
701C
F00E
E00E
E00E
FFFE
FFFE
E000
E000
F00E
701E
783C
3FF8
1FF0
07C0
ENDCHAR
STARTCHAR Ebreve
ENCODING 276
SWIDTH 667 0
DWIDTH 22 0
BBX 17 30 3 0
BITMAP
101000
1C3000
0FE000
07C000
000000
FFFF00
FFFF00
FFFF00
E00000
E00000
E00000
E00000
E00000
E00000
E00000
E00000
FFFF00
FFFF00
FFFF00
E00000
E00000
E00000
E00000
E00000
E00000
E00000
E00000
FFFF80
FFFF80
FFFF80
ENDCHAR
STARTCHAR ebreve
ENCODING 277
SWIDTH 556 0
DWIDTH 18 0
BBX 15 23 2 0
BITMAP
1010
1C30
0FE0
07C0
0000
07C0
1FF0
3FF8
783C
701C
F00E
E00E
E00E
FFFE
FFFE
E000
E000
F00E
701E
783C
3FF8
1FF0
07C0
ENDCHAR
STARTCHAR Edotaccent
ENCODING 278
SWIDTH 667 0
DWIDTH 22 0
BBX 17 29 3 0
BITMAP
038000
038000
038000
000000
FFFF00
FFFF00
FFFF00
E00000
E00000
E00000
E00000
E00000
E00000
E00000
E00000
FFFF00
FFFF00
FFFF00
E00000
E00000
E00000
E00000
E00000
E00000
E00000
E00000
FFFF80
FFFF80
FFFF80
ENDCHAR
STARTCHAR edotaccent
ENCODING 279
SWIDTH 556 0
DWIDTH 18 0
BBX 15 22 2 0
BITMAP
0380
0380
0380
0000
07C0
1FF0
3FF8
783C
701C
F00E
E00E
E00E
FFFE
FFFE
E000
E000
F00E
701E
783C
3FF8
1FF0
07C0
ENDCHAR
STARTCHAR Eogonek
ENCODING 280
SWIDTH 667 0
DWIDTH 22 0
BBX 17 31 3 -6
BITMAP
FFFF00
FFFF00
FFFF00
E00000
E00000
E00000
E00000
E00000
E00000
E00000
E00000
FFFF00
FFFF00
FFFF00
E00000
E00000
E00000
E00000
E00000
E00000
E00000
E00000
FFFF80
FFFF80
FFFF80
030000
060000
060000
073000
03F000
01E000
ENDCHAR
STARTCHAR eogonek
ENCODING 281
SWIDTH 556 0
DWIDTH 18 0
BBX 15 24 2 -6
BITMAP
07C0
1FF0
3FF8
783C
701C
F00E
E00E
E00E
FFFE
FFFE
E000
E000
F00E
701E
783C
3FF8
1FF0
07C0
0300
0600
0600
0730
03F0
01E0
ENDCHAR
STARTCHAR Ecaron
ENCODING 282
SWIDTH 667 0
DWIDTH 22 0
BBX 17 31 3 0
BITMAP
1C7000
0EE000
07C000
038000
010000
000000
FFFF00
FFFF00
FFFF00
E00000
E00000
E00000
E00000
E00000
E00000
E00000
E00000
FFFF00
FFFF00
FFFF00
E00000
E00000
E00000
E00000
E00000
E00000
E00000
E00000
FFFF80
FFFF80
FFFF80
ENDCHAR
STARTCHAR ecaron
ENCODING 283
SWIDTH 556 0
DWIDTH 18 0
BBX 15 24 2 0
BITMAP
1C70
0EE0
07C0
0380
0100
0000
07C0
1FF0
3FF8
783C
701C
F00E
E00E
E00E
FFFE
FFFE
E000
E000
F00E
701E
783C
3FF8
1FF0
07C0
ENDCHAR
STARTCHAR Gcircumflex
ENCODING 284
SWIDTH 778 0
DWIDTH 25 0
BBX 22 31 1 0
BITMAP
001000
003800
007C00
00EE00
01C700
000000
00FE00
03FF80
0FFFC0
1F83F0
3E00F0
3C0078
780038
700038
F00000
E00000
E00000
E00000
E00FFC
E00FFC
E00FFC
E0001C
F0001C
70001C
78003C
38003C
3C00FC
1F01FC
0FFFDC
07FF1C
01FC1C
ENDCHAR
STARTCHAR gcircumflex
ENCODING 285
SWIDTH 556 0
DWIDTH 18 0
BBX 15 31 1 -7
BITMAP
0080
01C0
03E0
0770
0E38
0000
07CE
1FEE
3FFE
7C3E
701E
F01E
E00E
E00E
E00E
E00E
E00E
E00E
F01E
703E
783E
3FFE
1FEE
078E
000E
E00E
E01C
F01C
7C78
3FF8
1FE0
ENDCHAR
STARTCHAR Gbreve
ENCODING 286
SWIDTH 778 0
DWIDTH 25 0
BBX 22 30 1 0
BITMAP
010100
01C300
00FE00
007C00
000000
00FE00
03FF80
0FFFC0
1F83F0
3E00F0
3C0078
780038
700038
F00000
E00000
E00000
E00000
E00FFC
E00FFC
E00FFC
E0001C
F0001C
70001C
78003C
38003C
3C00FC
1F01FC
0FFFDC
07FF1C
01FC1C
ENDCHAR
STARTCHAR gbreve
ENCODING 287
SWIDTH 556 0
DWIDTH 18 0
BBX 15 30 1 -7
BITMAP
0808
0E18
07F0
03E0
0000
07CE
1FEE
3FFE
7C3E
701E
F01E
E00E
E00E
E00E
E00E
E00E
E00E
F01E
703E
783E
3FFE
1FEE
078E
000E
E00E
E01C
F01C
7C78
3FF8
1FE0
ENDCHAR
STARTCHAR Gdotaccent
ENCODING 288
SWIDTH 778 0
DWIDTH 25 0
BBX 22 29 1 0
BITMAP
003800
003800
003800
000000
00FE00
03FF80
0FFFC0
1F83F0
3E00F0
3C0078
780038
700038
F00000
E00000
E00000
E00000
E00FFC
E00FFC
E00FFC
E0001C
F0001C
70001C
78003C
38003C
3C00FC
1F01FC
0FFFDC
07FF1C
01FC1C
ENDCHAR
STARTCHAR gdotaccent
ENCODING 289
SWIDTH 556 0
DWIDTH 18 0
BBX 15 29 1 -7
BITMAP
01C0
01C0
01C0
0000
07CE
1FEE
3FFE
7C3E
701E
F01E
E00E
E00E
E00E
E00E
E00E
E00E
F01E
703E
783E
3FFE
1FEE
078E
000E
E00E
E01C
F01C
7C78
3FF8
1FE0
ENDCHAR
STARTCHAR Gcommaaccent
ENCODING 290
SWIDTH 778 0
DWIDTH 25 0
BBX 22 35 1 -10
BITMAP
00FE00
03FF80
0FFFC0
1F83F0
3E00F0
3C0078
780038
700038
F00000
E00000
E00000
E00000
E00FFC
E00FFC
E00FFC
E0001C
F0001C
70001C
78003C
38003C
3C00FC
1F01FC
0FFFDC
07FF1C
01FC1C
000000
001C00
001C00
001C00
001C00
000400
000C00
000C00
001800
001000
ENDCHAR
STARTCHAR gcommaaccent
ENCODING 291
SWIDTH 556 0
DWIDTH 18 0
BBX 15 33 1 -7
BITMAP
00C0
0180
0100
01C0
01C0
01C0
01C0
0000
07CE
1FEE
3FFE
7C3E
701E
F01E
E00E
E00E
E00E
E00E
E00E
E00E
F01E
703E
783E
3FFE
1FEE
078E
000E
E00E
E01C
F01C
7C78
3FF8
1FE0
ENDCHAR
STARTCHAR Hcircumflex
ENCODING 292
SWIDTH 722 0
DWIDTH 24 0
BBX 18 31 3 0
BITMAP
004000
00E000
01F000
03B800
071C00
000000
E001C0
E001C0
E001C0
E001C0
E001C0
E001C0
E001C0
E001C0
E001C0
E001C0
E001C0
FFFFC0
FFFFC0
FFFFC0
E001C0
E001C0
E001C0
E001C0
E001C0
E001C0
E001C0
E001C0
E001C0
E001C0
E001C0
ENDCHAR
STARTCHAR hcircumflex
ENCODING 293
SWIDTH 556 0
DWIDTH 18 0
BBX 15 31 1 0
BITMAP
0800
1C00
3E00
7700
E380
0000
7000
7000
7000
7000
7000
7000
7000
71F0
77F8
7FFC
7C1E
780E
700E
700E
700E
700E
700E
700E
700E
700E
700E
700E
700E
700E
700E
ENDCHAR
STARTCHAR Hbar
ENCODING 294
SWIDTH 722 0
DWIDTH 24 0
BBX 18 25 3 0
BITMAP
E001C0
E001C0
E001C0
E001C0
E001C0
E001C0
FFFFC0
FFFFC0
E001C0
E001C0
E001C0
FFFFC0
FFFFC0
FFFFC0
E001C0
E001C0
E001C0
E001C0
E001C0
E001C0
E001C0
E001C0
E001C0
E001C0
E001C0
ENDCHAR
STARTCHAR hbar
ENCODING 295
SWIDTH 556 0
DWIDTH 18 0
BBX 14 25 2 0
BITMAP
E000
E000
E000
E000
E000
FC00
FC00
E3E0
EFF0
FFF8
F83C
F01C
E01C
E01C
E01C
E01C
E01C
E01C
E01C
E01C
E01C
E01C
E01C
E01C
E01C
ENDCHAR
STARTCHAR Itilde
ENCODING 296
SWIDTH 278 0
DWIDTH 9 0
BBX 10 30 0 0
BITMAP
38C0
7FC0
FF80
C700
0000
1C00
1C00
1C00
1C00
1C00
1C00
1C00
1C00
1C00
1C00
1C00
1C00
1C00
1C00
1C00
1C00
1C00
1C00
1C00
1C00
1C00
1C00
1C00
1C00
1C00
ENDCHAR
STARTCHAR itilde
ENCODING 297
SWIDTH 278 0
DWIDTH 9 0
BBX 10 23 0 0
BITMAP
38C0
7FC0
FF80
C700
0000
1C00
1C00
1C00
1C00
1C00
1C00
1C00
1C00
1C00
1C00
1C00
1C00
1C00
1C00
1C00
1C00
1C00
1C00
ENDCHAR
STARTCHAR Imacron
ENCODING 298
SWIDTH 278 0
DWIDTH 9 0
BBX 9 28 0 0
BITMAP
FF80
FF80
0000
1C00
1C00
1C00
1C00
1C00
1C00
1C00
1C00
1C00
1C00
1C00
1C00
1C00
1C00
1C00
1C00
1C00
1C00
1C00
1C00
1C00
1C00
1C00
1C00
1C00
ENDCHAR
STARTCHAR imacron
ENCODING 299
SWIDTH 278 0
DWIDTH 9 0
BBX 9 21 0 0
BITMAP
FF80
FF80
0000
1C00
1C00
1C00
1C00
1C00
1C00
1C00
1C00
1C00
1C00
1C00
1C00
1C00
1C00
1C00
1C00
1C00
1C00
ENDCHAR
STARTCHAR Ibreve
ENCODING 300
SWIDTH 278 0
DWIDTH 9 0
BBX 9 30 0 0
BITMAP
8080
E180
7F00
3E00
0000
1C00
1C00
1C00
1C00
1C00
1C00
1C00
1C00
1C00
1C00
1C00
1C00
1C00
1C00
1C00
1C00
1C00
1C00
1C00
1C00
1C00
1C00
1C00
1C00
1C00
ENDCHAR
STARTCHAR ibreve
ENCODING 301
SWIDTH 278 0
DWIDTH 9 0
BBX 9 23 0 0
BITMAP
8080
E180
7F00
3E00
0000
1C00
1C00
1C00
1C00
1C00
1C00
1C00
1C00
1C00
1C00
1C00
1C00
1C00
1C00
1C00
1C00
1C00
1C00
ENDCHAR
STARTCHAR Iogonek
ENCODING 302
SWIDTH 278 0
DWIDTH 9 0
BBX 7 31 2 -6
BITMAP
70
70
70
70
70
70
70
70
70
70
70
70
70
70
70
70
70
70
70
70
70
70
70
70
70
60
C0
C0
E6
7E
3C
ENDCHAR
STARTCHAR iogonek
ENCODING 303
SWIDTH 222 0
DWIDTH 7 0
BBX 7 31 1 -6
BITMAP
70
70
70
70
00
00
00
70
70
70
70
70
70
70
70
70
70
70
70
70
70
70
70
70
70
60
C0
C0
E6
7E
3C
ENDCHAR
STARTCHAR Idotaccent
ENCODING 304
SWIDTH 278 0
DWIDTH 9 0
BBX 3 29 3 0
BITMAP
E0
E0
E0
00
E0
E0
E0
E0
E0
E0
E0
E0
E0
E0
E0
E0
E0
E0
E0
E0
E0
E0
E0
E0
E0
E0
E0
E0
E0
ENDCHAR
STARTCHAR dotlessi
ENCODING 305
SWIDTH 278 0
DWIDTH 9 0
BBX 3 18 3 0
BITMAP
E0
E0
E0
E0
E0
E0
E0
E0
E0
E0
E0
E0
E0
E0
E0
E0
E0
E0
ENDCHAR
STARTCHAR IJ
ENCODING 306
SWIDTH 764 0
DWIDTH 25 0
BBX 20 25 3 0
BITMAP
E00070
E00070
E00070
E00070
E00070
E00070
E00070
E00070
E00070
E00070
E00070
E00070
E00070
E00070
E00070
E00070
E1C070
E1C070
E1C070
E1C070
E1E0F0
E0F1E0
E0FFE0
E07FC0
E03F00
ENDCHAR
STARTCHAR ij
ENCODING 307
SWIDTH 433 0
DWIDTH 14 0
BBX 10 32 2 -7
BITMAP
E1C0
E1C0
E1C0
E1C0
0000
0000
0000
E1C0
E1C0
E1C0
E1C0
E1C0
E1C0
E1C0
E1C0
E1C0
E1C0
E1C0
E1C0
E1C0
E1C0
E1C0
E1C0
E1C0
E1C0
01C0
01C0
01C0
01C0
03C0
0FC0
0F80
ENDCHAR
STARTCHAR Jcircumflex
ENCODING 308
SWIDTH 500 0
DWIDTH 16 0
BBX 14 31 1 0
BITMAP
0040
00E0
01F0
03B8
071C
0000
0038
0038
0038
0038
0038
0038
0038
0038
0038
0038
0038
0038
0038
0038
0038
0038
E038
E038
E038
E038
F078
78F0
7FF0
3FE0
1F80
ENDCHAR
STARTCHAR jcircumflex
ENCODING 309
SWIDTH 222 0
DWIDTH 7 0
BBX 9 31 -1 -7
BITMAP
0800
1C00
3E00
7700
E380
0000
1C00
1C00
1C00
1C00
1C00
1C00
1C00
1C00
1C00
1C00
1C00
1C00
1C00
1C00
1C00
1C00
1C00
1C00
1C00
1C00
1C00
1C00
3C00
FC00
F800
ENDCHAR
STARTCHAR Kcommaaccent
ENCODING 310
SWIDTH 667 0
DWIDTH 22 0
BBX 20 35 3 -10
BITMAP
E003C0
E00780
E00F00
E01E00
E03C00
E07800
E0F000
E1E000
E3C000
E7C000
EF8000
FFC000
FFC000
F9E000
F0F000
E07000
E07800
E03C00
E01C00
E01E00
E00F00
E00780
E003C0
E003E0
E001F0
000000
00E000
00E000
00E000
00E000
002000
006000
006000
00C000
008000
ENDCHAR
STARTCHAR kcommaaccent
ENCODING 311
SWIDTH 500 0
DWIDTH 16 0
BBX 15 35 1 -10
BITMAP
E000
E000
E000
E000
E000
E000
E000
E078
E0F0
E1E0
E3C0
E780
EF00
FF00
FF00
FB80
F3C0
E1C0
E1E0
E0E0
E0F0
E078
E038
E03C
E01E
0000
0700
0700
0700
0700
0100
0300
0300
0600
0400
ENDCHAR
STARTCHAR kgreenlandic
ENCODING 312
SWIDTH 500 0
DWIDTH 16 0
BBX 15 18 1 0
BITMAP
E078
E0F0
E1E0
E3C0
E780
EF00
FF00
FF00
FB80
F3C0
E1C0
E1E0
E0E0
E0F0
E078
E038
E03C
E01E
ENDCHAR
STARTCHAR Lacute
ENCODING 313
SWIDTH 556 0
DWIDTH 18 0
BBX 14 31 3 0
BITMAP
0F00
1E00
1C00
3800
7000
0000
E000
E000
E000
E000
E000
E000
E000
E000
E000
E000
E000
E000
E000
E000
E000
E000
E000
E000
E000
E000
E000
E000
FFFC
FFFC
FFFC
ENDCHAR
STARTCHAR lacute
ENCODING 314
SWIDTH 222 0
DWIDTH 7 0
BBX 7 31 1 0
BITMAP
1E
3C
38
70
E0
00
70
70
70
70
70
70
70
70
70
70
70
70
70
70
70
70
70
70
70
70
70
70
70
70
70
ENDCHAR
STARTCHAR Lcommaaccent
ENCODING 315
SWIDTH 556 0
DWIDTH 18 0
BBX 14 35 3 -10
BITMAP
E000
E000
E000
E000
E000
E000
E000
E000
E000
E000
E000
E000
E000
E000
E000
E000
E000
E000
E000
E000
E000
E000
FFFC
FFFC
FFFC
0000
0700
0700
0700
0700
0100
0300
0300
0600
0400
ENDCHAR
STARTCHAR lcommaaccent
ENCODING 316
SWIDTH 222 0
DWIDTH 7 0
BBX 3 35 2 -10
BITMAP
E0
E0
E0
E0
E0
E0
E0
E0
E0
E0
E0
E0
E0
E0
E0
E0
E0
E0
E0
E0
E0
E0
E0
E0
E0
00
E0
E0
E0
E0
20
60
60
C0
80
ENDCHAR
STARTCHAR Lcaron
ENCODING 317
SWIDTH 750 0
DWIDTH 24 0
BBX 19 25 3 0
BITMAP
E000E0
E000E0
E000E0
E000E0
E00020
E00060
E000C0
E00000
E00000
E00000
E00000
E00000
E00000
E00000
E00000
E00000
E00000
E00000
E00000
E00000
E00000
E00000
FFFC00
FFFC00
FFFC00
ENDCHAR
STARTCHAR lcaron
ENCODING 318
SWIDTH 433 0
DWIDTH 14 0
BBX 10 25 2 0
BITMAP
E1C0
E1C0
E1C0
E1C0
E040
E0C0
E180
E000
E000
E000
E000
E000
E000
E000
E000
E000
E000
E000
E000
E000
E000
E000
E000
E000
E000
ENDCHAR
STARTCHAR Ldot
ENCODING 319
SWIDTH 806 0
DWIDTH 26 0
BBX 21 25 3 0
BITMAP
E00000
E00000
E00000
E00000
E00000
E00000
E00000
E00000
E00000
E00000
E00030
E00078
E00078
E00030
E00000
E00000
E00000
E00000
E00000
E00000
E00000
E00000
FFFC00
FFFC00
FFFC00
ENDCHAR
STARTCHAR ldot
ENCODING 320
SWIDTH 489 0
DWIDTH 16 0
BBX 12 25 2 0
BITMAP
E000
E000
E000
E000
E000
E000
E000
E000
E000
E000
E060
E0F0
E0F0
E060
E000
E000
E000
E000
E000
E000
E000
E000
E000
E000
E000
ENDCHAR
STARTCHAR Lslash
ENCODING 321
SWIDTH 556 0
DWIDTH 18 0
BBX 18 25 0 0
BITMAP
1C0000
1C0000
1C0000
1C0000
1C0000
1C0000
1C0000
1C4000
1DC000
1F8000
1E0000
1C0000
7C0000
FC0000
9C0000
1C0000
1C0000
1C0000
1C0000
1C0000
1C0000
1C0000
1FFFC0
1FFFC0
1FFFC0
ENDCHAR
STARTCHAR lslash
ENCODING 322
SWIDTH 222 0
DWIDTH 7 0
BBX 7 25 0 0
BITMAP
38
38
38
38
38
38
38
38
38
3A
3E
3C
78
F8
38
38
38
38
38
38
38
38
38
38
38
ENDCHAR
STARTCHAR Nacute
ENCODING 323
SWIDTH 722 0
DWIDTH 24 0
BBX 19 31 2 0
BITMAP
007800
00F000
00E000
01C000
038000
000000
F000E0
F000E0
F800E0
FC00E0
FC00E0
FE00E0
EF00E0
E700E0
E780E0
E3C0E0
E3C0E0
E1E0E0
E0E0E0
E0F0E0
E078E0
E038E0
E03CE0
E01CE0
E01EE0
E00FE0
E007E0
E007E0
E003E0
E001E0
E001E0
ENDCHAR
STARTCHAR nacute
ENCODING 324
SWIDTH 556 0
DWIDTH 18 0
BBX 14 24 2 0
BITMAP
01E0
03C0
0380
0700
0E00
0000
E3E0
EFF8
FFF8
F83C
F01C
E01C
E01C
E01C
E01C
E01C
E01C
E01C
E01C
E01C
E01C
E01C
E01C
E01C
ENDCHAR
STARTCHAR Ncommaaccent
ENCODING 325
SWIDTH 722 0
DWIDTH 24 0
BBX 19 35 2 -10
BITMAP
F000E0
F000E0
F800E0
FC00E0
FC00E0
FE00E0
EF00E0
E700E0
E780E0
E3C0E0
E3C0E0
E1E0E0
E0E0E0
E0F0E0
E078E0
E038E0
E03CE0
E01CE0
E01EE0
E00FE0
E007E0
E007E0
E003E0
E001E0
E001E0
000000
007000
007000
007000
007000
001000
003000
003000
006000
004000
ENDCHAR
STARTCHAR ncommaaccent
ENCODING 326
SWIDTH 556 0
DWIDTH 18 0
BBX 14 28 2 -10
BITMAP
E3E0
EFF8
FFF8
F83C
F01C
E01C
E01C
E01C
E01C
E01C
E01C
E01C
E01C
E01C
E01C
E01C
E01C
E01C
0000
0380
0380
0380
0380
0080
0180
0180
0300
0200
ENDCHAR
STARTCHAR Ncaron
ENCODING 327
SWIDTH 722 0
DWIDTH 24 0
BBX 19 31 2 0
BITMAP
0E3800
077000
03E000
01C000
008000
000000
F000E0
F000E0
F800E0
FC00E0
FC00E0
FE00E0
EF00E0
E700E0
E780E0
E3C0E0
E3C0E0
E1E0E0
E0E0E0
E0F0E0
E078E0
E038E0
E03CE0
E01CE0
E01EE0
E00FE0
E007E0
E007E0
E003E0
E001E0
E001E0
ENDCHAR
STARTCHAR ncaron
ENCODING 328
SWIDTH 556 0
DWIDTH 18 0
BBX 14 24 2 0
BITMAP
38E0
1DC0
0F80
0700
0200
0000
E3E0
EFF8
FFF8
F83C
F01C
E01C
E01C
E01C
E01C
E01C
E01C
E01C
E01C
E01C
E01C
E01C
E01C
E01C
ENDCHAR
STARTCHAR napostrophe
ENCODING 329
SWIDTH 767 0
DWIDTH 25 0
BBX 21 25 2 0
BITMAP
E00000
E00000
E00000
E00000
200000
600000
C00000
01C7C0
01DFF0
01FFF0
01F078
01E038
01C038
01C038
01C038
01C038
01C038
01C038
01C038
01C038
01C038
01C038
01C038
01C038
01C038
ENDCHAR
STARTCHAR Eng
ENCODING 330
SWIDTH 722 0
DWIDTH 24 0
BBX 19 32 2 -7
BITMAP
F000E0
F000E0
F800E0
FC00E0
FC00E0
FE00E0
EF00E0
E700E0
E780E0
E3C0E0
E3C0E0
E1E0E0
E0E0E0
E0F0E0
E078E0
E038E0
E03CE0
E01CE0
E01EE0
E00FE0
E007E0
E007E0
E003E0
E001E0
E001E0
0000E0
0000E0
0000E0
0000E0
0001E0
0007E0
0007C0
ENDCHAR
STARTCHAR eng
ENCODING 331
SWIDTH 556 0
DWIDTH 18 0
BBX 14 25 2 -7
BITMAP
E3E0
EFF8
FFF8
F83C
F01C
E01C
E01C
E01C
E01C
E01C
E01C
E01C
E01C
E01C
E01C
E01C
E01C
E01C
001C
001C
001C
001C
003C
00FC
00F8
ENDCHAR
STARTCHAR Omacron
ENCODING 332
SWIDTH 778 0
DWIDTH 25 0
BBX 23 28 1 0
BITMAP
01FF00
01FF00
000000
00FE00
03FF80
0FEFE0
1F01F0
3E00F8
3C0078
78003C
70001C
F0001E
E0000E
E0000E
E0000E
E0000E
E0000E
E0000E
E0000E
F0001E
F0001E
78003C
3C0078
3E00F8
1F01F0
0FEFE0
03FF80
00FE00
ENDCHAR
STARTCHAR omacron
ENCODING 333
SWIDTH 556 0
DWIDTH 18 0
BBX 15 21 1 0
BITMAP
1FF0
1FF0
0000
07C0
1FF0
3FF8
783C
701C
F01E
E00E
E00E
E00E
E00E
E00E
E00E
F01E
701C
783C
3FF8
1FF0
07C0
ENDCHAR
STARTCHAR Obreve
ENCODING 334
SWIDTH 778 0
DWIDTH 25 0
BBX 23 30 1 0
BITMAP
010100
01C300
00FE00
007C00
000000
00FE00
03FF80
0FEFE0
1F01F0
3E00F8
3C0078
78003C
70001C
F0001E
E0000E
E0000E
E0000E
E0000E
E0000E
E0000E
E0000E
F0001E
F0001E
78003C
3C0078
3E00F8
1F01F0
0FEFE0
03FF80
00FE00
ENDCHAR
STARTCHAR obreve
ENCODING 335
SWIDTH 556 0
DWIDTH 18 0
BBX 15 23 1 0
BITMAP
1010
1C30
0FE0
07C0
0000
07C0
1FF0
3FF8
783C
701C
F01E
E00E
E00E
E00E
E00E
E00E
E00E
F01E
701C
783C
3FF8
1FF0
07C0
ENDCHAR
STARTCHAR Ohungarumlaut
ENCODING 336
SWIDTH 778 0
DWIDTH 25 0
BBX 23 31 1 0
BITMAP
007380
007380
00E700
00C600
018C00
000000
00FE00
03FF80
0FEFE0
1F01F0
3E00F8
3C0078
78003C
70001C
F0001E
E0000E
E0000E
E0000E
E0000E
E0000E
E0000E
E0000E
F0001E
F0001E
78003C
3C0078
3E00F8
1F01F0
0FEFE0
03FF80
00FE00
ENDCHAR
STARTCHAR ohungarumlaut
ENCODING 337
SWIDTH 556 0
DWIDTH 18 0
BBX 15 24 1 0
BITMAP
0738
0738
0E70
0C60
18C0
0000
07C0
1FF0
3FF8
783C
701C
F01E
E00E
E00E
E00E
E00E
E00E
E00E
F01E
701C
783C
3FF8
1FF0
07C0
ENDCHAR
STARTCHAR OE
ENCODING 338
SWIDTH 1000 0
DWIDTH 32 0
BBX 30 25 1 0
BITMAP
01F8FFFC
07FEFFFC
0FFFFFFC
1E07E000
3C03E000
3801E000
7001E000
7000E000
F000E000
E000E000
E000E000
E000FFF8
E000FFF8
E000FFF8
E000E000
E000E000
F000E000
F000E000
7000E000
7801E000
3C03E000
3E07E000
1FFEFFFC
07FCFFFC
01F8FFFC
ENDCHAR
STARTCHAR oe
ENCODING 339
SWIDTH 944 0
DWIDTH 30 0
BBX 28 18 1 0
BITMAP
07E07F00
1FF1FF80
3EFBFFC0
383FC1E0
701F80E0
700F00F0
E00F0070
E00E0070
E00FFFF0
E00FFFF0
E00E0000
E00E0000
E00E0070
701F00F0
781F80E0
3C7BE3C0
1FF1FFC0
0FE07F00
ENDCHAR
STARTCHAR Racute
ENCODING 340
SWIDTH 722 0
DWIDTH 24 0
BBX 19 31 3 0
BITMAP
007800
00F000
00E000
01C000
038000
000000
FFFC00
FFFF00
FFFF80
E00780
E003C0
E001C0
E001C0
E001C0
E001C0
E003C0
E00380
E00F80
FFFF00
FFFE00
FFFF00
E00F80
E00780
E00380
E003C0
E003C0
E003C0
E001C0
E001C0
E001C0
E001E0
ENDCHAR
STARTCHAR racute
ENCODING 341
SWIDTH 333 0
DWIDTH 11 0
BBX 8 24 2 0
BITMAP
0F
1E
1C
38
70
00
E7
EF
FF
FC
F0
F0
E0
E0
E0
E0
E0
E0
E0
E0
E0
E0
E0
E0
ENDCHAR
STARTCHAR Rcommaaccent
ENCODING 342
SWIDTH 722 0
DWIDTH 24 0
BBX 19 35 3 -10
BITMAP
FFFC00
FFFF00
FFFF80
E00780
E003C0
E001C0
E001C0
E001C0
E001C0
E003C0
E00380
E00F80
FFFF00
FFFE00
FFFF00
E00F80
E00780
E00380
E003C0
E003C0
E003C0
E001C0
E001C0
E001C0
E001E0
000000
00E000
00E000
00E000
00E000
002000
006000
006000
00C000
008000
ENDCHAR
STARTCHAR rcommaaccent
ENCODING 343
SWIDTH 333 0
DWIDTH 11 0
BBX 8 28 2 -10
BITMAP
E7
EF
FF
FC
F0
F0
E0
E0
E0
E0
E0
E0
E0
E0
E0
E0
E0
E0
00
70
70
70
70
10
30
30
60
40
ENDCHAR
STARTCHAR Rcaron
ENCODING 344
SWIDTH 722 0
DWIDTH 24 0
BBX 19 31 3 0
BITMAP
0E3800
077000
03E000
01C000
008000
000000
FFFC00
FFFF00
FFFF80
E00780
E003C0
E001C0
E001C0
E001C0
E001C0
E003C0
E00380
E00F80
FFFF00
FFFE00
FFFF00
E00F80
E00780
E00380
E003C0
E003C0
E003C0
E001C0
E001C0
E001C0
E001E0
ENDCHAR
STARTCHAR rcaron
ENCODING 345
SWIDTH 333 0
DWIDTH 11 0
BBX 9 24 1 0
BITMAP
E380
7700
3E00
1C00
0800
0000
7380
7780
7F80
7E00
7800
7800
7000
7000
7000
7000
7000
7000
7000
7000
7000
7000
7000
7000
ENDCHAR
STARTCHAR Sacute
ENCODING 346
SWIDTH 667 0
DWIDTH 22 0
BBX 19 31 1 0
BITMAP
003C00
007800
007000
00E000
01C000
000000
03F800
0FFE00
1FFF00
3C0F80
3803C0
7001C0
7001C0
700000
780000
7C0000
3FC000
1FF800
07FF00
007F80
000FC0
0001E0
0000E0
E000E0
F000E0
7001E0
7801C0
3E07C0
3FFF80
0FFE00
03F800
ENDCHAR
STARTCHAR sacute
ENCODING 347
SWIDTH 500 0
DWIDTH 16 0
BBX 13 24 2 0
BITMAP
01E0
03C0
0380
0700
0E00
0000
0F80
3FE0
7FE0
70F0
E070
E000
7000
7E00
3FC0
07F0
00F0
0078
E038
E038
F070
7FF0
7FE0
1F80
ENDCHAR
STARTCHAR Scircumflex
ENCODING 348
SWIDTH 667 0
DWIDTH 22 0
BBX 19 31 1 0
BITMAP
004000
00E000
01F000
03B800
071C00
000000
03F800
0FFE00
1FFF00
3C0F80
3803C0
7001C0
7001C0
700000
780000
7C0000
3FC000
1FF800
07FF00
007F80
000FC0
0001E0
0000E0
E000E0
F000E0
7001E0
7801C0
3E07C0
3FFF80
0FFE00
03F800
ENDCHAR
STARTCHAR scircumflex
ENCODING 349
SWIDTH 500 0
DWIDTH 16 0
BBX 13 24 2 0
BITMAP
0200
0700
0F80
1DC0
38E0
0000
0F80
3FE0
7FE0
70F0
E070
E000
7000
7E00
3FC0
07F0
00F0
0078
E038
E038
F070
7FF0
7FE0
1F80
ENDCHAR
STARTCHAR Scedilla
ENCODING 350
SWIDTH 667 0
DWIDTH 22 0
BBX 19 32 1 -7
BITMAP
03F800
0FFE00
1FFF00
3C0F80
3803C0
7001C0
7001C0
700000
780000
7C0000
3FC000
1FF800
07FF00
007F80
000FC0
0001E0
0000E0
E000E0
F000E0
7001E0
7801C0
3E07C0
3FFF80
0FFE00
03F800
006000
006000
00F000
003800
001800
033800
01F000
ENDCHAR
STARTCHAR scedilla
ENCODING 351
SWIDTH 500 0
DWIDTH 16 0
BBX 13 25 2 -7
BITMAP
0F80
3FE0
7FE0
70F0
E070
E000
7000
7E00
3FC0
07F0
00F0
0078
E038
E038
F070
7FF0
7FE0
1F80
0600
0600
0F00
0380
0180
3380
1F00
ENDCHAR
STARTCHAR Scaron
ENCODING 352
SWIDTH 667 0
DWIDTH 21 0
BBX 19 27 1 0
BITMAP
071C00
03B800
01F000
00E000
004000
000000
000000
01F800
0FFE00
1FFF00
3C0F80
3803C0
7001C0
7801C0
7F0000
3FFE00
0FFF80
00FFC0
0001E0
E000E0
E000E0
7001E0
7801C0
3E07C0
3FFF80
0FFE00
03F800
ENDCHAR
STARTCHAR scaron
ENCODING 353
SWIDTH 500 0
DWIDTH 17 0
BBX 14 25 1 0
BITMAP
38E0
1DC0
0F80
0700
0200
0000
0000
0F80
3FE0
7FF0
7078
E038
E000
E000
7C00
7FC0
1FF0
01F8
003C
C01C
E01C
E018
F878
7FF0
3FE0
ENDCHAR
STARTCHAR Tcommaaccent
ENCODING 354
SWIDTH 611 0
DWIDTH 20 0
BBX 19 32 0 -7
BITMAP
FFFFE0
FFFFE0
FFFFE0
00E000
00E000
00E000
00E000
00E000
00E000
00E000
00E000
00E000
00E000
00E000
00E000
00E000
00E000
00E000
00E000
00E000
00E000
00E000
00E000
00E000
00E000
006000
006000
00F000
003800
001800
033800
01F000
ENDCHAR
STARTCHAR tcommaaccent
ENCODING 355
SWIDTH 278 0
DWIDTH 9 0
BBX 8 29 1 -7
BITMAP
38
38
38
38
FF
FF
FF
38
38
38
38
38
38
38
38
38
38
38
38
3C
3F
1F
18
18
3C
0E
06
CE
7C
ENDCHAR
STARTCHAR Tcaron
ENCODING 356
SWIDTH 611 0
DWIDTH 20 0
BBX 19 31 0 0
BITMAP
071C00
03B800
01F000
00E000
004000
000000
FFFFE0
FFFFE0
FFFFE0
00E000
00E000
00E000
00E000
00E000
00E000
00E000
00E000
00E000
00E000
00E000
00E000
00E000
00E000
00E000
00E000
00E000
00E000
00E000
00E000
00E000
00E000
ENDCHAR
STARTCHAR tcaron
ENCODING 357
SWIDTH 486 0
DWIDTH 16 0
BBX 13 25 1 0
BITMAP
0038
0038
0038
3838
3808
3818
3830
FF00
FF00
FF00
3800
3800
3800
3800
3800
3800
3800
3800
3800
3800
3800
3800
3C00
3F00
1F00
ENDCHAR
STARTCHAR Tbar
ENCODING 358
SWIDTH 611 0
DWIDTH 20 0
BBX 19 25 0 0
BITMAP
FFFFE0
FFFFE0
FFFFE0
00E000
00E000
00E000
00E000
00E000
00E000
00E000
00E000
00E000
00E000
00E000
00E000
00E000
00E000
00E000
00E000
00E000
00E000
00E000
00E000
00E000
00E000
ENDCHAR
STARTCHAR tbar
ENCODING 359
SWIDTH 278 0
DWIDTH 9 0
BBX 8 22 1 0
BITMAP
38
38
38
38
FF
FF
FF
38
38
38
38
38
3C
3C
38
38
38
38
38
3C
3F
1F
ENDCHAR
STARTCHAR Utilde
ENCODING 360
SWIDTH 722 0
DWIDTH 24 0
BBX 18 30 3 0
BITMAP
038C00
07FC00
0FF800
0C7000
000000
E001C0
E001C0
E001C0
E001C0
E001C0
E001C0
E001C0
E001C0
E001C0
E001C0
E001C0
E001C0
E001C0
E001C0
E001C0
E001C0
E001C0
E001C0
E001C0
F003C0
780780
7C0F80
3FFF00
1FFE00
03F000
ENDCHAR
STARTCHAR utilde
ENCODING 361
SWIDTH 556 0
DWIDTH 18 0
BBX 14 23 2 0
BITMAP
0E30
1FF0
3FE0
31C0
0000
E01C
E01C
E01C
E01C
E01C
E01C
E01C
E01C
E01C
E01C
E01C
E01C
E01C
E03C
F07C
7FFC
7FDC
1F1C
ENDCHAR
STARTCHAR Umacron
ENCODING 362
SWIDTH 722 0
DWIDTH 24 0
BBX 18 28 3 0
BITMAP
07FC00
07FC00
000000
E001C0
E001C0
E001C0
E001C0
E001C0
E001C0
E001C0
E001C0
E001C0
E001C0
E001C0
E001C0
E001C0
E001C0
E001C0
E001C0
E001C0
E001C0
E001C0
F003C0
780780
7C0F80
3FFF00
1FFE00
03F000
ENDCHAR
STARTCHAR umacron
ENCODING 363
SWIDTH 556 0
DWIDTH 18 0
BBX 14 21 2 0
BITMAP
1FF0
1FF0
0000
E01C
E01C
E01C
E01C
E01C
E01C
E01C
E01C
E01C
E01C
E01C
E01C
E01C
E03C
F07C
7FFC
7FDC
1F1C
ENDCHAR
STARTCHAR Ubreve
ENCODING 364
SWIDTH 722 0
DWIDTH 24 0
BBX 18 30 3 0
BITMAP
040400
070C00
03F800
01F000
000000
E001C0
E001C0
E001C0
E001C0
E001C0
E001C0
E001C0
E001C0
E001C0
E001C0
E001C0
E001C0
E001C0
E001C0
E001C0
E001C0
E001C0
E001C0
E001C0
F003C0
780780
7C0F80
3FFF00
1FFE00
03F000
ENDCHAR
STARTCHAR ubreve
ENCODING 365
SWIDTH 556 0
DWIDTH 18 0
BBX 14 23 2 0
BITMAP
1010
1C30
0FE0
07C0
0000
E01C
E01C
E01C
E01C
E01C
E01C
E01C
E01C
E01C
E01C
E01C
E01C
E01C
E03C
F07C
7FFC
7FDC
1F1C
ENDCHAR
STARTCHAR Uring
ENCODING 366
SWIDTH 722 0
DWIDTH 24 0
BBX 18 32 3 0
BITMAP
00E000
01B000
011000
011000
01B000
00E000
000000
E001C0
E001C0
E001C0
E001C0
E001C0
E001C0
E001C0
E001C0
E001C0
E001C0
E001C0
E001C0
E001C0
E001C0
E001C0
E001C0
E001C0
E001C0
E001C0
F003C0
780780
7C0F80
3FFF00
1FFE00
03F000
ENDCHAR
STARTCHAR uring
ENCODING 367
SWIDTH 556 0
DWIDTH 18 0
BBX 14 25 2 0
BITMAP
0380
06C0
0440
0440
06C0
0380
0000
E01C
E01C
E01C
E01C
E01C
E01C
E01C
E01C
E01C
E01C
E01C
E01C
E01C
E03C
F07C
7FFC
7FDC
1F1C
ENDCHAR
STARTCHAR Uhungarumlaut
ENCODING 368
SWIDTH 722 0
DWIDTH 24 0
BBX 18 31 3 0
BITMAP
01CE00
01CE00
039C00
031800
063000
000000
E001C0
E001C0
E001C0
E001C0
E001C0
E001C0
E001C0
E001C0
E001C0
E001C0
E001C0
E001C0
E001C0
E001C0
E001C0
E001C0
E001C0
E001C0
E001C0
F003C0
780780
7C0F80
3FFF00
1FFE00
03F000
ENDCHAR
STARTCHAR uhungarumlaut
ENCODING 369
SWIDTH 556 0
DWIDTH 18 0
BBX 14 24 2 0
BITMAP
0738
0738
0E70
0C60
18C0
0000
E01C
E01C
E01C
E01C
E01C
E01C
E01C
E01C
E01C
E01C
E01C
E01C
E01C
E03C
F07C
7FFC
7FDC
1F1C
ENDCHAR
STARTCHAR Uogonek
ENCODING 370
SWIDTH 722 0
DWIDTH 24 0
BBX 18 31 3 -6
BITMAP
E001C0
E001C0
E001C0
E001C0
E001C0
E001C0
E001C0
E001C0
E001C0
E001C0
E001C0
E001C0
E001C0
E001C0
E001C0
E001C0
E001C0
E001C0
E001C0
F003C0
780780
7C0F80
3FFF00
1FFE00
03F000
018000
030000
030000
039800
01F800
00F000
ENDCHAR
STARTCHAR uogonek
ENCODING 371
SWIDTH 556 0
DWIDTH 18 0
BBX 14 24 2 -6
BITMAP
E01C
E01C
E01C
E01C
E01C
E01C
E01C
E01C
E01C
E01C
E01C
E01C
E01C
E03C
F07C
7FFC
7FDC
1F1C
0300
0600
0600
0730
03F0
01E0
ENDCHAR
STARTCHAR Wcircumflex
ENCODING 372
SWIDTH 944 0
DWIDTH 31 0
BBX 29 31 1 0
BITMAP
00020000
00070000
000F8000
001DC000
0038E000
00000000
F0070078
F0070078
F00F8078
700F8070
700F8070
781DC0F0
781DC0F0
381DC0E0
381DC0E0
3838E0E0
3C38E1E0
1C38E1C0
1C30E1C0
1C7071C0
1C7071C0
0E707380
0EE03B80
0EE03B80
0EE03B80
07E03F80
07C01F00
07C01F00
07C01F00
03800E00
03800E00
ENDCHAR
STARTCHAR wcircumflex
ENCODING 373
SWIDTH 722 0
DWIDTH 23 0
BBX 23 24 0 0
BITMAP
001000
003800
007C00
00EE00
01C700
000000
E0380E
E0380E
707C1C
707C1C
706C1C
38EE1C
38EE38
38EE38
38C638
18C630
1DC770
1DC770
1DC770
0D8360
0F83E0
0F83E0
0701C0
0701C0
ENDCHAR
STARTCHAR Ycircumflex
ENCODING 374
SWIDTH 667 0
DWIDTH 22 0
BBX 21 31 0 0
BITMAP
002000
007000
00F800
01DC00
038E00
000000
F00078
7800F0
7800E0
3C01E0
1C01C0
1E03C0
0E0780
0F0780
078F00
038E00
03DE00
01DC00
01FC00
00F800
00F800
007000
007000
007000
007000
007000
007000
007000
007000
007000
007000
ENDCHAR
STARTCHAR ycircumflex
ENCODING 375
SWIDTH 500 0
DWIDTH 16 0
BBX 14 31 1 -7
BITMAP
0200
0700
0F80
1DC0
38E0
0000
E01C
E01C
F038
7038
7038
7070
3870
3870
38E0
3CE0
1CE0
1DC0
1DC0
0FC0
0F80
0F80
0700
0700
0700
0E00
0E00
1C00
7C00
7800
7000
ENDCHAR
STARTCHAR Ydieresis
ENCODING 376
SWIDTH 667 0
DWIDTH 22 0
BBX 19 25 1 0
BITMAP
073800
073800
073800
000000
000000
E000E0
F001E0
7001C0
380380
1C0700
1C0700
0E0E00
07BC00
03F800
01F000
00E000
00E000
00E000
00E000
00E000
00E000
00E000
00E000
00E000
00E000
ENDCHAR
STARTCHAR Zacute
ENCODING 377
SWIDTH 611 0
DWIDTH 20 0
BBX 18 31 1 0
BITMAP
001E00
003C00
003800
007000
00E000
000000
7FFFC0
7FFFC0
7FFFC0
000780
000F80
000F00
001E00
003C00
003C00
007800
00F000
01E000
01E000
03C000
078000
078000
0F0000
1E0000
3C0000
3C0000
780000
F00000
FFFFC0
FFFFC0
FFFFC0
ENDCHAR
STARTCHAR zacute
ENCODING 378
SWIDTH 500 0
DWIDTH 16 0
BBX 14 24 1 0
BITMAP
00F0
01E0
01C0
0380
0700
0000
7FF8
7FF8
7FF8
0078
00F0
00E0
01C0
03C0
0780
0700
0E00
1C00
3C00
7800
7000
FFFC
FFFC
FFFC
ENDCHAR
STARTCHAR Zdotaccent
ENCODING 379
SWIDTH 611 0
DWIDTH 20 0
BBX 18 29 1 0
BITMAP
007000
007000
007000
000000
7FFFC0
7FFFC0
7FFFC0
000780
000F80
000F00
001E00
003C00
003C00
007800
00F000
01E000
01E000
03C000
078000
078000
0F0000
1E0000
3C0000
3C0000
780000
F00000
FFFFC0
FFFFC0
FFFFC0
ENDCHAR
STARTCHAR zdotaccent
ENCODING 380
SWIDTH 500 0
DWIDTH 16 0
BBX 14 22 1 0
BITMAP
0380
0380
0380
0000
7FF8
7FF8
7FF8
0078
00F0
00E0
01C0
03C0
0780
0700
0E00
1C00
3C00
7800
7000
FFFC
FFFC
FFFC
ENDCHAR
STARTCHAR Zcaron
ENCODING 381
SWIDTH 611 0
DWIDTH 20 0
BBX 18 27 1 0
BITMAP
071C00
03B800
01F000
00E000
004000
000000
000000
7FFFC0
7FFFC0
7FFFC0
000780
000F00
001E00
003C00
007800
00F000
01E000
03C000
078000
0F0000
1E0000
3C0000
780000
F00000
FFFFC0
FFFFC0
FFFFC0
ENDCHAR
STARTCHAR zcaron
ENCODING 382
SWIDTH 500 0
DWIDTH 17 0
BBX 14 25 1 0
BITMAP
38E0
1DC0
0F80
0700
0200
0000
0000
7FF8
7FF8
7FF8
0078
00F0
00E0
01C0
03C0
0780
0700
0E00
1C00
3C00
7800
7000
FFFC
FFFC
FFFC
ENDCHAR
STARTCHAR uni0186
ENCODING 390
SWIDTH 722 0
DWIDTH 24 0
BBX 20 25 2 0
BITMAP
01F800
07FE00
1FFF80
3E0FC0
7803C0
7001E0
F000E0
E000F0
E00070
000070
000070
000070
000070
000070
000070
000070
000070
E000E0
F000E0
7001C0
7803C0
3E0F80
1FFF00
0FFE00
03F800
ENDCHAR
STARTCHAR uni0189
ENCODING 393
SWIDTH 722 0
DWIDTH 23 0
BBX 21 25 0 0
BITMAP
1FFE00
1FFF80
1FFFC0
1C03E0
1C00E0
1C00F0
1C0070
1C0070
1C0038
1C0038
1C0038
FFC038
FFC038
1C0038
1C0038
1C0038
1C0078
1C0070
1C0070
1C00F0
1C00E0
1C03C0
1FFFC0
1FFF80
1FFE00
ENDCHAR
STARTCHAR uni018E
ENCODING 398
SWIDTH 667 0
DWIDTH 22 0
BBX 17 25 3 0
BITMAP
FFFF80
FFFF80
FFFF80
000380
000380
000380
000380
000380
000380
000380
000380
7FFF80
7FFF80
7FFF80
000380
000380
000380
000380
000380
000380
000380
000380
7FFF80
7FFF80
7FFF80
ENDCHAR
STARTCHAR florin
ENCODING 402
SWIDTH 556 0
DWIDTH 18 0
BBX 16 32 1 -7
BITMAP
000F
001F
003F
0070
0070
00E0
00E0
00E0
00E0
00E0
0FFC
0FFC
01C0
01C0
01C0
0380
0380
0380
0380
0380
0700
0700
0700
0700
0700
0700
0E00
0E00
1E00
FC00
F800
E000
ENDCHAR
STARTCHAR uni0197
ENCODING 407
SWIDTH 278 0
DWIDTH 9 0
BBX 3 25 3 0
BITMAP
E0
E0
E0
E0
E0
E0
E0
E0
E0
E0
E0
E0
E0
E0
E0
E0
E0
E0
E0
E0
E0
E0
E0
E0
E0
ENDCHAR
STARTCHAR uni019A
ENCODING 410
SWIDTH 222 0
DWIDTH 7 0
BBX 3 25 2 0
BITMAP
E0
E0
E0
E0
E0
E0
E0
E0
E0
E0
E0
E0
E0
E0
E0
E0
E0
E0
E0
E0
E0
E0
E0
E0
E0
ENDCHAR
STARTCHAR uni019D
ENCODING 413
SWIDTH 722 0
DWIDTH 24 0
BBX 22 32 -1 -7
BITMAP
1E001C
1E001C
1F001C
1F801C
1F801C
1FC01C
1DE01C
1CE01C
1CF01C
1C781C
1C781C
1C3C1C
1C1C1C
1C1E1C
1C0F1C
1C071C
1C079C
1C039C
1C03DC
1C01FC
1C00FC
1C00FC
1C007C
1C003C
1C003C
1C0000
1C0000
1C0000
1C0000
3C0000
FC0000
F80000
ENDCHAR
STARTCHAR uni019F
ENCODING 415
SWIDTH 778 0
DWIDTH 25 0
BBX 23 25 1 0
BITMAP
00FE00
03FF80
0FEFE0
1F01F0
3E00F8
3C0078
78003C
70001C
F0001E
E0000E
E0000E
FFFFFE
FFFFFE
E0000E
E0000E
E0000E
F0001E
F0001E
78003C
3C0078
3E00F8
1F01F0
0FEFE0
03FF80
00FE00
ENDCHAR
STARTCHAR Ohorn
ENCODING 416
SWIDTH 778 0
DWIDTH 25 0
BBX 24 25 1 0
BITMAP
00FE07
03FF87
0FEFE7
1F01F7
3E00F9
3C007B
78003E
70001C
F0001E
E0000E
E0000E
E0000E
E0000E
E0000E
E0000E
E0000E
F0001E
F0001E
78003C
3C0078
3E00F8
1F01F0
0FEFE0
03FF80
00FE00
ENDCHAR
STARTCHAR ohorn
ENCODING 417
SWIDTH 556 0
DWIDTH 18 0
BBX 17 18 1 0
BITMAP
07C380
1FF380
3FFB80
783F80
701C80
F01F80
E00F00
E00E00
E00E00
E00E00
E00E00
E00E00
F01E00
701C00
783C00
3FF800
1FF000
07C000
ENDCHAR
STARTCHAR uni01A7
ENCODING 423
SWIDTH 667 0
DWIDTH 22 0
BBX 19 25 1 0
BITMAP
03F800
0FFE00
1FFF00
3E0780
780380
7001C0
7001C0
0001C0
0003C0
0007C0
007F80
03FF00
1FFC00
3FC000
7E0000
F00000
E00000
E000E0
E001E0
F001C0
7003C0
7C0F80
3FFF80
0FFE00
03F800
ENDCHAR
STARTCHAR uni01A8
ENCODING 424
SWIDTH 500 0
DWIDTH 16 0
BBX 13 18 2 0
BITMAP
0F80
3FE0
3FF0
7870
7038
0038
0070
03F0
1FE0
7F00
7800
F000
E038
E038
7078
7FF0
3FF0
0FC0
ENDCHAR
STARTCHAR uni01AE
ENCODING 430
SWIDTH 611 0
DWIDTH 20 0
BBX 19 32 0 -7
BITMAP
FFFFE0
FFFFE0
FFFFE0
00E000
00E000
00E000
00E000
00E000
00E000
00E000
00E000
00E000
00E000
00E000
00E000
00E000
00E000
00E000
00E000
00E000
00E000
00E000
00E000
00E000
00E000
00E000
00E000
00E000
00E000
00F000
00FC00
007C00
ENDCHAR
STARTCHAR Uhorn
ENCODING 431
SWIDTH 722 0
DWIDTH 24 0
BBX 19 25 3 0
BITMAP
E001E0
E001E0
E001E0
E001E0
E001E0
E001E0
E001C0
E001C0
E001C0
E001C0
E001C0
E001C0
E001C0
E001C0
E001C0
E001C0
E001C0
E001C0
E001C0
F003C0
780780
7C0F80
3FFF00
1FFE00
03F000
ENDCHAR
STARTCHAR uhorn
ENCODING 432
SWIDTH 556 0
DWIDTH 18 0
BBX 16 18 2 0
BITMAP
E01F
E01F
E01F
E01F
E01D
E01F
E01E
E01C
E01C
E01C
E01C
E01C
E01C
E03C
F07C
7FFC
7FDC
1F1C
ENDCHAR
STARTCHAR uni01B5
ENCODING 437
SWIDTH 611 0
DWIDTH 20 0
BBX 18 25 1 0
BITMAP
7FFFC0
7FFFC0
7FFFC0
000780
000F80
000F00
001E00
003C00
003C00
007800
00F000
01E000
01E000
03C000
078000
078000
0F0000
1E0000
3C0000
3C0000
780000
F00000
FFFFC0
FFFFC0
FFFFC0
ENDCHAR
STARTCHAR uni01B6
ENCODING 438
SWIDTH 500 0
DWIDTH 16 0
BBX 14 18 1 0
BITMAP
7FF8
7FF8
7FF8
0078
00F0
00E0
01C0
03C0
0780
0780
0E00
1C00
3C00
7800
7000
FFFC
FFFC
FFFC
ENDCHAR
STARTCHAR uni01BB
ENCODING 443
SWIDTH 556 0
DWIDTH 18 0
BBX 15 24 1 0
BITMAP
07C0
1FF0
3FF8
783C
701C
F00E
E00E
E00E
000E
001C
003C
FFFE
FFFE
03E0
07C0
1F00
3C00
7800
7000
E000
E000
FFFE
FFFE
FFFE
ENDCHAR
STARTCHAR uni01BC
ENCODING 444
SWIDTH 556 0
DWIDTH 18 0
BBX 15 24 1 0
BITMAP
3FFC
3FFC
3FFC
3800
3800
3800
7000
7000
77C0
7FF0
7FF8
787C
701C
001E
000E
000E
000E
E00E
E01E
F01C
787C
7FF8
3FF0
0F80
ENDCHAR
STARTCHAR uni01C0
ENCODING 448
SWIDTH 260 0
DWIDTH 9 0
BBX 2 31 3 -7
BITMAP
C0
C0
C0
C0
C0
C0
C0
C0
C0
C0
C0
C0
C0
C0
C0
C0
C0
C0
C0
C0
C0
C0
C0
C0
C0
C0
C0
C0
C0
C0
C0
ENDCHAR
STARTCHAR uni01C2
ENCODING 450
SWIDTH 584 0
DWIDTH 19 0
BBX 15 31 2 -7
BITMAP
0180
0180
0180
0180
0180
0180
0180
0180
0180
0180
0180
FFFE
FFFE
FFFE
0180
0180
0180
FFFE
FFFE
FFFE
0180
0180
0180
0180
0180
0180
0180
0180
0180
0180
0180
ENDCHAR
STARTCHAR uni01C3
ENCODING 451
SWIDTH 278 0
DWIDTH 9 0
BBX 3 25 4 0
BITMAP
E0
E0
E0
E0
E0
E0
E0
E0
E0
E0
E0
E0
E0
E0
E0
E0
E0
40
40
00
00
E0
E0
E0
E0
ENDCHAR
STARTCHAR uni01CD
ENCODING 461
SWIDTH 667 0
DWIDTH 22 0
BBX 20 31 1 0
BITMAP
038E00
01DC00
00F800
007000
002000
000000
00F000
00F000
00F800
01F800
01F800
039C00
039C00
039C00
079E00
070E00
070E00
0F0F00
0F0F00
0E0700
1E0780
1FFF80
1FFF80
3FFFC0
3C03C0
3801C0
7801E0
7801E0
7000E0
F000F0
F000F0
ENDCHAR
STARTCHAR uni01CE
ENCODING 462
SWIDTH 556 0
DWIDTH 18 0
BBX 16 24 1 0
BITMAP
1C70
0EE0
07C0
0380
0100
0000
0FE0
3FF8
3C78
703C
701C
001C
003C
01FC
1FFC
7E1C
781C
F01C
E01C
E03C
E07C
79FE
7FDF
3F8F
ENDCHAR
STARTCHAR uni01CF
ENCODING 463
SWIDTH 278 0
DWIDTH 9 0
BBX 9 31 0 0
BITMAP
E380
7700
3E00
1C00
0800
0000
1C00
1C00
1C00
1C00
1C00
1C00
1C00
1C00
1C00
1C00
1C00
1C00
1C00
1C00
1C00
1C00
1C00
1C00
1C00
1C00
1C00
1C00
1C00
1C00
1C00
ENDCHAR
STARTCHAR uni01D0
ENCODING 464
SWIDTH 278 0
DWIDTH 9 0
BBX 9 24 0 0
BITMAP
E380
7700
3E00
1C00
0800
0000
1C00
1C00
1C00
1C00
1C00
1C00
1C00
1C00
1C00
1C00
1C00
1C00
1C00
1C00
1C00
1C00
1C00
1C00
ENDCHAR
STARTCHAR uni01D1
ENCODING 465
SWIDTH 778 0
DWIDTH 25 0
BBX 23 31 1 0
BITMAP
01C700
00EE00
007C00
003800
001000
000000
00FE00
03FF80
0FEFE0
1F01F0
3E00F8
3C0078
78003C
70001C
F0001E
E0000E
E0000E
E0000E
E0000E
E0000E
E0000E
E0000E
F0001E
F0001E
78003C
3C0078
3E00F8
1F01F0
0FEFE0
03FF80
00FE00
ENDCHAR
STARTCHAR uni01D2
ENCODING 466
SWIDTH 556 0
DWIDTH 18 0
BBX 15 24 1 0
BITMAP
1C70
0EE0
07C0
0380
0100
0000
07C0
1FF0
3FF8
783C
701C
F01E
E00E
E00E
E00E
E00E
E00E
E00E
F01E
701C
783C
3FF8
1FF0
07C0
ENDCHAR
STARTCHAR uni01D3
ENCODING 467
SWIDTH 722 0
DWIDTH 24 0
BBX 18 31 3 0
BITMAP
071C00
03B800
01F000
00E000
004000
000000
E001C0
E001C0
E001C0
E001C0
E001C0
E001C0
E001C0
E001C0
E001C0
E001C0
E001C0
E001C0
E001C0
E001C0
E001C0
E001C0
E001C0
E001C0
E001C0
F003C0
780780
7C0F80
3FFF00
1FFE00
03F000
ENDCHAR
STARTCHAR uni01D4
ENCODING 468
SWIDTH 556 0
DWIDTH 18 0
BBX 14 24 2 0
BITMAP
1C70
0EE0
07C0
0380
0100
0000
E01C
E01C
E01C
E01C
E01C
E01C
E01C
E01C
E01C
E01C
E01C
E01C
E01C
E03C
F07C
7FFC
7FDC
1F1C
ENDCHAR
STARTCHAR uni01D5
ENCODING 469
SWIDTH 722 0
DWIDTH 24 0
BBX 18 33 3 0
BITMAP
07FC00
07FC00
000000
0E1C00
0E1C00
0E1C00
000000
000000
E001C0
E001C0
E001C0
E001C0
E001C0
E001C0
E001C0
E001C0
E001C0
E001C0
E001C0
E001C0
E001C0
E001C0
E001C0
E001C0
E001C0
E001C0
E001C0
F003C0
780780
7C0F80
3FFF00
1FFE00
03F000
ENDCHAR
STARTCHAR uni01D6
ENCODING 470
SWIDTH 556 0
DWIDTH 19 0
BBX 14 26 2 0
BITMAP
1FF0
1FF0
0000
1CE0
1CE0
1CE0
0000
0000
E01C
E01C
E01C
E01C
E01C
E01C
E01C
E01C
E01C
E01C
E01C
E01C
E03C
E03C
F0FC
7FFC
3FDC
0F00
ENDCHAR
STARTCHAR uni01D7
ENCODING 471
SWIDTH 722 0
DWIDTH 24 0
BBX 18 36 3 0
BITMAP
003C00
007800
007000
00E000
01C000
000000
0E1C00
0E1C00
0E1C00
000000
000000
E001C0
E001C0
E001C0
E001C0
E001C0
E001C0
E001C0
E001C0
E001C0
E001C0
E001C0
E001C0
E001C0
E001C0
E001C0
E001C0
E001C0
E001C0
E001C0
F003C0
780780
7C0F80
3FFF00
1FFE00
03F000
ENDCHAR
STARTCHAR uni01D8
ENCODING 472
SWIDTH 556 0
DWIDTH 19 0
BBX 14 29 2 0
BITMAP
00F0
01E0
01C0
0380
0700
0000
1CE0
1CE0
1CE0
0000
0000
E01C
E01C
E01C
E01C
E01C
E01C
E01C
E01C
E01C
E01C
E01C
E01C
E03C
E03C
F0FC
7FFC
3FDC
0F00
ENDCHAR
STARTCHAR uni01D9
ENCODING 473
SWIDTH 722 0
DWIDTH 24 0
BBX 18 36 3 0
BITMAP
071C00
03B800
01F000
00E000
004000
000000
0E1C00
0E1C00
0E1C00
000000
000000
E001C0
E001C0
E001C0
E001C0
E001C0
E001C0
E001C0
E001C0
E001C0
E001C0
E001C0
E001C0
E001C0
E001C0
E001C0
E001C0
E001C0
E001C0
E001C0
F003C0
780780
7C0F80
3FFF00
1FFE00
03F000
ENDCHAR
STARTCHAR uni01DA
ENCODING 474
SWIDTH 556 0
DWIDTH 19 0
BBX 14 29 2 0
BITMAP
1C70
0EE0
07C0
0380
0100
0000
1CE0
1CE0
1CE0
0000
0000
E01C
E01C
E01C
E01C
E01C
E01C
E01C
E01C
E01C
E01C
E01C
E01C
E03C
E03C
F0FC
7FFC
3FDC
0F00
ENDCHAR
STARTCHAR uni01DB
ENCODING 475
SWIDTH 722 0
DWIDTH 24 0
BBX 18 36 3 0
BITMAP
070000
078000
038000
01C000
00E000
000000
0E1C00
0E1C00
0E1C00
000000
000000
E001C0
E001C0
E001C0
E001C0
E001C0
E001C0
E001C0
E001C0
E001C0
E001C0
E001C0
E001C0
E001C0
E001C0
E001C0
E001C0
E001C0
E001C0
E001C0
F003C0
780780
7C0F80
3FFF00
1FFE00
03F000
ENDCHAR
STARTCHAR uni01DC
ENCODING 476
SWIDTH 556 0
DWIDTH 19 0
BBX 14 29 2 0
BITMAP
1C00
1E00
0E00
0700
0380
0000
1CE0
1CE0
1CE0
0000
0000
E01C
E01C
E01C
E01C
E01C
E01C
E01C
E01C
E01C
E01C
E01C
E01C
E03C
E03C
F0FC
7FFC
3FDC
0F00
ENDCHAR
STARTCHAR uni01DD
ENCODING 477
SWIDTH 556 0
DWIDTH 18 0
BBX 15 18 2 0
BITMAP
07C0
1FF0
3FF8
783C
F01C
E01E
000E
000E
FFFE
FFFE
E00E
E00E
E01E
701C
783C
3FF8
1FF0
07C0
ENDCHAR
STARTCHAR uni01DE
ENCODING 478
SWIDTH 667 0
DWIDTH 22 0
BBX 20 33 1 0
BITMAP
03FE00
03FE00
000000
039C00
039C00
039C00
000000
000000
00F000
00F000
00F000
01F800
01F800
03FC00
039C00
039C00
079E00
070E00
070E00
0F0F00
0F0F00
0E0700
1E0780
1FFF80
1FFF80
3FFFC0
3C03C0
3801C0
7801E0
7801E0
7000E0
F000F0
F000F0
ENDCHAR
STARTCHAR uni01DF
ENCODING 479
SWIDTH 556 0
DWIDTH 18 0
BBX 16 26 1 0
BITMAP
1FF0
1FF0
0000
0E70
0E70
0E70
0000
0000
0FE0
3FF8
3CFC
701C
701C
001C
001C
00FC
1FFC
7F9C
781C
F01C
E01C
E03C
E07C
79FC
7FDF
3F8F
ENDCHAR
STARTCHAR uni01E0
ENCODING 480
SWIDTH 667 0
DWIDTH 22 0
BBX 20 32 1 0
BITMAP
03FE00
03FE00
000000
007000
007000
007000
000000
00F000
00F000
00F800
01F800
01F800
039C00
039C00
039C00
079E00
070E00
070E00
0F0F00
0F0F00
0E0700
1E0780
1FFF80
1FFF80
3FFFC0
3C03C0
3801C0
7801E0
7801E0
7000E0
F000F0
F000F0
ENDCHAR
STARTCHAR uni01E1
ENCODING 481
SWIDTH 556 0
DWIDTH 18 0
BBX 16 25 1 0
BITMAP
1FF0
1FF0
0000
0380
0380
0380
0000
0FE0
3FF8
3C78
703C
701C
001C
003C
01FC
1FFC
7E1C
781C
F01C
E01C
E03C
E07C
79FE
7FDF
3F8F
ENDCHAR
STARTCHAR uni01E2
ENCODING 482
SWIDTH 1000 0
DWIDTH 32 0
BBX 29 28 1 0
BITMAP
000FF800
000FF800
00000000
007FFFF8
007FFFF8
00FFFFF8
00E38000
01C38000
01C38000
03C38000
03838000
03838000
07838000
07038000
0703FFF0
0F03FFF0
0E03FFF0
1E038000
1FFF8000
1FFF8000
3FFF8000
38038000
78038000
78038000
70038000
F003FFF8
E003FFF8
E003FFF8
ENDCHAR
STARTCHAR uni01E3
ENCODING 483
SWIDTH 889 0
DWIDTH 29 0
BBX 26 21 1 0
BITMAP
00FF8000
00FF8000
00000000
07C0F800
1FF1FE00
3C7F8F00
703E0380
701E0380
001C01C0
001C01C0
00FC01C0
0FFFFFC0
3FFFFFC0
7E1FFFC0
F01C0000
E01C01C0
E01E01C0
E07E0380
F8F78F00
7FE7FF00
3F81FC00
ENDCHAR
STARTCHAR uni01E4
ENCODING 484
SWIDTH 778 0
DWIDTH 25 0
BBX 22 25 1 0
BITMAP
00FE00
03FF80
0FFFC0
1F83F0
3E00F0
3C0078
780038
700038
F00000
E00000
E00000
E00000
E00FFC
E00FFC
E00FFC
E0001C
F0001C
70001C
78003C
38003C
3C00FC
1F01FC
0FFFDC
07FF1C
01FC1C
ENDCHAR
STARTCHAR uni01E5
ENCODING 485
SWIDTH 556 0
DWIDTH 18 0
BBX 15 25 1 -7
BITMAP
07CE
1FEE
3FFE
7C3E
701E
F01E
E00E
E00E
E00E
E00E
E00E
E00E
F01E
703E
783E
3FFE
1FEE
078E
FFFE
FFFE
E01C
F01C
7C78
3FF8
1FE0
ENDCHAR
STARTCHAR Gcaron
ENCODING 486
SWIDTH 778 0
DWIDTH 25 0
BBX 22 31 1 0
BITMAP
01C700
00EE00
007C00
003800
001000
000000
00FE00
03FF80
0FFFC0
1F83F0
3E00F0
3C0078
780038
700038
F00000
E00000
E00000
E00000
E00FFC
E00FFC
E00FFC
E0001C
F0001C
70001C
78003C
38003C
3C00FC
1F01FC
0FFFDC
07FF1C
01FC1C
ENDCHAR
STARTCHAR gcaron
ENCODING 487
SWIDTH 556 0
DWIDTH 18 0
BBX 15 31 1 -7
BITMAP
0E38
0770
03E0
01C0
0080
0000
07CE
1FEE
3FFE
7C3E
701E
F01E
E00E
E00E
E00E
E00E
E00E
E00E
F01E
703E
783E
3FFE
1FEE
078E
000E
E00E
E01C
F01C
7C78
3FF8
1FE0
ENDCHAR
STARTCHAR uni01E8
ENCODING 488
SWIDTH 667 0
DWIDTH 22 0
BBX 20 31 3 0
BITMAP
0E3800
077000
03E000
01C000
008000
000000
E003C0
E00780
E00F00
E01E00
E03C00
E07800
E0F000
E1E000
E3C000
E7C000
EF8000
FFC000
FFC000
F9E000
F0F000
E07000
E07800
E03C00
E01C00
E01E00
E00F00
E00780
E003C0
E003E0
E001F0
ENDCHAR
STARTCHAR uni01E9
ENCODING 489
SWIDTH 500 0
DWIDTH 16 0
BBX 16 31 0 0
BITMAP
E380
7700
3E00
1C00
0800
0000
7000
7000
7000
7000
7000
7000
7000
703C
7078
70F0
71E0
73C0
7780
7F80
7F80
7DC0
79E0
70E0
70F0
7070
7078
703C
701C
701E
700F
ENDCHAR
STARTCHAR uni01EA
ENCODING 490
SWIDTH 778 0
DWIDTH 25 0
BBX 23 31 1 -6
BITMAP
00FE00
03FF80
0FEFE0
1F01F0
3E00F8
3C0078
78003C
70001C
F0001E
E0000E
E0000E
E0000E
E0000E
E0000E
E0000E
E0000E
F0001E
F0001E
78003C
3C0078
3E00F8
1F01F0
0FEFE0
03FF80
00FE00
003000
006000
006000
007300
003F00
001E00
ENDCHAR
STARTCHAR uni01EB
ENCODING 491
SWIDTH 556 0
DWIDTH 18 0
BBX 15 24 1 -6
BITMAP
07C0
1FF0
3FF8
783C
701C
F01E
E00E
E00E
E00E
E00E
E00E
E00E
F01E
701C
783C
3FF8
1FF0
07C0
0300
0600
0600
0730
03F0
01E0
ENDCHAR
STARTCHAR uni01EC
ENCODING 492
SWIDTH 778 0
DWIDTH 25 0
BBX 23 34 1 -6
BITMAP
01FF00
01FF00
000000
00FE00
03FF80
0FEFE0
1F01F0
3E00F8
3C0078
78003C
70001C
F0001E
E0000E
E0000E
E0000E
E0000E
E0000E
E0000E
E0000E
F0001E
F0001E
78003C
3C0078
3E00F8
1F01F0
0FEFE0
03FF80
00FE00
003000
006000
006000
007300
003F00
001E00
ENDCHAR
STARTCHAR uni01ED
ENCODING 493
SWIDTH 556 0
DWIDTH 18 0
BBX 15 27 1 -6
BITMAP
1FF0
1FF0
0000
07C0
1FF0
3FF8
783C
701C
F01E
E00E
E00E
E00E
E00E
E00E
E00E
F01E
701C
783C
3FF8
1FF0
07C0
0300
0600
0600
0730
03F0
01E0
ENDCHAR
STARTCHAR uni01F0
ENCODING 496
SWIDTH 222 0
DWIDTH 7 0
BBX 9 31 -1 -7
BITMAP
E380
7700
3E00
1C00
0800
0000
1C00
1C00
1C00
1C00
1C00
1C00
1C00
1C00
1C00
1C00
1C00
1C00
1C00
1C00
1C00
1C00
1C00
1C00
1C00
1C00
1C00
1C00
3C00
FC00
F800
ENDCHAR
STARTCHAR uni01F4
ENCODING 500
SWIDTH 778 0
DWIDTH 25 0
BBX 22 31 1 0
BITMAP
000F00
001E00
001C00
003800
007000
000000
00FE00
03FF80
0FFFC0
1F83F0
3E00F0
3C0078
780038
700038
F00000
E00000
E00000
E00000
E00FFC
E00FFC
E00FFC
E0001C
F0001C
70001C
78003C
38003C
3C00FC
1F01FC
0FFFDC
07FF1C
01FC1C
ENDCHAR
STARTCHAR uni01F5
ENCODING 501
SWIDTH 556 0
DWIDTH 18 0
BBX 15 31 1 -7
BITMAP
0078
00F0
00E0
01C0
0380
0000
07CE
1FEE
3FFE
7C3E
701E
F01E
E00E
E00E
E00E
E00E
E00E
E00E
F01E
703E
783E
3FFE
1FEE
078E
000E
E00E
E01C
F01C
7C78
3FF8
1FE0
ENDCHAR
STARTCHAR uni01F8
ENCODING 504
SWIDTH 722 0
DWIDTH 24 0
BBX 19 31 2 0
BITMAP
070000
078000
038000
01C000
00E000
000000
F000E0
F000E0
F800E0
FC00E0
FC00E0
FE00E0
EF00E0
E700E0
E780E0
E3C0E0
E3C0E0
E1E0E0
E0E0E0
E0F0E0
E078E0
E038E0
E03CE0
E01CE0
E01EE0
E00FE0
E007E0
E007E0
E003E0
E001E0
E001E0
ENDCHAR
STARTCHAR uni01F9
ENCODING 505
SWIDTH 556 0
DWIDTH 18 0
BBX 14 24 2 0
BITMAP
1C00
1E00
0E00
0700
0380
0000
E3E0
EFF8
FFF8
F83C
F01C
E01C
E01C
E01C
E01C
E01C
E01C
E01C
E01C
E01C
E01C
E01C
E01C
E01C
ENDCHAR
STARTCHAR Aringacute
ENCODING 506
SWIDTH 667 0
DWIDTH 22 0
BBX 20 37 1 0
BITMAP
001E00
003C00
003800
007000
00E000
000000
00F000
019800
010800
010800
019800
00F000
000000
00F000
00F000
01F800
01F800
03FC00
039C00
039C00
079E00
070E00
070E00
0F0F00
0E0F00
0E0700
1E0780
1FFF80
1FFF80
3FFFC0
3C03C0
3801C0
7801E0
7801E0
7000E0
F000F0
F000F0
ENDCHAR
STARTCHAR aringacute
ENCODING 507
SWIDTH 556 0
DWIDTH 18 0
BBX 16 31 1 0
BITMAP
00F0
01E0
01C0
0380
0700
0000
0380
06C0
0440
0440
06C0
0380
0000
0FE0
3FF8
3C7C
701C
701C
001C
001C
00FC
1FFC
7F9C
781C
F01C
E01C
E03C
E07C
78FC
7FDF
3F8F
ENDCHAR
STARTCHAR AEacute
ENCODING 508
SWIDTH 1000 0
DWIDTH 32 0
BBX 29 31 1 0
BITMAP
00007800
0000F000
0000E000
0001C000
00038000
00000000
007FFFF8
007FFFF8
00FFFFF8
00E38000
01C38000
01C38000
03C38000
03838000
03838000
07838000
07038000
0703FFF0
0F03FFF0
0E03FFF0
1E038000
1FFF8000
1FFF8000
3FFF8000
38038000
78038000
78038000
70038000
F003FFF8
E003FFF8
E003FFF8
ENDCHAR
STARTCHAR aeacute
ENCODING 509
SWIDTH 889 0
DWIDTH 29 0
BBX 26 24 1 0
BITMAP
00078000
000F0000
000E0000
001C0000
00380000
00000000
07C0F800
1FF1FE00
3C7F8F00
703E0380
701E0380
001C01C0
001C01C0
00FC01C0
0FFFFFC0
3FFFFFC0
7E1FFFC0
F01C0000
E01C01C0
E01E01C0
E07E0380
F8F78F00
7FE7FF00
3F81FC00
ENDCHAR
STARTCHAR Oslashacute
ENCODING 510
SWIDTH 778 0
DWIDTH 25 0
BBX 23 31 1 0
BITMAP
000780
000F00
000E00
001C00
003800
000000
00FE06
03FF8C
0FFFF8
1F01F0
3E00F8
3C00F8
7801BC
70031C
70061C
F0061E
E00C0E
E0180E
E0300E
E0600E
E0C00E
E1801E
F3001E
76001C
7C003C
3C0078
3E00F8
3F01F0
6FFFE0
C3FF80
00FE00
ENDCHAR
STARTCHAR oslashacute
ENCODING 511
SWIDTH 611 0
DWIDTH 19 0
BBX 16 24 2 0
BITMAP
0078
00F0
00E0
01C0
0380
0000
07C3
1FF6
3FFC
7878
701C
703C
E06E
E0CE
E18E
E30E
E60E
EC0E
781C
701C
383C
7FF8
DFF0
87C0
ENDCHAR
STARTCHAR uni0200
ENCODING 512
SWIDTH 667 0
DWIDTH 22 0
BBX 20 31 1 0
BITMAP
0E7000
0E7000
073800
031800
018C00
000000
00F000
00F000
00F800
01F800
01F800
039C00
039C00
039C00
079E00
070E00
070E00
0F0F00
0F0F00
0E0700
1E0780
1FFF80
1FFF80
3FFFC0
3C03C0
3801C0
7801E0
7801E0
7000E0
F000F0
F000F0
ENDCHAR
STARTCHAR uni0201
ENCODING 513
SWIDTH 556 0
DWIDTH 18 0
BBX 16 24 1 0
BITMAP
39C0
39C0
1CE0
0C60
0630
0000
0FE0
3FF8
3C78
703C
701C
001C
003C
01FC
1FFC
7E1C
781C
F01C
E01C
E03C
E07C
79FE
7FDF
3F8F
ENDCHAR
STARTCHAR uni0202
ENCODING 514
SWIDTH 667 0
DWIDTH 22 0
BBX 20 30 1 0
BITMAP
00F800
01FC00
038600
020200
000000
00F000
00F000
00F800
01F800
01F800
039C00
039C00
039C00
079E00
070E00
070E00
0F0F00
0F0F00
0E0700
1E0780
1FFF80
1FFF80
3FFFC0
3C03C0
3801C0
7801E0
7801E0
7000E0
F000F0
F000F0
ENDCHAR
STARTCHAR uni0203
ENCODING 515
SWIDTH 556 0
DWIDTH 18 0
BBX 16 23 1 0
BITMAP
07C0
0FE0
1C30
1010
0000
0FE0
3FF8
3C78
703C
701C
001C
003C
01FC
1FFC
7E1C
781C
F01C
E01C
E03C
E07C
79FE
7FDF
3F8F
ENDCHAR
STARTCHAR uni0204
ENCODING 516
SWIDTH 667 0
DWIDTH 22 0
BBX 17 31 3 0
BITMAP
39C000
39C000
1CE000
0C6000
063000
000000
FFFF00
FFFF00
FFFF00
E00000
E00000
E00000
E00000
E00000
E00000
E00000
E00000
FFFF00
FFFF00
FFFF00
E00000
E00000
E00000
E00000
E00000
E00000
E00000
E00000
FFFF80
FFFF80
FFFF80
ENDCHAR
STARTCHAR uni0205
ENCODING 517
SWIDTH 556 0
DWIDTH 18 0
BBX 15 24 2 0
BITMAP
39C0
39C0
1CE0
0C60
0630
0000
07C0
1FF0
3FF8
783C
701C
F00E
E00E
E00E
FFFE
FFFE
E000
E000
F00E
701E
783C
3FF8
1FF0
07C0
ENDCHAR
STARTCHAR uni0206
ENCODING 518
SWIDTH 667 0
DWIDTH 22 0
BBX 17 30 3 0
BITMAP
07C000
0FE000
1C3000
101000
000000
FFFF00
FFFF00
FFFF00
E00000
E00000
E00000
E00000
E00000
E00000
E00000
E00000
FFFF00
FFFF00
FFFF00
E00000
E00000
E00000
E00000
E00000
E00000
E00000
E00000
FFFF80
FFFF80
FFFF80
ENDCHAR
STARTCHAR uni0207
ENCODING 519
SWIDTH 556 0
DWIDTH 18 0
BBX 15 23 2 0
BITMAP
07C0
0FE0
1C30
1010
0000
07C0
1FF0
3FF8
783C
701C
F00E
E00E
E00E
FFFE
FFFE
E000
E000
F00E
701E
783C
3FF8
1FF0
07C0
ENDCHAR
STARTCHAR uni0208
ENCODING 520
SWIDTH 278 0
DWIDTH 9 0
BBX 10 31 -1 0
BITMAP
E700
E700
7380
3180
18C0
0000
0E00
0E00
0E00
0E00
0E00
0E00
0E00
0E00
0E00
0E00
0E00
0E00
0E00
0E00
0E00
0E00
0E00
0E00
0E00
0E00
0E00
0E00
0E00
0E00
0E00
ENDCHAR
STARTCHAR uni0209
ENCODING 521
SWIDTH 278 0
DWIDTH 9 0
BBX 10 24 -1 0
BITMAP
E700
E700
7380
3180
18C0
0000
0E00
0E00
0E00
0E00
0E00
0E00
0E00
0E00
0E00
0E00
0E00
0E00
0E00
0E00
0E00
0E00
0E00
0E00
ENDCHAR
STARTCHAR uni020A
ENCODING 522
SWIDTH 278 0
DWIDTH 9 0
BBX 9 30 0 0
BITMAP
3E00
7F00
E180
8080
0000
1C00
1C00
1C00
1C00
1C00
1C00
1C00
1C00
1C00
1C00
1C00
1C00
1C00
1C00
1C00
1C00
1C00
1C00
1C00
1C00
1C00
1C00
1C00
1C00
1C00
ENDCHAR
STARTCHAR uni020B
ENCODING 523
SWIDTH 278 0
DWIDTH 9 0
BBX 9 23 0 0
BITMAP
3E00
7F00
E180
8080
0000
1C00
1C00
1C00
1C00
1C00
1C00
1C00
1C00
1C00
1C00
1C00
1C00
1C00
1C00
1C00
1C00
1C00
1C00
ENDCHAR
STARTCHAR uni020C
ENCODING 524
SWIDTH 778 0
DWIDTH 25 0
BBX 23 31 1 0
BITMAP
039C00
039C00
01CE00
00C600
006300
000000
00FE00
03FF80
0FEFE0
1F01F0
3E00F8
3C0078
78003C
70001C
F0001E
E0000E
E0000E
E0000E
E0000E
E0000E
E0000E
E0000E
F0001E
F0001E
78003C
3C0078
3E00F8
1F01F0
0FEFE0
03FF80
00FE00
ENDCHAR
STARTCHAR uni020D
ENCODING 525
SWIDTH 556 0
DWIDTH 18 0
BBX 15 24 1 0
BITMAP
39C0
39C0
1CE0
0C60
0630
0000
07C0
1FF0
3FF8
783C
701C
F01E
E00E
E00E
E00E
E00E
E00E
E00E
F01E
701C
783C
3FF8
1FF0
07C0
ENDCHAR
STARTCHAR uni020E
ENCODING 526
SWIDTH 778 0
DWIDTH 25 0
BBX 23 30 1 0
BITMAP
007C00
00FE00
01C300
010100
000000
00FE00
03FF80
0FEFE0
1F01F0
3E00F8
3C0078
78003C
70001C
F0001E
E0000E
E0000E
E0000E
E0000E
E0000E
E0000E
E0000E
F0001E
F0001E
78003C
3C0078
3E00F8
1F01F0
0FEFE0
03FF80
00FE00
ENDCHAR
STARTCHAR uni020F
ENCODING 527
SWIDTH 556 0
DWIDTH 18 0
BBX 15 23 1 0
BITMAP
07C0
0FE0
1C30
1010
0000
07C0
1FF0
3FF8
783C
701C
F01E
E00E
E00E
E00E
E00E
E00E
E00E
F01E
701C
783C
3FF8
1FF0
07C0
ENDCHAR
STARTCHAR uni0210
ENCODING 528
SWIDTH 722 0
DWIDTH 24 0
BBX 19 31 3 0
BITMAP
1CE000
1CE000
0E7000
063000
031800
000000
FFFC00
FFFF00
FFFF80
E00780
E003C0
E001C0
E001C0
E001C0
E001C0
E003C0
E00380
E00F80
FFFF00
FFFE00
FFFF00
E00F80
E00780
E00380
E003C0
E003C0
E003C0
E001C0
E001C0
E001C0
E001E0
ENDCHAR
STARTCHAR uni0211
ENCODING 529
SWIDTH 333 0
DWIDTH 11 0
BBX 10 24 0 0
BITMAP
E700
E700
7380
3180
18C0
0000
39C0
3BC0
3FC0
3F00
3C00
3C00
3800
3800
3800
3800
3800
3800
3800
3800
3800
3800
3800
3800
ENDCHAR
STARTCHAR uni0212
ENCODING 530
SWIDTH 722 0
DWIDTH 24 0
BBX 19 30 3 0
BITMAP
03E000
07F000
0E1800
080800
000000
FFFC00
FFFF00
FFFF80
E00780
E003C0
E001C0
E001C0
E001C0
E001C0
E003C0
E00380
E00F80
FFFF00
FFFE00
FFFF00
E00F80
E00780
E00380
E003C0
E003C0
E003C0
E001C0
E001C0
E001C0
E001E0
ENDCHAR
STARTCHAR uni0213
ENCODING 531
SWIDTH 333 0
DWIDTH 11 0
BBX 9 23 1 0
BITMAP
3E00
7F00
E180
8080
0000
7380
7780
7F80
7E00
7800
7800
7000
7000
7000
7000
7000
7000
7000
7000
7000
7000
7000
7000
ENDCHAR
STARTCHAR uni0214
ENCODING 532
SWIDTH 722 0
DWIDTH 24 0
BBX 18 31 3 0
BITMAP
1CE000
1CE000
0E7000
063000
031800
000000
E001C0
E001C0
E001C0
E001C0
E001C0
E001C0
E001C0
E001C0
E001C0
E001C0
E001C0
E001C0
E001C0
E001C0
E001C0
E001C0
E001C0
E001C0
E001C0
F003C0
780780
7C0F80
3FFF00
1FFE00
03F000
ENDCHAR
STARTCHAR uni0215
ENCODING 533
SWIDTH 556 0
DWIDTH 18 0
BBX 14 24 2 0
BITMAP
7380
7380
39C0
18C0
0C60
0000
E01C
E01C
E01C
E01C
E01C
E01C
E01C
E01C
E01C
E01C
E01C
E01C
E01C
E03C
F07C
7FFC
7FDC
1F1C
ENDCHAR
STARTCHAR uni0216
ENCODING 534
SWIDTH 722 0
DWIDTH 24 0
BBX 18 30 3 0
BITMAP
01F000
03F800
070C00
040400
000000
E001C0
E001C0
E001C0
E001C0
E001C0
E001C0
E001C0
E001C0
E001C0
E001C0
E001C0
E001C0
E001C0
E001C0
E001C0
E001C0
E001C0
E001C0
E001C0
F003C0
780780
7C0F80
3FFF00
1FFE00
03F000
ENDCHAR
STARTCHAR uni0217
ENCODING 535
SWIDTH 556 0
DWIDTH 18 0
BBX 14 23 2 0
BITMAP
07C0
0FE0
1C30
1010
0000
E01C
E01C
E01C
E01C
E01C
E01C
E01C
E01C
E01C
E01C
E01C
E01C
E01C
E03C
F07C
7FFC
7FDC
1F1C
ENDCHAR
STARTCHAR Scommaaccent
ENCODING 536
SWIDTH 667 0
DWIDTH 22 0
BBX 19 35 1 -10
BITMAP
03F800
0FFE00
1FFF00
3C0F80
3803C0
7001C0
7001C0
700000
780000
7C0000
3FC000
1FF800
07FF00
007F80
000FC0
0001E0
0000E0
E000E0
F000E0
7001E0
7801C0
3E07C0
3FFF80
0FFE00
03F800
000000
00E000
00E000
00E000
00E000
002000
006000
006000
00C000
008000
ENDCHAR
STARTCHAR scommaaccent
ENCODING 537
SWIDTH 500 0
DWIDTH 16 0
BBX 13 28 2 -10
BITMAP
0F80
3FE0
7FE0
70F0
E070
E000
7000
7E00
3FC0
07F0
00F0
0078
E038
E038
F070
7FF0
7FE0
1F80
0000
0700
0700
0700
0700
0100
0300
0300
0600
0400
ENDCHAR
STARTCHAR Tcommaaccent
ENCODING 538
SWIDTH 611 0
DWIDTH 20 0
BBX 19 35 0 -10
BITMAP
FFFFE0
FFFFE0
FFFFE0
00E000
00E000
00E000
00E000
00E000
00E000
00E000
00E000
00E000
00E000
00E000
00E000
00E000
00E000
00E000
00E000
00E000
00E000
00E000
00E000
00E000
00E000
000000
00E000
00E000
00E000
00E000
002000
006000
006000
00C000
008000
ENDCHAR
STARTCHAR tcommaaccent
ENCODING 539
SWIDTH 278 0
DWIDTH 9 0
BBX 8 32 1 -10
BITMAP
38
38
38
38
FF
FF
FF
38
38
38
38
38
38
38
38
38
38
38
38
3C
3F
1F
00
1C
1C
1C
1C
04
0C
0C
18
10
ENDCHAR
STARTCHAR uni021E
ENCODING 542
SWIDTH 722 0
DWIDTH 24 0
BBX 18 31 3 0
BITMAP
071C00
03B800
01F000
00E000
004000
000000
E001C0
E001C0
E001C0
E001C0
E001C0
E001C0
E001C0
E001C0
E001C0
E001C0
E001C0
FFFFC0
FFFFC0
FFFFC0
E001C0
E001C0
E001C0
E001C0
E001C0
E001C0
E001C0
E001C0
E001C0
E001C0
E001C0
ENDCHAR
STARTCHAR uni021F
ENCODING 543
SWIDTH 556 0
DWIDTH 18 0
BBX 15 31 1 0
BITMAP
E380
7700
3E00
1C00
0800
0000
7000
7000
7000
7000
7000
7000
7000
71F0
77F8
7FFC
7C1E
780E
700E
700E
700E
700E
700E
700E
700E
700E
700E
700E
700E
700E
700E
ENDCHAR
STARTCHAR uni0226
ENCODING 550
SWIDTH 667 0
DWIDTH 22 0
BBX 20 29 1 0
BITMAP
007000
007000
007000
000000
00F000
00F000
00F800
01F800
01F800
039C00
039C00
039C00
079E00
070E00
070E00
0F0F00
0F0F00
0E0700
1E0780
1FFF80
1FFF80
3FFFC0
3C03C0
3801C0
7801E0
7801E0
7000E0
F000F0
F000F0
ENDCHAR
STARTCHAR uni0227
ENCODING 551
SWIDTH 556 0
DWIDTH 18 0
BBX 16 22 1 0
BITMAP
0380
0380
0380
0000
0FE0
3FF8
3C78
703C
701C
001C
003C
01FC
1FFC
7E1C
781C
F01C
E01C
E03C
E07C
79FE
7FDF
3F8F
ENDCHAR
STARTCHAR uni0228
ENCODING 552
SWIDTH 667 0
DWIDTH 22 0
BBX 17 32 3 -7
BITMAP
FFFF00
FFFF00
FFFF00
E00000
E00000
E00000
E00000
E00000
E00000
E00000
E00000
FFFF00
FFFF00
FFFF00
E00000
E00000
E00000
E00000
E00000
E00000
E00000
E00000
FFFF80
FFFF80
FFFF80
018000
018000
03C000
00E000
006000
0CE000
07C000
ENDCHAR
STARTCHAR uni0229
ENCODING 553
SWIDTH 556 0
DWIDTH 18 0
BBX 15 25 2 -7
BITMAP
07C0
1FF0
3FF8
783C
701C
F00E
E00E
E00E
FFFE
FFFE
E000
E000
F00E
701E
783C
3FF8
1FF0
07C0
0180
0180
03C0
00E0
0060
0CE0
07C0
ENDCHAR
STARTCHAR uni022A
ENCODING 554
SWIDTH 778 0
DWIDTH 25 0
BBX 23 32 1 0
BITMAP
01FF00
01FF00
000000
01C380
01C380
01C380
000000
00FE00
03FF80
0FFFE0
1F01F0
3E00F8
3C0078
78003C
70001C
70001C
F0001E
E0000E
E0000E
E0000E
E0000E
E0000E
F0001E
F0001E
70001C
78003C
3C0078
3E00F8
1F01F0
0FFFE0
03FF80
00FE00
ENDCHAR
STARTCHAR uni022B
ENCODING 555
SWIDTH 556 0
DWIDTH 19 0
BBX 15 26 1 0
BITMAP
1FF0
1FF0
0000
1C70
1C70
1C70
0000
0000
07C0
1FF0
3FF8
783C
701C
701C
E00E
E00E
E00E
E00E
E00E
E00E
701C
701C
783C
3FF8
1FF0
07C0
ENDCHAR
STARTCHAR uni022C
ENCODING 556
SWIDTH 778 0
DWIDTH 25 0
BBX 23 33 1 0
BITMAP
01FF00
01FF00
000000
007180
00FF80
01FF00
018E00
000000
00FE00
03FF80
0FFFE0
1F01F0
3E00F8
3C0078
78003C
70001C
70001C
F0001E
E0000E
E0000E
E0000E
E0000E
E0000E
F0001E
F0001E
70001C
78003C
3C0078
3E00F8
1F01F0
0FFFE0
03FF80
00FE00
ENDCHAR
STARTCHAR uni022D
ENCODING 557
SWIDTH 556 0
DWIDTH 19 0
BBX 15 27 1 0
BITMAP
1FF0
1FF0
0000
0E30
1FF0
3FE0
31C0
0000
0000
07C0
1FF0
3FF8
783C
701C
701C
E00E
E00E
E00E
E00E
E00E
E00E
701C
701C
783C
3FF8
1FF0
07C0
ENDCHAR
STARTCHAR uni022E
ENCODING 558
SWIDTH 778 0
DWIDTH 25 0
BBX 23 29 1 0
BITMAP
003800
003800
003800
000000
00FE00
03FF80
0FEFE0
1F01F0
3E00F8
3C0078
78003C
70001C
F0001E
E0000E
E0000E
E0000E
E0000E
E0000E
E0000E
E0000E
F0001E
F0001E
78003C
3C0078
3E00F8
1F01F0
0FEFE0
03FF80
00FE00
ENDCHAR
STARTCHAR uni022F
ENCODING 559
SWIDTH 556 0
DWIDTH 18 0
BBX 15 22 1 0
BITMAP
0380
0380
0380
0000
07C0
1FF0
3FF8
783C
701C
F01E
E00E
E00E
E00E
E00E
E00E
E00E
F01E
701C
783C
3FF8
1FF0
07C0
ENDCHAR
STARTCHAR uni0230
ENCODING 560
SWIDTH 778 0
DWIDTH 25 0
BBX 23 32 1 0
BITMAP
01FF00
01FF00
000000
003800
003800
003800
000000
00FE00
03FF80
0FEFE0
1F01F0
3E00F8
3C0078
78003C
70001C
F0001E
E0000E
E0000E
E0000E
E0000E
E0000E
E0000E
E0000E
F0001E
F0001E
78003C
3C0078
3E00F8
1F01F0
0FEFE0
03FF80
00FE00
ENDCHAR
STARTCHAR uni0231
ENCODING 561
SWIDTH 556 0
DWIDTH 18 0
BBX 15 25 1 0
BITMAP
1FF0
1FF0
0000
0380
0380
0380
0000
07C0
1FF0
3FF8
783C
701C
F01E
E00E
E00E
E00E
E00E
E00E
E00E
F01E
701C
783C
3FF8
1FF0
07C0
ENDCHAR
STARTCHAR uni0232
ENCODING 562
SWIDTH 667 0
DWIDTH 22 0
BBX 21 28 0 0
BITMAP
03FE00
03FE00
000000
F00078
7800F0
7800E0
3C01E0
1C01C0
1E03C0
0E0780
0F0780
078F00
038E00
03DE00
01DC00
01FC00
00F800
00F800
007000
007000
007000
007000
007000
007000
007000
007000
007000
007000
ENDCHAR
STARTCHAR uni0233
ENCODING 563
SWIDTH 500 0
DWIDTH 16 0
BBX 14 28 1 -7
BITMAP
3FE0
3FE0
0000
E01C
E01C
F038
7038
7038
7070
3870
3870
38E0
3CE0
1CE0
1DC0
1DC0
0FC0
0F80
0F80
0700
0700
0700
0E00
0E00
1C00
7C00
7800
7000
ENDCHAR
STARTCHAR uni0250
ENCODING 592
SWIDTH 556 0
DWIDTH 18 0
BBX 16 18 1 0
BITMAP
F1FC
FBFE
7F9E
3E07
3C07
3807
380F
381E
387E
3FF8
3F80
3C00
3800
380E
3C0E
1E3C
1FFC
07F0
ENDCHAR
STARTCHAR uni0254
ENCODING 596
SWIDTH 500 0
DWIDTH 16 0
BBX 14 18 1 0
BITMAP
0F80
3FE0
7FF0
F070
E038
E038
001C
001C
001C
001C
001C
E01C
E01C
E038
7078
7FF0
3FE0
0F80
ENDCHAR
STARTCHAR uni0258
ENCODING 600
SWIDTH 556 0
DWIDTH 18 0
BBX 15 18 2 0
BITMAP
07C0
1FF0
3FF8
783C
701C
E01E
E00E
E00E
FFFE
FFFE
000E
000E
E01E
F01C
783C
3FF8
1FF0
07C0
ENDCHAR
STARTCHAR uni0259
ENCODING 601
SWIDTH 556 0
DWIDTH 18 0
BBX 15 18 2 0
BITMAP
07C0
1FF0
3FF8
783C
F01C
E01E
000E
000E
FFFE
FFFE
E00E
E00E
E01E
701C
783C
3FF8
1FF0
07C0
ENDCHAR
STARTCHAR uni025F
ENCODING 607
SWIDTH 278 0
DWIDTH 9 0
BBX 8 25 1 -7
BITMAP
1C
1C
1C
1C
1C
1C
1C
1C
1C
1C
1C
1C
1C
1C
1C
FF
FF
FF
1C
1C
1C
1C
3C
F8
F0
ENDCHAR
STARTCHAR uni0265
ENCODING 613
SWIDTH 556 0
DWIDTH 18 0
BBX 14 25 2 -7
BITMAP
E01C
E01C
E01C
E01C
E01C
E01C
E01C
E01C
E01C
E01C
E01C
E01C
E01C
E03C
F07C
7FFC
3FDC
1F1C
001C
001C
001C
001C
001C
001C
001C
ENDCHAR
STARTCHAR uni0275
ENCODING 629
SWIDTH 556 0
DWIDTH 18 0
BBX 15 18 1 0
BITMAP
07C0
1FF0
3FF8
783C
701C
F01E
E00E
E00E
FFFE
FFFE
E00E
E00E
F01E
701C
783C
3FF8
1FF0
07C0
ENDCHAR
STARTCHAR uni0279
ENCODING 633
SWIDTH 333 0
DWIDTH 11 0
BBX 8 18 2 0
BITMAP
07
07
07
07
07
07
07
07
07
07
07
07
0F
0F
3F
FF
F7
E7
ENDCHAR
STARTCHAR uni0287
ENCODING 647
SWIDTH 278 0
DWIDTH 9 0
BBX 8 22 1 0
BITMAP
F8
FC
3C
1C
1C
1C
1C
1C
1C
1C
1C
1C
1C
1C
1C
FF
FF
FF
1C
1C
1C
1C
ENDCHAR
STARTCHAR uni0288
ENCODING 648
SWIDTH 278 0
DWIDTH 9 0
BBX 8 29 1 -7
BITMAP
38
38
38
38
FF
FF
FF
38
38
38
38
38
38
38
38
38
38
38
38
38
38
38
38
38
38
38
3C
3F
1F
ENDCHAR
STARTCHAR uni0289
ENCODING 649
SWIDTH 556 0
DWIDTH 18 0
BBX 14 18 2 0
BITMAP
E01C
E01C
E01C
E01C
E01C
E01C
E01C
E01C
FFFC
FFFC
E01C
E01C
E01C
E03C
F07C
7FFC
7FDC
1F1C
ENDCHAR
STARTCHAR uni028C
ENCODING 652
SWIDTH 500 0
DWIDTH 16 0
BBX 15 18 0 0
BITMAP
0380
0380
07C0
07C0
0EE0
0EE0
0EE0
1C70
1C70
1C70
3838
3838
3838
701C
701C
701C
E00E
E00E
ENDCHAR
STARTCHAR uni028D
ENCODING 653
SWIDTH 722 0
DWIDTH 23 0
BBX 23 18 0 0
BITMAP
0701C0
0701C0
0F83E0
0F83E0
0D8360
1DC770
1DC770
1DC770
18C630
38C638
38EE38
38EE38
70EE38
706C1C
707C1C
707C1C
E0380E
E0380E
ENDCHAR
STARTCHAR uni028E
ENCODING 654
SWIDTH 500 0
DWIDTH 16 0
BBX 14 25 1 0
BITMAP
0038
0078
00F8
00E0
01C0
01C0
0380
0380
0380
07C0
07C0
0FC0
0EE0
0EE0
1CE0
1CF0
1C70
3870
3870
3838
7038
7038
703C
E01C
E01C
ENDCHAR
STARTCHAR uni029E
ENCODING 670
SWIDTH 500 0
DWIDTH 16 0
BBX 15 25 1 -7
BITMAP
F00E
780E
380E
3C0E
1E0E
0E0E
0F0E
070E
079E
03BE
01FE
01FE
01EE
03CE
078E
0F0E
1E0E
3C0E
000E
000E
000E
000E
000E
000E
000E
ENDCHAR
STARTCHAR uni02BB
ENCODING 699
SWIDTH 222 0
DWIDTH 7 0
BBX 3 7 2 18
BITMAP
60
C0
80
E0
E0
E0
E0
ENDCHAR
STARTCHAR afii57929
ENCODING 700
SWIDTH 222 0
DWIDTH 7 0
BBX 3 7 2 18
BITMAP
E0
E0
E0
E0
20
60
C0
ENDCHAR
STARTCHAR afii64937
ENCODING 701
SWIDTH 222 0
DWIDTH 7 0
BBX 3 7 2 18
BITMAP
E0
E0
E0
E0
80
C0
60
ENDCHAR
STARTCHAR circumflex
ENCODING 710
SWIDTH 333 0
DWIDTH 11 0
BBX 9 5 1 20
BITMAP
0800
1C00
3E00
7700
E380
ENDCHAR
STARTCHAR caron
ENCODING 711
SWIDTH 333 0
DWIDTH 11 0
BBX 9 5 1 20
BITMAP
E380
7700
3E00
1C00
0800
ENDCHAR
STARTCHAR uni02C8
ENCODING 712
SWIDTH 191 0
DWIDTH 6 0
BBX 3 8 2 15
BITMAP
E0
E0
E0
E0
E0
E0
E0
40
ENDCHAR
STARTCHAR macron
ENCODING 713
SWIDTH 333 0
DWIDTH 11 0
BBX 9 2 1 22
BITMAP
FF80
FF80
ENDCHAR
STARTCHAR uni02CA
ENCODING 714
SWIDTH 333 0
DWIDTH 11 0
BBX 7 5 3 22
BITMAP
1E
3C
38
70
E0
ENDCHAR
STARTCHAR uni02CB
ENCODING 715
SWIDTH 333 0
DWIDTH 11 0
BBX 6 5 1 20
BITMAP
E0
F0
70
38
1C
ENDCHAR
STARTCHAR uni02CD
ENCODING 717
SWIDTH 333 0
DWIDTH 11 0
BBX 9 2 1 -3
BITMAP
FF80
FF80
ENDCHAR
STARTCHAR uni02CE
ENCODING 718
SWIDTH 333 0
DWIDTH 11 0
BBX 6 5 1 -6
BITMAP
E0
F0
70
38
1C
ENDCHAR
STARTCHAR uni02CF
ENCODING 719
SWIDTH 333 0
DWIDTH 11 0
BBX 7 5 3 -6
BITMAP
1E
3C
38
70
E0
ENDCHAR
STARTCHAR breve
ENCODING 728
SWIDTH 333 0
DWIDTH 11 0
BBX 9 4 1 20
BITMAP
8080
E180
7F00
3E00
ENDCHAR
STARTCHAR dotaccent
ENCODING 729
SWIDTH 333 0
DWIDTH 11 0
BBX 3 3 4 20
BITMAP
E0
E0
E0
ENDCHAR
STARTCHAR ring
ENCODING 730
SWIDTH 333 0
DWIDTH 11 0
BBX 5 6 3 19
BITMAP
70
D8
88
88
D8
70
ENDCHAR
STARTCHAR ogonek
ENCODING 731
SWIDTH 333 0
DWIDTH 11 0
BBX 7 7 2 -6
BITMAP
20
60
C0
C0
E6
7E
3C
ENDCHAR
STARTCHAR tilde
ENCODING 732
SWIDTH 333 0
DWIDTH 11 0
BBX 10 4 0 20
BITMAP
38C0
7FC0
FF80
C700
ENDCHAR
STARTCHAR hungarumlaut
ENCODING 733
SWIDTH 333 0
DWIDTH 11 0
BBX 10 5 -1 20
BITMAP
39C0
39C0
7380
6300
C600
ENDCHAR
STARTCHAR uni02EE
ENCODING 750
SWIDTH 333 0
DWIDTH 11 0
BBX 8 7 2 16
BITMAP
E7
E7
E7
63
63
63
C6
ENDCHAR
STARTCHAR uni037E
ENCODING 894
SWIDTH 278 0
DWIDTH 9 0
BBX 3 22 4 -5
BITMAP
E0
E0
E0
E0
00
00
00
00
00
00
00
00
00
E0
E0
E0
E0
20
60
60
C0
80
ENDCHAR
STARTCHAR tonos
ENCODING 900
SWIDTH 333 0
DWIDTH 11 0
BBX 7 5 3 22
BITMAP
1E
3C
38
70
E0
ENDCHAR
STARTCHAR dieresistonos
ENCODING 901
SWIDTH 333 0
DWIDTH 11 0
BBX 9 9 1 22
BITMAP
0780
0F00
0E00
1C00
3800
0000
E700
E700
E700
ENDCHAR
STARTCHAR anoteleia
ENCODING 903
SWIDTH 278 0
DWIDTH 9 0
BBX 4 4 3 11
BITMAP
60
F0
F0
60
ENDCHAR
STARTCHAR mu
ENCODING 956
SWIDTH 556 0
DWIDTH 19 0
BBX 14 24 2 -6
BITMAP
E01C
E01C
E01C
E01C
E01C
E01C
E01C
E01C
E01C
E01C
E01C
E01C
E01C
E03C
F07C
FFFC
FFDC
FF1C
E000
E000
E000
E000
E000
E000
ENDCHAR
STARTCHAR uni1E00
ENCODING 7680
SWIDTH 667 0
DWIDTH 22 0
BBX 20 32 1 -7
BITMAP
00F000
00F000
00F800
01F800
01F800
039C00
039C00
039C00
079E00
070E00
070E00
0F0F00
0F0F00
0E0700
1E0780
1FFF80
1FFF80
3FFFC0
3C03C0
3801C0
7801E0
7801E0
7000E0
F000F0
F000F0
000000
007000
00D800
008800
008800
00D800
007000
ENDCHAR
STARTCHAR uni1E01
ENCODING 7681
SWIDTH 556 0
DWIDTH 18 0
BBX 16 25 1 -7
BITMAP
0FE0
3FF8
3C78
703C
701C
001C
003C
01FC
1FFC
7E1C
781C
F01C
E01C
E03C
E07C
79FE
7FDF
3F8F
0000
01C0
0360
0220
0220
0360
01C0
ENDCHAR
STARTCHAR uni1E02
ENCODING 7682
SWIDTH 667 0
DWIDTH 22 0
BBX 17 29 3 0
BITMAP
038000
038000
038000
000000
FFF000
FFFC00
FFFE00
E03E00
E00F00
E00F00
E00700
E00700
E00F00
E00E00
E03E00
FFFC00
FFFC00
FFFE00
E01F00
E00780
E00380
E00380
E00380
E00380
E00780
E00F00
FFFE00
FFFE00
FFF800
ENDCHAR
STARTCHAR uni1E03
ENCODING 7683
SWIDTH 556 0
DWIDTH 18 0
BBX 15 29 2 0
BITMAP
3800
3800
3800
0000
E000
E000
E000
E000
E000
E000
E000
E3E0
EFF0
FFF8
F83C
F01C
F01E
E00E
E00E
E00E
E00E
E00E
E00E
F01E
F01C
FC3C
FFF8
EFF0
E7E0
ENDCHAR
STARTCHAR uni1E04
ENCODING 7684
SWIDTH 667 0
DWIDTH 22 0
BBX 17 29 3 -4
BITMAP
FFF000
FFFC00
FFFE00
E03E00
E00F00
E00F00
E00700
E00700
E00F00
E00E00
E03E00
FFFC00
FFFC00
FFFE00
E01F00
E00780
E00380
E00380
E00380
E00380
E00780
E00F00
FFFE00
FFFE00
FFF800
000000
01C000
01C000
01C000
ENDCHAR
STARTCHAR uni1E05
ENCODING 7685
SWIDTH 556 0
DWIDTH 18 0
BBX 15 29 2 -4
BITMAP
E000
E000
E000
E000
E000
E000
E000
E3E0
EFF0
FFF8
F83C
F01C
F01E
E00E
E00E
E00E
E00E
E00E
E00E
F01E
F01C
FC3C
FFF8
EFF0
E7E0
0000
0700
0700
0700
ENDCHAR
STARTCHAR uni1E06
ENCODING 7686
SWIDTH 667 0
DWIDTH 22 0
BBX 17 28 3 -3
BITMAP
FFF000
FFFC00
FFFE00
E03E00
E00F00
E00F00
E00700
E00700
E00F00
E00E00
E03E00
FFFC00
FFFC00
FFFE00
E01F00
E00780
E00380
E00380
E00380
E00380
E00780
E00F00
FFFE00
FFFE00
FFF800
000000
0FF800
0FF800
ENDCHAR
STARTCHAR uni1E07
ENCODING 7687
SWIDTH 556 0
DWIDTH 18 0
BBX 15 28 2 -3
BITMAP
E000
E000
E000
E000
E000
E000
E000
E3E0
EFF0
FFF8
F83C
F01C
F01E
E00E
E00E
E00E
E00E
E00E
E00E
F01E
F01C
FC3C
FFF8
EFF0
E7E0
0000
3FE0
3FE0
ENDCHAR
STARTCHAR uni1E08
ENCODING 7688
SWIDTH 722 0
DWIDTH 23 0
BBX 20 38 2 -7
BITMAP
003C00
007800
007000
00E000
01C000
000000
01F800
07FE00
0FFF80
1F0780
3C03C0
7801E0
7000E0
7000E0
F00000
F00000
E00000
E00000
E00000
E00000
E00000
F00070
F00070
7000F0
7000E0
7801E0
3C03C0
1F07C0
0FFF80
07FE00
01F800
006000
006000
00F000
003800
001800
033800
01F000
ENDCHAR
STARTCHAR uni1E09
ENCODING 7689
SWIDTH 500 0
DWIDTH 17 0
BBX 14 31 1 -7
BITMAP
00F0
01E0
01C0
0380
0700
0000
07C0
1FF0
3FF8
3838
701C
701C
E000
E000
E000
E000
E000
E01C
E01C
7038
7878
3FF0
1FE0
0780
0300
0300
0780
01C0
00C0
19C0
0F80
ENDCHAR
STARTCHAR uni1E0A
ENCODING 7690
SWIDTH 722 0
DWIDTH 24 0
BBX 18 29 3 0
BITMAP
01C000
01C000
01C000
000000
FFF000
FFFC00
FFFE00
E01F00
E00F00
E00780
E00380
E00380
E001C0
E001C0
E001C0
E001C0
E001C0
E001C0
E001C0
E001C0
E003C0
E00380
E00380
E00780
E00F00
E01E00
FFFE00
FFFC00
FFF000
ENDCHAR
STARTCHAR uni1E0B
ENCODING 7691
SWIDTH 556 0
DWIDTH 18 0
BBX 15 29 1 0
BITMAP
0038
0038
0038
0000
000E
000E
000E
000E
000E
000E
000E
07CE
1FEE
3FFE
7C3E
701E
F01E
E00E
E00E
E00E
E00E
E00E
E00E
F01E
F01E
783E
7FFE
3FEE
0FCE
ENDCHAR
STARTCHAR uni1E0C
ENCODING 7692
SWIDTH 722 0
DWIDTH 24 0
BBX 18 29 3 -4
BITMAP
FFF000
FFFC00
FFFE00
E01F00
E00F00
E00780
E00380
E00380
E001C0
E001C0
E001C0
E001C0
E001C0
E001C0
E001C0
E001C0
E003C0
E00380
E00380
E00780
E00F00
E01E00
FFFE00
FFFC00
FFF000
000000
01C000
01C000
01C000
ENDCHAR
STARTCHAR uni1E0D
ENCODING 7693
SWIDTH 556 0
DWIDTH 18 0
BBX 15 29 1 -4
BITMAP
000E
000E
000E
000E
000E
000E
000E
07CE
1FEE
3FFE
7C3E
701E
F01E
E00E
E00E
E00E
E00E
E00E
E00E
F01E
F01E
783E
7FFE
3FEE
0FCE
0000
0380
0380
0380
ENDCHAR
STARTCHAR uni1E0E
ENCODING 7694
SWIDTH 722 0
DWIDTH 24 0
BBX 18 28 3 -3
BITMAP
FFF000
FFFC00
FFFE00
E01F00
E00F00
E00780
E00380
E00380
E001C0
E001C0
E001C0
E001C0
E001C0
E001C0
E001C0
E001C0
E003C0
E00380
E00380
E00780
E00F00
E01E00
FFFE00
FFFC00
FFF000
000000
0FF800
0FF800
ENDCHAR
STARTCHAR uni1E0F
ENCODING 7695
SWIDTH 556 0
DWIDTH 18 0
BBX 15 28 1 -3
BITMAP
000E
000E
000E
000E
000E
000E
000E
07CE
1FEE
3FFE
7C3E
701E
F01E
E00E
E00E
E00E
E00E
E00E
E00E
F01E
F01E
783E
7FFE
3FEE
0FCE
0000
1FF0
1FF0
ENDCHAR
STARTCHAR uni1E10
ENCODING 7696
SWIDTH 722 0
DWIDTH 24 0
BBX 18 32 3 -7
BITMAP
FFF000
FFFC00
FFFE00
E01F00
E00F00
E00780
E00380
E00380
E001C0
E001C0
E001C0
E001C0
E001C0
E001C0
E001C0
E001C0
E003C0
E00380
E00380
E00780
E00F00
E01E00
FFFE00
FFFC00
FFF000
018000
018000
03C000
00E000
006000
0CE000
07C000
ENDCHAR
STARTCHAR uni1E11
ENCODING 7697
SWIDTH 556 0
DWIDTH 18 0
BBX 15 32 1 -7
BITMAP
000E
000E
000E
000E
000E
000E
000E
07CE
1FEE
3FFE
7C3E
701E
F01E
E00E
E00E
E00E
E00E
E00E
E00E
F01E
F01E
783E
7FFE
3FEE
0FCE
0180
0180
03C0
00E0
0060
0CE0
07C0
ENDCHAR
STARTCHAR uni1E12
ENCODING 7698
SWIDTH 722 0
DWIDTH 24 0
BBX 18 31 3 -6
BITMAP
FFF000
FFFC00
FFFE00
E01F00
E00F00
E00780
E00380
E00380
E001C0
E001C0
E001C0
E001C0
E001C0
E001C0
E001C0
E001C0
E003C0
E00380
E00380
E00780
E00F00
E01E00
FFFE00
FFFC00
FFF000
000000
008000
01C000
03E000
077000
0E3800
ENDCHAR
STARTCHAR uni1E13
ENCODING 7699
SWIDTH 556 0
DWIDTH 18 0
BBX 15 31 1 -6
BITMAP
000E
000E
000E
000E
000E
000E
000E
07CE
1FEE
3FFE
7C3E
701E
F01E
E00E
E00E
E00E
E00E
E00E
E00E
F01E
F01E
783E
7FFE
3FEE
0FCE
0000
0100
0380
07C0
0EE0
1C70
ENDCHAR
STARTCHAR uni1E14
ENCODING 7700
SWIDTH 667 0
DWIDTH 22 0
BBX 17 34 3 0
BITMAP
0E0000
0F0000
070000
038000
01C000
000000
1FF000
1FF000
000000
FFFF00
FFFF00
FFFF00
E00000
E00000
E00000
E00000
E00000
E00000
E00000
E00000
FFFF00
FFFF00
FFFF00
E00000
E00000
E00000
E00000
E00000
E00000
E00000
E00000
FFFF80
FFFF80
FFFF80
ENDCHAR
STARTCHAR uni1E15
ENCODING 7701
SWIDTH 556 0
DWIDTH 18 0
BBX 15 27 2 0
BITMAP
0E00
0F00
0700
0380
01C0
0000
1FF0
1FF0
0000
07C0
1FF0
3FF8
783C
701C
F00E
E00E
E00E
FFFE
FFFE
E000
E000
F00E
701E
783C
3FF8
1FF0
07C0
ENDCHAR
STARTCHAR uni1E16
ENCODING 7702
SWIDTH 667 0
DWIDTH 22 0
BBX 17 34 3 0
BITMAP
00F000
01E000
01C000
038000
070000
000000
1FF000
1FF000
000000
FFFF00
FFFF00
FFFF00
E00000
E00000
E00000
E00000
E00000
E00000
E00000
E00000
FFFF00
FFFF00
FFFF00
E00000
E00000
E00000
E00000
E00000
E00000
E00000
E00000
FFFF80
FFFF80
FFFF80
ENDCHAR
STARTCHAR uni1E17
ENCODING 7703
SWIDTH 556 0
DWIDTH 18 0
BBX 15 27 2 0
BITMAP
00F0
01E0
01C0
0380
0700
0000
1FF0
1FF0
0000
07C0
1FF0
3FF8
783C
701C
F00E
E00E
E00E
FFFE
FFFE
E000
E000
F00E
701E
783C
3FF8
1FF0
07C0
ENDCHAR
STARTCHAR uni1E18
ENCODING 7704
SWIDTH 667 0
DWIDTH 22 0
BBX 17 31 3 -6
BITMAP
FFFF00
FFFF00
FFFF00
E00000
E00000
E00000
E00000
E00000
E00000
E00000
E00000
FFFF00
FFFF00
FFFF00
E00000
E00000
E00000
E00000
E00000
E00000
E00000
E00000
FFFF80
FFFF80
FFFF80
000000
010000
038000
07C000
0EE000
1C7000
ENDCHAR
STARTCHAR uni1E19
ENCODING 7705
SWIDTH 556 0
DWIDTH 18 0
BBX 15 24 2 -6
BITMAP
07C0
1FF0
3FF8
783C
701C
F00E
E00E
E00E
FFFE
FFFE
E000
E000
F00E
701E
783C
3FF8
1FF0
07C0
0000
0100
0380
07C0
0EE0
1C70
ENDCHAR
STARTCHAR uni1E1A
ENCODING 7706
SWIDTH 667 0
DWIDTH 22 0
BBX 17 30 3 -5
BITMAP
FFFF00
FFFF00
FFFF00
E00000
E00000
E00000
E00000
E00000
E00000
E00000
E00000
FFFF00
FFFF00
FFFF00
E00000
E00000
E00000
E00000
E00000
E00000
E00000
E00000
FFFF80
FFFF80
FFFF80
000000
0E3000
1FF000
3FE000
31C000
ENDCHAR
STARTCHAR uni1E1B
ENCODING 7707
SWIDTH 556 0
DWIDTH 18 0
BBX 15 23 2 -5
BITMAP
07C0
1FF0
3FF8
783C
701C
F00E
E00E
E00E
FFFE
FFFE
E000
E000
F00E
701E
783C
3FF8
1FF0
07C0
0000
0E30
1FF0
3FE0
31C0
ENDCHAR
STARTCHAR uni1E1C
ENCODING 7708
SWIDTH 667 0
DWIDTH 22 0
BBX 17 37 3 -7
BITMAP
202000
386000
1FC000
0F8000
000000
FFFF00
FFFF00
FFFF00
E00000
E00000
E00000
E00000
E00000
E00000
E00000
E00000
FFFF00
FFFF00
FFFF00
E00000
E00000
E00000
E00000
E00000
E00000
E00000
E00000
FFFF80
FFFF80
FFFF80
018000
018000
03C000
00E000
006000
0CE000
07C000
ENDCHAR
STARTCHAR uni1E1D
ENCODING 7709
SWIDTH 556 0
DWIDTH 18 0
BBX 15 30 2 -7
BITMAP
1010
1C30
0FE0
07C0
0000
07C0
1FF0
3FF8
783C
701C
F00E
E00E
E00E
FFFE
FFFE
E000
E000
F00E
701E
783C
3FF8
1FF0
07C0
0180
0180
03C0
00E0
0060
0CE0
07C0
ENDCHAR
STARTCHAR uni1E1E
ENCODING 7710
SWIDTH 611 0
DWIDTH 20 0
BBX 16 29 3 0
BITMAP
0380
0380
0380
0000
FFFF
FFFF
FFFF
E000
E000
E000
E000
E000
E000
E000
E000
FFFC
FFFC
FFFC
E000
E000
E000
E000
E000
E000
E000
E000
E000
E000
E000
ENDCHAR
STARTCHAR uni1E1F
ENCODING 7711
SWIDTH 278 0
DWIDTH 9 0
BBX 8 29 1 0
BITMAP
1C
1C
1C
00
0F
1F
3C
38
38
38
38
FF
FF
FF
38
38
38
38
38
38
38
38
38
38
38
38
38
38
38
ENDCHAR
STARTCHAR uni1E20
ENCODING 7712
SWIDTH 778 0
DWIDTH 25 0
BBX 22 28 1 0
BITMAP
01FF00
01FF00
000000
00FE00
03FF80
0FFFC0
1F83F0
3E00F0
3C0078
780038
700038
F00000
E00000
E00000
E00000
E00FFC
E00FFC
E00FFC
E0001C
F0001C
70001C
78003C
38003C
3C00FC
1F01FC
0FFFDC
07FF1C
01FC1C
ENDCHAR
STARTCHAR uni1E21
ENCODING 7713
SWIDTH 556 0
DWIDTH 18 0
BBX 15 28 1 -7
BITMAP
0FF8
0FF8
0000
07CE
1FEE
3FFE
7C3E
701E
F01E
E00E
E00E
E00E
E00E
E00E
E00E
F01E
703E
783E
3FFE
1FEE
078E
000E
E00E
E01C
F01C
7C78
3FF8
1FE0
ENDCHAR
STARTCHAR uni1E22
ENCODING 7714
SWIDTH 722 0
DWIDTH 24 0
BBX 18 29 3 0
BITMAP
00E000
00E000
00E000
000000
E001C0
E001C0
E001C0
E001C0
E001C0
E001C0
E001C0
E001C0
E001C0
E001C0
E001C0
FFFFC0
FFFFC0
FFFFC0
E001C0
E001C0
E001C0
E001C0
E001C0
E001C0
E001C0
E001C0
E001C0
E001C0
E001C0
ENDCHAR
STARTCHAR uni1E23
ENCODING 7715
SWIDTH 556 0
DWIDTH 18 0
BBX 14 29 2 0
BITMAP
3800
3800
3800
0000
E000
E000
E000
E000
E000
E000
E000
E3E0
EFF0
FFF8
F83C
F01C
E01C
E01C
E01C
E01C
E01C
E01C
E01C
E01C
E01C
E01C
E01C
E01C
E01C
ENDCHAR
STARTCHAR uni1E24
ENCODING 7716
SWIDTH 722 0
DWIDTH 24 0
BBX 18 29 3 -4
BITMAP
E001C0
E001C0
E001C0
E001C0
E001C0
E001C0
E001C0
E001C0
E001C0
E001C0
E001C0
FFFFC0
FFFFC0
FFFFC0
E001C0
E001C0
E001C0
E001C0
E001C0
E001C0
E001C0
E001C0
E001C0
E001C0
E001C0
000000
00E000
00E000
00E000
ENDCHAR
STARTCHAR uni1E25
ENCODING 7717
SWIDTH 556 0
DWIDTH 18 0
BBX 14 29 2 -4
BITMAP
E000
E000
E000
E000
E000
E000
E000
E3E0
EFF0
FFF8
F83C
F01C
E01C
E01C
E01C
E01C
E01C
E01C
E01C
E01C
E01C
E01C
E01C
E01C
E01C
0000
0380
0380
0380
ENDCHAR
STARTCHAR uni1E26
ENCODING 7718
SWIDTH 722 0
DWIDTH 24 0
BBX 18 29 3 0
BITMAP
073800
073800
073800
000000
E001C0
E001C0
E001C0
E001C0
E001C0
E001C0
E001C0
E001C0
E001C0
E001C0
E001C0
FFFFC0
FFFFC0
FFFFC0
E001C0
E001C0
E001C0
E001C0
E001C0
E001C0
E001C0
E001C0
E001C0
E001C0
E001C0
ENDCHAR
STARTCHAR uni1E27
ENCODING 7719
SWIDTH 556 0
DWIDTH 18 0
BBX 15 29 1 0
BITMAP
E700
E700
E700
0000
7000
7000
7000
7000
7000
7000
7000
71F0
77F8
7FFC
7C1E
780E
700E
700E
700E
700E
700E
700E
700E
700E
700E
700E
700E
700E
700E
ENDCHAR
STARTCHAR uni1E28
ENCODING 7720
SWIDTH 722 0
DWIDTH 24 0
BBX 18 32 3 -7
BITMAP
E001C0
E001C0
E001C0
E001C0
E001C0
E001C0
E001C0
E001C0
E001C0
E001C0
E001C0
FFFFC0
FFFFC0
FFFFC0
E001C0
E001C0
E001C0
E001C0
E001C0
E001C0
E001C0
E001C0
E001C0
E001C0
E001C0
00C000
00C000
01E000
007000
003000
067000
03E000
ENDCHAR
STARTCHAR uni1E29
ENCODING 7721
SWIDTH 556 0
DWIDTH 18 0
BBX 14 32 2 -7
BITMAP
E000
E000
E000
E000
E000
E000
E000
E3E0
EFF0
FFF8
F83C
F01C
E01C
E01C
E01C
E01C
E01C
E01C
E01C
E01C
E01C
E01C
E01C
E01C
E01C
0300
0300
0780
01C0
00C0
19C0
0F80
ENDCHAR
STARTCHAR uni1E2A
ENCODING 7722
SWIDTH 722 0
DWIDTH 24 0
BBX 18 30 3 -5
BITMAP
E001C0
E001C0
E001C0
E001C0
E001C0
E001C0
E001C0
E001C0
E001C0
E001C0
E001C0
FFFFC0
FFFFC0
FFFFC0
E001C0
E001C0
E001C0
E001C0
E001C0
E001C0
E001C0
E001C0
E001C0
E001C0
E001C0
000000
040400
070C00
03F800
01F000
ENDCHAR
STARTCHAR uni1E2B
ENCODING 7723
SWIDTH 556 0
DWIDTH 18 0
BBX 14 30 2 -5
BITMAP
E000
E000
E000
E000
E000
E000
E000
E3E0
EFF0
FFF8
F83C
F01C
E01C
E01C
E01C
E01C
E01C
E01C
E01C
E01C
E01C
E01C
E01C
E01C
E01C
0000
1010
1C30
0FE0
07C0
ENDCHAR
STARTCHAR uni1E2C
ENCODING 7724
SWIDTH 278 0
DWIDTH 9 0
BBX 10 30 -1 -5
BITMAP
0E00
0E00
0E00
0E00
0E00
0E00
0E00
0E00
0E00
0E00
0E00
0E00
0E00
0E00
0E00
0E00
0E00
0E00
0E00
0E00
0E00
0E00
0E00
0E00
0E00
0000
38C0
7FC0
FF80
C700
ENDCHAR
STARTCHAR uni1E2D
ENCODING 7725
SWIDTH 222 0
DWIDTH 7 0
BBX 10 30 -2 -5
BITMAP
0E00
0E00
0E00
0E00
0000
0000
0000
0E00
0E00
0E00
0E00
0E00
0E00
0E00
0E00
0E00
0E00
0E00
0E00
0E00
0E00
0E00
0E00
0E00
0E00
0000
38C0
7FC0
FF80
C700
ENDCHAR
STARTCHAR uni1E2E
ENCODING 7726
SWIDTH 278 0
DWIDTH 9 0
BBX 9 36 0 0
BITMAP
0780
0F00
0E00
1C00
3800
0000
E380
E380
E380
0000
0000
1C00
1C00
1C00
1C00
1C00
1C00
1C00
1C00
1C00
1C00
1C00
1C00
1C00
1C00
1C00
1C00
1C00
1C00
1C00
1C00
1C00
1C00
1C00
1C00
1C00
ENDCHAR
STARTCHAR uni1E2F
ENCODING 7727
SWIDTH 278 0
DWIDTH 9 0
BBX 8 29 1 0
BITMAP
0F
1E
1C
38
70
00
E7
E7
E7
00
00
38
38
38
38
38
38
38
38
38
38
38
38
38
38
38
38
38
38
ENDCHAR
STARTCHAR uni1E30
ENCODING 7728
SWIDTH 667 0
DWIDTH 22 0
BBX 20 31 3 0
BITMAP
007800
00F000
00E000
01C000
038000
000000
E003C0
E00780
E00F00
E01E00
E03C00
E07800
E0F000
E1E000
E3C000
E7C000
EF8000
FFC000
FFC000
F9E000
F0F000
E07000
E07800
E03C00
E01C00
E01E00
E00F00
E00780
E003C0
E003E0
E001F0
ENDCHAR
STARTCHAR uni1E31
ENCODING 7729
SWIDTH 500 0
DWIDTH 16 0
BBX 15 31 1 0
BITMAP
0F00
1E00
1C00
3800
7000
0000
E000
E000
E000
E000
E000
E000
E000
E078
E0F0
E1E0
E3C0
E780
EF00
FF00
FF00
FB80
F3C0
E1C0
E1E0
E0E0
E0F0
E078
E038
E03C
E01E
ENDCHAR
STARTCHAR uni1E32
ENCODING 7730
SWIDTH 667 0
DWIDTH 22 0
BBX 20 29 3 -4
BITMAP
E003C0
E00780
E00F00
E01E00
E03C00
E07800
E0F000
E1E000
E3C000
E7C000
EF8000
FFC000
FFC000
F9E000
F0F000
E07000
E07800
E03C00
E01C00
E01E00
E00F00
E00780
E003C0
E003E0
E001F0
000000
00E000
00E000
00E000
ENDCHAR
STARTCHAR uni1E33
ENCODING 7731
SWIDTH 500 0
DWIDTH 16 0
BBX 15 29 1 -4
BITMAP
E000
E000
E000
E000
E000
E000
E000
E078
E0F0
E1E0
E3C0
E780
EF00
FF00
FF00
FB80
F3C0
E1C0
E1E0
E0E0
E0F0
E078
E038
E03C
E01E
0000
0700
0700
0700
ENDCHAR
STARTCHAR uni1E34
ENCODING 7732
SWIDTH 667 0
DWIDTH 22 0
BBX 20 28 3 -3
BITMAP
E003C0
E00780
E00F00
E01E00
E03C00
E07800
E0F000
E1E000
E3C000
E7C000
EF8000
FFC000
FFC000
F9E000
F0F000
E07000
E07800
E03C00
E01C00
E01E00
E00F00
E00780
E003C0
E003E0
E001F0
000000
07FC00
07FC00
ENDCHAR
STARTCHAR uni1E35
ENCODING 7733
SWIDTH 500 0
DWIDTH 16 0
BBX 15 28 1 -3
BITMAP
E000
E000
E000
E000
E000
E000
E000
E078
E0F0
E1E0
E3C0
E780
EF00
FF00
FF00
FB80
F3C0
E1C0
E1E0
E0E0
E0F0
E078
E038
E03C
E01E
0000
3FE0
3FE0
ENDCHAR
STARTCHAR uni1E36
ENCODING 7734
SWIDTH 556 0
DWIDTH 18 0
BBX 14 29 3 -4
BITMAP
E000
E000
E000
E000
E000
E000
E000
E000
E000
E000
E000
E000
E000
E000
E000
E000
E000
E000
E000
E000
E000
E000
FFFC
FFFC
FFFC
0000
0700
0700
0700
ENDCHAR
STARTCHAR uni1E37
ENCODING 7735
SWIDTH 222 0
DWIDTH 7 0
BBX 3 29 2 -4
BITMAP
E0
E0
E0
E0
E0
E0
E0
E0
E0
E0
E0
E0
E0
E0
E0
E0
E0
E0
E0
E0
E0
E0
E0
E0
E0
00
E0
E0
E0
ENDCHAR
STARTCHAR uni1E38
ENCODING 7736
SWIDTH 556 0
DWIDTH 18 0
BBX 15 32 2 -4
BITMAP
FF80
FF80
0000
7000
7000
7000
7000
7000
7000
7000
7000
7000
7000
7000
7000
7000
7000
7000
7000
7000
7000
7000
7000
7000
7000
7FFE
7FFE
7FFE
0000
0380
0380
0380
ENDCHAR
STARTCHAR uni1E39
ENCODING 7737
SWIDTH 222 0
DWIDTH 7 0
BBX 9 32 -1 -4
BITMAP
FF80
FF80
0000
1C00
1C00
1C00
1C00
1C00
1C00
1C00
1C00
1C00
1C00
1C00
1C00
1C00
1C00
1C00
1C00
1C00
1C00
1C00
1C00
1C00
1C00
1C00
1C00
1C00
0000
1C00
1C00
1C00
ENDCHAR
STARTCHAR uni1E3A
ENCODING 7738
SWIDTH 556 0
DWIDTH 18 0
BBX 14 28 3 -3
BITMAP
E000
E000
E000
E000
E000
E000
E000
E000
E000
E000
E000
E000
E000
E000
E000
E000
E000
E000
E000
E000
E000
E000
FFFC
FFFC
FFFC
0000
3FE0
3FE0
ENDCHAR
STARTCHAR uni1E3B
ENCODING 7739
SWIDTH 222 0
DWIDTH 7 0
BBX 9 28 -1 -3
BITMAP
1C00
1C00
1C00
1C00
1C00
1C00
1C00
1C00
1C00
1C00
1C00
1C00
1C00
1C00
1C00
1C00
1C00
1C00
1C00
1C00
1C00
1C00
1C00
1C00
1C00
0000
FF80
FF80
ENDCHAR
STARTCHAR uni1E3C
ENCODING 7740
SWIDTH 556 0
DWIDTH 18 0
BBX 14 31 3 -6
BITMAP
E000
E000
E000
E000
E000
E000
E000
E000
E000
E000
E000
E000
E000
E000
E000
E000
E000
E000
E000
E000
E000
E000
FFFC
FFFC
FFFC
0000
0200
0700
0F80
1DC0
38E0
ENDCHAR
STARTCHAR uni1E3D
ENCODING 7741
SWIDTH 222 0
DWIDTH 7 0
BBX 9 31 -1 -6
BITMAP
1C00
1C00
1C00
1C00
1C00
1C00
1C00
1C00
1C00
1C00
1C00
1C00
1C00
1C00
1C00
1C00
1C00
1C00
1C00
1C00
1C00
1C00
1C00
1C00
1C00
0000
0800
1C00
3E00
7700
E380
ENDCHAR
STARTCHAR uni1E3E
ENCODING 7742
SWIDTH 833 0
DWIDTH 27 0
BBX 21 31 3 0
BITMAP
001E00
003C00
003800
007000
00E000
000000
F00078
F00078
F800F8
F800F8
FC01F8
FC01F8
FC01F8
EC01B8
EE03B8
EE03B8
E60338
E70738
E70738
E30638
E38E38
E38E38
E38E38
E18C38
E1DC38
E1DC38
E0D838
E0F838
E0F838
E07038
E07038
ENDCHAR
STARTCHAR uni1E3F
ENCODING 7743
SWIDTH 833 0
DWIDTH 27 0
BBX 23 24 2 0
BITMAP
000F00
001E00
001C00
003800
007000
000000
E3C0F0
EFF3FC
FFF7FC
F87E1E
F03C0E
E0380E
E0380E
E0380E
E0380E
E0380E
E0380E
E0380E
E0380E
E0380E
E0380E
E0380E
E0380E
E0380E
ENDCHAR
STARTCHAR uni1E40
ENCODING 7744
SWIDTH 833 0
DWIDTH 27 0
BBX 21 29 3 0
BITMAP
007000
007000
007000
000000
F00078
F00078
F800F8
F800F8
FC01F8
FC01F8
FC01F8
EC01B8
EE03B8
EE03B8
E60338
E70738
E70738
E30638
E38E38
E38E38
E38E38
E18C38
E1DC38
E1DC38
E0D838
E0F838
E0F838
E07038
E07038
ENDCHAR
STARTCHAR uni1E41
ENCODING 7745
SWIDTH 833 0
DWIDTH 27 0
BBX 23 22 2 0
BITMAP
003800
003800
003800
000000
E3C0F0
EFF3FC
FFF7FC
F87E1E
F03C0E
E0380E
E0380E
E0380E
E0380E
E0380E
E0380E
E0380E
E0380E
E0380E
E0380E
E0380E
E0380E
E0380E
ENDCHAR
STARTCHAR uni1E42
ENCODING 7746
SWIDTH 833 0
DWIDTH 27 0
BBX 21 29 3 -4
BITMAP
F00078
F00078
F800F8
F800F8
FC01F8
FC01F8
FC01F8
EC01B8
EE03B8
EE03B8
E60338
E70738
E70738
E30638
E38E38
E38E38
E38E38
E18C38
E1DC38
E1DC38
E0D838
E0F838
E0F838
E07038
E07038
000000
007000
007000
007000
ENDCHAR
STARTCHAR uni1E43
ENCODING 7747
SWIDTH 833 0
DWIDTH 27 0
BBX 23 22 2 -4
BITMAP
E3C0F0
EFF3FC
FFF7FC
F87E1E
F03C0E
E0380E
E0380E
E0380E
E0380E
E0380E
E0380E
E0380E
E0380E
E0380E
E0380E
E0380E
E0380E
E0380E
000000
003800
003800
003800
ENDCHAR
STARTCHAR uni1E44
ENCODING 7748
SWIDTH 722 0
DWIDTH 24 0
BBX 19 29 2 0
BITMAP
01C000
01C000
01C000
000000
F000E0
F000E0
F800E0
FC00E0
FC00E0
FE00E0
EF00E0
E700E0
E780E0
E3C0E0
E3C0E0
E1E0E0
E0E0E0
E0F0E0
E078E0
E038E0
E03CE0
E01CE0
E01EE0
E00FE0
E007E0
E007E0
E003E0
E001E0
E001E0
ENDCHAR
STARTCHAR uni1E45
ENCODING 7749
SWIDTH 556 0
DWIDTH 18 0
BBX 14 22 2 0
BITMAP
0700
0700
0700
0000
E3E0
EFF8
FFF8
F83C
F01C
E01C
E01C
E01C
E01C
E01C
E01C
E01C
E01C
E01C
E01C
E01C
E01C
E01C
ENDCHAR
STARTCHAR uni1E46
ENCODING 7750
SWIDTH 722 0
DWIDTH 24 0
BBX 19 29 2 -4
BITMAP
F000E0
F000E0
F800E0
FC00E0
FC00E0
FE00E0
EF00E0
E700E0
E780E0
E3C0E0
E3C0E0
E1E0E0
E0E0E0
E0F0E0
E078E0
E038E0
E03CE0
E01CE0
E01EE0
E00FE0
E007E0
E007E0
E003E0
E001E0
E001E0
000000
007000
007000
007000
ENDCHAR
STARTCHAR uni1E47
ENCODING 7751
SWIDTH 556 0
DWIDTH 18 0
BBX 14 22 2 -4
BITMAP
E3E0
EFF8
FFF8
F83C
F01C
E01C
E01C
E01C
E01C
E01C
E01C
E01C
E01C
E01C
E01C
E01C
E01C
E01C
0000
0380
0380
0380
ENDCHAR
STARTCHAR uni1E48
ENCODING 7752
SWIDTH 722 0
DWIDTH 24 0
BBX 19 28 2 -3
BITMAP
F000E0
F000E0
F800E0
FC00E0
FC00E0
FE00E0
EF00E0
E700E0
E780E0
E3C0E0
E3C0E0
E1E0E0
E0E0E0
E0F0E0
E078E0
E038E0
E03CE0
E01CE0
E01EE0
E00FE0
E007E0
E007E0
E003E0
E001E0
E001E0
000000
03FE00
03FE00
ENDCHAR
STARTCHAR uni1E49
ENCODING 7753
SWIDTH 556 0
DWIDTH 18 0
BBX 14 21 2 -3
BITMAP
E3E0
EFF8
FFF8
F83C
F01C
E01C
E01C
E01C
E01C
E01C
E01C
E01C
E01C
E01C
E01C
E01C
E01C
E01C
0000
1FF0
1FF0
ENDCHAR
STARTCHAR uni1E4A
ENCODING 7754
SWIDTH 722 0
DWIDTH 24 0
BBX 19 31 2 -6
BITMAP
F000E0
F000E0
F800E0
FC00E0
FC00E0
FE00E0
EF00E0
E700E0
E780E0
E3C0E0
E3C0E0
E1E0E0
E0E0E0
E0F0E0
E078E0
E038E0
E03CE0
E01CE0
E01EE0
E00FE0
E007E0
E007E0
E003E0
E001E0
E001E0
000000
002000
007000
00F800
01DC00
038E00
ENDCHAR
STARTCHAR uni1E4B
ENCODING 7755
SWIDTH 556 0
DWIDTH 18 0
BBX 14 24 2 -6
BITMAP
E3E0
EFF8
FFF8
F83C
F01C
E01C
E01C
E01C
E01C
E01C
E01C
E01C
E01C
E01C
E01C
E01C
E01C
E01C
0000
0100
0380
07C0
0EE0
1C70
ENDCHAR
STARTCHAR uni1E4C
ENCODING 7756
SWIDTH 778 0
DWIDTH 25 0
BBX 23 36 1 0
BITMAP
000F00
001E00
001C00
003800
007000
000000
007180
00FF80
01FF00
018E00
000000
00FE00
03FF80
0FFFE0
1F01F0
3E00F8
3C0078
78003C
70001C
70001C
F0001E
E0000E
E0000E
E0000E
E0000E
E0000E
F0001E
F0001E
70001C
78003C
3C0078
3E00F8
1F01F0
0FFFE0
03FF80
00FE00
ENDCHAR
STARTCHAR uni1E4D
ENCODING 7757
SWIDTH 556 0
DWIDTH 19 0
BBX 15 30 1 0
BITMAP
00F0
01E0
01C0
0380
0700
0000
0E30
1FF0
3FE0
31C0
0000
0000
07C0
1FF0
3FF8
783C
701C
701C
E00E
E00E
E00E
E00E
E00E
E00E
701C
701C
783C
3FF8
1FF0
07C0
ENDCHAR
STARTCHAR uni1E4E
ENCODING 7758
SWIDTH 778 0
DWIDTH 25 0
BBX 23 34 1 0
BITMAP
00E700
00E700
00E700
000000
007180
00FF80
01FF00
018E00
000000
00FE00
03FF80
0FFFE0
1F01F0
3E00F8
3C0078
78003C
70001C
70001C
F0001E
E0000E
E0000E
E0000E
E0000E
E0000E
F0001E
F0001E
70001C
78003C
3C0078
3E00F8
1F01F0
0FFFE0
03FF80
00FE00
ENDCHAR
STARTCHAR uni1E4F
ENCODING 7759
SWIDTH 556 0
DWIDTH 19 0
BBX 15 28 1 0
BITMAP
1CE0
1CE0
1CE0
0000
0E30
1FF0
3FE0
31C0
0000
0000
07C0
1FF0
3FF8
783C
701C
701C
E00E
E00E
E00E
E00E
E00E
E00E
701C
701C
783C
3FF8
1FF0
07C0
ENDCHAR
STARTCHAR uni1E50
ENCODING 7760
SWIDTH 778 0
DWIDTH 25 0
BBX 23 34 1 0
BITMAP
00E000
00F000
007000
003800
001C00
000000
01FF00
01FF00
000000
00FE00
03FF80
0FEFE0
1F01F0
3E00F8
3C0078
78003C
70001C
F0001E
E0000E
E0000E
E0000E
E0000E
E0000E
E0000E
E0000E
F0001E
F0001E
78003C
3C0078
3E00F8
1F01F0
0FEFE0
03FF80
00FE00
ENDCHAR
STARTCHAR uni1E51
ENCODING 7761
SWIDTH 556 0
DWIDTH 18 0
BBX 15 27 1 0
BITMAP
0E00
0F00
0700
0380
01C0
0000
1FF0
1FF0
0000
07C0
1FF0
3FF8
783C
701C
F01E
E00E
E00E
E00E
E00E
E00E
E00E
F01E
701C
783C
3FF8
1FF0
07C0
ENDCHAR
STARTCHAR uni1E52
ENCODING 7762
SWIDTH 778 0
DWIDTH 25 0
BBX 23 34 1 0
BITMAP
000F00
001E00
001C00
003800
007000
000000
01FF00
01FF00
000000
00FE00
03FF80
0FEFE0
1F01F0
3E00F8
3C0078
78003C
70001C
F0001E
E0000E
E0000E
E0000E
E0000E
E0000E
E0000E
E0000E
F0001E
F0001E
78003C
3C0078
3E00F8
1F01F0
0FEFE0
03FF80
00FE00
ENDCHAR
STARTCHAR uni1E53
ENCODING 7763
SWIDTH 556 0
DWIDTH 18 0
BBX 15 27 1 0
BITMAP
00F0
01E0
01C0
0380
0700
0000
1FF0
1FF0
0000
07C0
1FF0
3FF8
783C
701C
F01E
E00E
E00E
E00E
E00E
E00E
E00E
F01E
701C
783C
3FF8
1FF0
07C0
ENDCHAR
STARTCHAR uni1E54
ENCODING 7764
SWIDTH 667 0
DWIDTH 22 0
BBX 17 31 3 0
BITMAP
007800
00F000
00E000
01C000
038000
000000
FFF800
FFFE00
FFFF00
E00F00
E00780
E00380
E00380
E00380
E00380
E00380
E00780
E00F00
FFFF00
FFFE00
FFF800
E00000
E00000
E00000
E00000
E00000
E00000
E00000
E00000
E00000
E00000
ENDCHAR
STARTCHAR uni1E55
ENCODING 7765
SWIDTH 556 0
DWIDTH 18 0
BBX 15 31 2 -7
BITMAP
00F0
01E0
01C0
0380
0700
0000
03C0
EFF0
FFF8
F83C
F01C
F01E
E00E
E00E
E00E
E00E
E00E
E00E
F01E
F01C
F83C
FFF8
EFF0
E7E0
E000
E000
E000
E000
E000
E000
E000
ENDCHAR
STARTCHAR uni1E56
ENCODING 7766
SWIDTH 667 0
DWIDTH 22 0
BBX 17 29 3 0
BITMAP
01C000
01C000
01C000
000000
FFF800
FFFE00
FFFF00
E00F00
E00780
E00380
E00380
E00380
E00380
E00380
E00780
E00F00
FFFF00
FFFE00
FFF800
E00000
E00000
E00000
E00000
E00000
E00000
E00000
E00000
E00000
E00000
ENDCHAR
STARTCHAR uni1E57
ENCODING 7767
SWIDTH 556 0
DWIDTH 18 0
BBX 15 29 2 -7
BITMAP
0380
0380
0380
0000
03C0
EFF0
FFF8
F83C
F01C
F01E
E00E
E00E
E00E
E00E
E00E
E00E
F01E
F01C
F83C
FFF8
EFF0
E7E0
E000
E000
E000
E000
E000
E000
E000
ENDCHAR
STARTCHAR uni1E58
ENCODING 7768
SWIDTH 722 0
DWIDTH 24 0
BBX 19 29 3 0
BITMAP
01C000
01C000
01C000
000000
FFFC00
FFFF00
FFFF80
E00780
E003C0
E001C0
E001C0
E001C0
E001C0
E003C0
E00380
E00F80
FFFF00
FFFE00
FFFF00
E00F80
E00780
E00380
E003C0
E003C0
E003C0
E001C0
E001C0
E001C0
E001E0
ENDCHAR
STARTCHAR uni1E59
ENCODING 7769
SWIDTH 333 0
DWIDTH 11 0
BBX 8 22 2 0
BITMAP
38
38
38
00
E7
EF
FF
FC
F0
F0
E0
E0
E0
E0
E0
E0
E0
E0
E0
E0
E0
E0
ENDCHAR
STARTCHAR uni1E5A
ENCODING 7770
SWIDTH 722 0
DWIDTH 24 0
BBX 19 29 3 -4
BITMAP
FFFC00
FFFF00
FFFF80
E00780
E003C0
E001C0
E001C0
E001C0
E001C0
E003C0
E00380
E00F80
FFFF00
FFFE00
FFFF00
E00F80
E00780
E00380
E003C0
E003C0
E003C0
E001C0
E001C0
E001C0
E001E0
000000
00E000
00E000
00E000
ENDCHAR
STARTCHAR uni1E5B
ENCODING 7771
SWIDTH 333 0
DWIDTH 11 0
BBX 8 22 2 -4
BITMAP
E7
EF
FF
FC
F0
F0
E0
E0
E0
E0
E0
E0
E0
E0
E0
E0
E0
E0
00
70
70
70
ENDCHAR
STARTCHAR uni1E5C
ENCODING 7772
SWIDTH 722 0
DWIDTH 24 0
BBX 19 32 3 -4
BITMAP
0FF800
0FF800
000000
FFFC00
FFFF00
FFFF80
E00780
E003C0
E001C0
E001C0
E001C0
E001C0
E003C0
E00380
E00F80
FFFF00
FFFE00
FFFF00
E00F80
E00780
E00380
E003C0
E003C0
E003C0
E001C0
E001C0
E001C0
E001E0
000000
00E000
00E000
00E000
ENDCHAR
STARTCHAR uni1E5D
ENCODING 7773
SWIDTH 333 0
DWIDTH 11 0
BBX 9 25 1 -4
BITMAP
FF80
FF80
0000
7380
7780
7F80
7E00
7800
7800
7000
7000
7000
7000
7000
7000
7000
7000
7000
7000
7000
7000
0000
3800
3800
3800
ENDCHAR
STARTCHAR uni1E5E
ENCODING 7774
SWIDTH 722 0
DWIDTH 24 0
BBX 19 28 3 -3
BITMAP
FFFC00
FFFF00
FFFF80
E00780
E003C0
E001C0
E001C0
E001C0
E001C0
E003C0
E00380
E00F80
FFFF00
FFFE00
FFFF00
E00F80
E00780
E00380
E003C0
E003C0
E003C0
E001C0
E001C0
E001C0
E001E0
000000
07FC00
07FC00
ENDCHAR
STARTCHAR uni1E5F
ENCODING 7775
SWIDTH 333 0
DWIDTH 11 0
BBX 10 21 0 -3
BITMAP
39C0
3BC0
3FC0
3F00
3C00
3C00
3800
3800
3800
3800
3800
3800
3800
3800
3800
3800
3800
3800
0000
FF80
FF80
ENDCHAR
STARTCHAR uni1E60
ENCODING 7776
SWIDTH 667 0
DWIDTH 22 0
BBX 19 29 1 0
BITMAP
00E000
00E000
00E000
000000
03F800
0FFE00
1FFF00
3C0F80
3803C0
7001C0
7001C0
700000
780000
7C0000
3FC000
1FF800
07FF00
007F80
000FC0
0001E0
0000E0
E000E0
F000E0
7001E0
7801C0
3E07C0
3FFF80
0FFE00
03F800
ENDCHAR
STARTCHAR uni1E61
ENCODING 7777
SWIDTH 500 0
DWIDTH 16 0
BBX 13 22 2 0
BITMAP
0700
0700
0700
0000
0F80
3FE0
7FE0
70F0
E070
E000
7000
7E00
3FC0
07F0
00F0
0078
E038
E038
F070
7FF0
7FE0
1F80
ENDCHAR
STARTCHAR uni1E62
ENCODING 7778
SWIDTH 667 0
DWIDTH 22 0
BBX 19 29 1 -4
BITMAP
03F800
0FFE00
1FFF00
3C0F80
3803C0
7001C0
7001C0
700000
780000
7C0000
3FC000
1FF800
07FF00
007F80
000FC0
0001E0
0000E0
E000E0
F000E0
7001E0
7801C0
3E07C0
3FFF80
0FFE00
03F800
000000
00E000
00E000
00E000
ENDCHAR
STARTCHAR uni1E63
ENCODING 7779
SWIDTH 500 0
DWIDTH 16 0
BBX 13 22 2 -4
BITMAP
0F80
3FE0
7FE0
70F0
E070
E000
7000
7E00
3FC0
07F0
00F0
0078
E038
E038
F070
7FF0
7FE0
1F80
0000
0700
0700
0700
ENDCHAR
STARTCHAR uni1E64
ENCODING 7780
SWIDTH 667 0
DWIDTH 22 0
BBX 19 35 1 0
BITMAP
00E000
00E000
00E000
000000
003C00
007800
007000
00E000
01C000
000000
03F800
0FFE00
1FFF00
3C0F80
3803C0
7001C0
7001C0
700000
780000
7C0000
3FC000
1FF800
07FF00
007F80
000FC0
0001E0
0000E0
E000E0
F000E0
7001E0
7801C0
3E07C0
3FFF80
0FFE00
03F800
ENDCHAR
STARTCHAR uni1E65
ENCODING 7781
SWIDTH 500 0
DWIDTH 16 0
BBX 13 28 2 0
BITMAP
0700
0700
0700
0000
01E0
03C0
0380
0700
0E00
0000
0F80
3FE0
7FE0
70F0
E070
E000
7000
7E00
3FC0
07F0
00F0
0078
E038
E038
F070
7FF0
7FE0
1F80
ENDCHAR
STARTCHAR uni1E66
ENCODING 7782
SWIDTH 667 0
DWIDTH 21 0
BBX 19 31 1 0
BITMAP
00E000
00E000
00E000
000000
071C00
03B800
01F000
00E000
004000
000000
000000
01F800
0FFE00
1FFF00
3C0F80
3803C0
7001C0
7801C0
7F0000
3FFE00
0FFF80
00FFC0
0001E0
E000E0
E000E0
7001E0
7801C0
3E07C0
3FFF80
0FFE00
03F800
ENDCHAR
STARTCHAR uni1E67
ENCODING 7783
SWIDTH 500 0
DWIDTH 17 0
BBX 14 29 1 0
BITMAP
0700
0700
0700
0000
38E0
1DC0
0F80
0700
0200
0000
0000
0F80
3FE0
7FF0
7078
E038
E000
E000
7C00
7FC0
1FF0
01F8
003C
C01C
E01C
E018
F878
7FF0
3FE0
ENDCHAR
STARTCHAR uni1E68
ENCODING 7784
SWIDTH 667 0
DWIDTH 22 0
BBX 19 33 1 -4
BITMAP
00E000
00E000
00E000
000000
03F800
0FFE00
1FFF00
3C0F80
3803C0
7001C0
7001C0
700000
780000
7C0000
3FC000
1FF800
07FF00
007F80
000FC0
0001E0
0000E0
E000E0
F000E0
7001E0
7801C0
3E07C0
3FFF80
0FFE00
03F800
000000
00E000
00E000
00E000
ENDCHAR
STARTCHAR uni1E69
ENCODING 7785
SWIDTH 500 0
DWIDTH 16 0
BBX 13 26 2 -4
BITMAP
0700
0700
0700
0000
0F80
3FE0
7FE0
70F0
E070
E000
7000
7E00
3FC0
07F0
00F0
0078
E038
E038
F070
7FF0
7FE0
1F80
0000
0700
0700
0700
ENDCHAR
STARTCHAR uni1E6A
ENCODING 7786
SWIDTH 611 0
DWIDTH 20 0
BBX 19 29 0 0
BITMAP
00E000
00E000
00E000
000000
FFFFE0
FFFFE0
FFFFE0
00E000
00E000
00E000
00E000
00E000
00E000
00E000
00E000
00E000
00E000
00E000
00E000
00E000
00E000
00E000
00E000
00E000
00E000
00E000
00E000
00E000
00E000
ENDCHAR
STARTCHAR uni1E6B
ENCODING 7787
SWIDTH 278 0
DWIDTH 9 0
BBX 8 26 1 0
BITMAP
38
38
38
00
38
38
38
38
FF
FF
FF
38
38
38
38
38
38
38
38
38
38
38
38
3C
3F
1F
ENDCHAR
STARTCHAR uni1E6C
ENCODING 7788
SWIDTH 611 0
DWIDTH 20 0
BBX 19 29 0 -4
BITMAP
FFFFE0
FFFFE0
FFFFE0
00E000
00E000
00E000
00E000
00E000
00E000
00E000
00E000
00E000
00E000
00E000
00E000
00E000
00E000
00E000
00E000
00E000
00E000
00E000
00E000
00E000
00E000
000000
00E000
00E000
00E000
ENDCHAR
STARTCHAR uni1E6D
ENCODING 7789
SWIDTH 278 0
DWIDTH 9 0
BBX 8 26 1 -4
BITMAP
38
38
38
38
FF
FF
FF
38
38
38
38
38
38
38
38
38
38
38
38
3C
3F
1F
00
1C
1C
1C
ENDCHAR
STARTCHAR uni1E6E
ENCODING 7790
SWIDTH 611 0
DWIDTH 20 0
BBX 19 28 0 -3
BITMAP
FFFFE0
FFFFE0
FFFFE0
00E000
00E000
00E000
00E000
00E000
00E000
00E000
00E000
00E000
00E000
00E000
00E000
00E000
00E000
00E000
00E000
00E000
00E000
00E000
00E000
00E000
00E000
000000
07FC00
07FC00
ENDCHAR
STARTCHAR uni1E6F
ENCODING 7791
SWIDTH 278 0
DWIDTH 9 0
BBX 9 25 1 -3
BITMAP
3800
3800
3800
3800
FF00
FF00
FF00
3800
3800
3800
3800
3800
3800
3800
3800
3800
3800
3800
3800
3C00
3F00
1F00
0000
FF80
FF80
ENDCHAR
STARTCHAR uni1E70
ENCODING 7792
SWIDTH 611 0
DWIDTH 20 0
BBX 19 31 0 -6
BITMAP
FFFFE0
FFFFE0
FFFFE0
00E000
00E000
00E000
00E000
00E000
00E000
00E000
00E000
00E000
00E000
00E000
00E000
00E000
00E000
00E000
00E000
00E000
00E000
00E000
00E000
00E000
00E000
000000
004000
00E000
01F000
03B800
071C00
ENDCHAR
STARTCHAR uni1E71
ENCODING 7793
SWIDTH 278 0
DWIDTH 9 0
BBX 9 28 1 -6
BITMAP
3800
3800
3800
3800
FF00
FF00
FF00
3800
3800
3800
3800
3800
3800
3800
3800
3800
3800
3800
3800
3C00
3F00
1F00
0000
0800
1C00
3E00
7700
E380
ENDCHAR
STARTCHAR uni1E72
ENCODING 7794
SWIDTH 722 0
DWIDTH 24 0
BBX 18 29 3 -4
BITMAP
E001C0
E001C0
E001C0
E001C0
E001C0
E001C0
E001C0
E001C0
E001C0
E001C0
E001C0
E001C0
E001C0
E001C0
E001C0
E001C0
E001C0
E001C0
E001C0
F003C0
780780
7C0F80
3FFF00
1FFE00
03F000
000000
073800
073800
073800
ENDCHAR
STARTCHAR uni1E73
ENCODING 7795
SWIDTH 556 0
DWIDTH 18 0
BBX 14 22 2 -4
BITMAP
E01C
E01C
E01C
E01C
E01C
E01C
E01C
E01C
E01C
E01C
E01C
E01C
E01C
E03C
F07C
7FFC
7FDC
1F1C
0000
1CE0
1CE0
1CE0
ENDCHAR
STARTCHAR uni1E74
ENCODING 7796
SWIDTH 722 0
DWIDTH 24 0
BBX 18 30 3 -5
BITMAP
E001C0
E001C0
E001C0
E001C0
E001C0
E001C0
E001C0
E001C0
E001C0
E001C0
E001C0
E001C0
E001C0
E001C0
E001C0
E001C0
E001C0
E001C0
E001C0
F003C0
780780
7C0F80
3FFF00
1FFE00
03F000
000000
038C00
07FC00
0FF800
0C7000
ENDCHAR
STARTCHAR uni1E75
ENCODING 7797
SWIDTH 556 0
DWIDTH 18 0
BBX 14 23 2 -5
BITMAP
E01C
E01C
E01C
E01C
E01C
E01C
E01C
E01C
E01C
E01C
E01C
E01C
E01C
E03C
F07C
7FFC
7FDC
1F1C
0000
0E30
1FF0
3FE0
31C0
ENDCHAR
STARTCHAR uni1E76
ENCODING 7798
SWIDTH 722 0
DWIDTH 24 0
BBX 18 31 3 -6
BITMAP
E001C0
E001C0
E001C0
E001C0
E001C0
E001C0
E001C0
E001C0
E001C0
E001C0
E001C0
E001C0
E001C0
E001C0
E001C0
E001C0
E001C0
E001C0
E001C0
F003C0
780780
7C0F80
3FFF00
1FFE00
03F000
000000
004000
00E000
01F000
03B800
071C00
ENDCHAR
STARTCHAR uni1E77
ENCODING 7799
SWIDTH 556 0
DWIDTH 18 0
BBX 14 24 2 -6
BITMAP
E01C
E01C
E01C
E01C
E01C
E01C
E01C
E01C
E01C
E01C
E01C
E01C
E01C
E03C
F07C
7FFC
7FDC
1F1C
0000
0100
0380
07C0
0EE0
1C70
ENDCHAR
STARTCHAR uni1E78
ENCODING 7800
SWIDTH 722 0
DWIDTH 24 0
BBX 18 36 3 0
BITMAP
003C00
007800
007000
00E000
01C000
000000
038C00
07FC00
0FF800
0C7000
000000
E001C0
E001C0
E001C0
E001C0
E001C0
E001C0
E001C0
E001C0
E001C0
E001C0
E001C0
E001C0
E001C0
E001C0
E001C0
E001C0
E001C0
E001C0
E001C0
F003C0
780780
7C0F80
3FFF00
1FFE00
03F000
ENDCHAR
STARTCHAR uni1E79
ENCODING 7801
SWIDTH 556 0
DWIDTH 18 0
BBX 14 29 2 0
BITMAP
00F0
01E0
01C0
0380
0700
0000
0E30
1FF0
3FE0
31C0
0000
E01C
E01C
E01C
E01C
E01C
E01C
E01C
E01C
E01C
E01C
E01C
E01C
E01C
E03C
F07C
7FFC
7FDC
1F1C
ENDCHAR
STARTCHAR uni1E7A
ENCODING 7802
SWIDTH 722 0
DWIDTH 24 0
BBX 18 32 3 0
BITMAP
073800
073800
073800
000000
07FC00
07FC00
000000
E001C0
E001C0
E001C0
E001C0
E001C0
E001C0
E001C0
E001C0
E001C0
E001C0
E001C0
E001C0
E001C0
E001C0
E001C0
E001C0
E001C0
E001C0
E001C0
F003C0
780780
7C0F80
3FFF00
1FFE00
03F000
ENDCHAR
STARTCHAR uni1E7B
ENCODING 7803
SWIDTH 556 0
DWIDTH 18 0
BBX 14 25 2 0
BITMAP
1CE0
1CE0
1CE0
0000
1FF0
1FF0
0000
E01C
E01C
E01C
E01C
E01C
E01C
E01C
E01C
E01C
E01C
E01C
E01C
E01C
E03C
F07C
7FFC
7FDC
1F1C
ENDCHAR
STARTCHAR uni1E7C
ENCODING 7804
SWIDTH 667 0
DWIDTH 22 0
BBX 19 30 1 0
BITMAP
01C600
03FE00
07FC00
063800
000000
F001E0
F001E0
F001E0
7001C0
7803C0
7803C0
380380
380380
3C0780
1C0700
1C0700
1E0F00
0E0E00
0E0E00
0F0E00
071C00
071C00
079C00
03B800
03B800
03B800
01F000
01F000
00E000
00E000
ENDCHAR
STARTCHAR uni1E7D
ENCODING 7805
SWIDTH 500 0
DWIDTH 16 0
BBX 15 23 0 0
BITMAP
0718
0FF8
1FF0
18E0
0000
E00E
E00E
701C
701C
701C
3838
3838
3838
1C70
1C70
1C70
0EE0
0EE0
0EE0
07C0
07C0
0380
0380
ENDCHAR
STARTCHAR uni1E7E
ENCODING 7806
SWIDTH 667 0
DWIDTH 22 0
BBX 19 29 1 -4
BITMAP
F001E0
F001E0
F001E0
7001C0
7803C0
7803C0
380380
380380
3C0780
1C0700
1C0700
1E0F00
0E0E00
0E0E00
0F0E00
071C00
071C00
079C00
03B800
03B800
03B800
01F000
01F000
00E000
00E000
000000
00E000
00E000
00E000
ENDCHAR
STARTCHAR uni1E7F
ENCODING 7807
SWIDTH 500 0
DWIDTH 16 0
BBX 15 22 0 -4
BITMAP
E00E
E00E
701C
701C
701C
3838
3838
3838
1C70
1C70
1C70
0EE0
0EE0
0EE0
07C0
07C0
0380
0380
0000
0380
0380
0380
ENDCHAR
STARTCHAR Wgrave
ENCODING 7808
SWIDTH 944 0
DWIDTH 31 0
BBX 29 31 1 0
BITMAP
001C0000
001E0000
000E0000
00070000
00038000
00000000
F0070078
F0070078
F00F8078
700F8070
700F8070
781DC0F0
781DC0F0
381DC0E0
381DC0E0
3838E0E0
3C38E1E0
1C38E1C0
1C30E1C0
1C7071C0
1C7071C0
0E707380
0EE03B80
0EE03B80
0EE03B80
07E03F80
07C01F00
07C01F00
07C01F00
03800E00
03800E00
ENDCHAR
STARTCHAR wgrave
ENCODING 7809
SWIDTH 722 0
DWIDTH 23 0
BBX 23 24 0 0
BITMAP
00E000
00F000
007000
003800
001C00
000000
E0380E
E0380E
707C1C
707C1C
706C1C
38EE1C
38EE38
38EE38
38C638
18C630
1DC770
1DC770
1DC770
0D8360
0F83E0
0F83E0
0701C0
0701C0
ENDCHAR
STARTCHAR Wacute
ENCODING 7810
SWIDTH 944 0
DWIDTH 31 0
BBX 29 31 1 0
BITMAP
0001E000
0003C000
00038000
00070000
000E0000
00000000
F0070078
F0070078
F00F8078
700F8070
700F8070
781DC0F0
781DC0F0
381DC0E0
381DC0E0
3838E0E0
3C38E1E0
1C38E1C0
1C30E1C0
1C7071C0
1C7071C0
0E707380
0EE03B80
0EE03B80
0EE03B80
07E03F80
07C01F00
07C01F00
07C01F00
03800E00
03800E00
ENDCHAR
STARTCHAR wacute
ENCODING 7811
SWIDTH 722 0
DWIDTH 23 0
BBX 23 24 0 0
BITMAP
000F00
001E00
001C00
003800
007000
000000
E0380E
E0380E
707C1C
707C1C
706C1C
38EE1C
38EE38
38EE38
38C638
18C630
1DC770
1DC770
1DC770
0D8360
0F83E0
0F83E0
0701C0
0701C0
ENDCHAR
STARTCHAR Wdieresis
ENCODING 7812
SWIDTH 944 0
DWIDTH 31 0
BBX 29 29 1 0
BITMAP
001CE000
001CE000
001CE000
00000000
F0070078
F0070078
F00F8078
700F8070
700F8070
781DC0F0
781DC0F0
381DC0E0
381DC0E0
3838E0E0
3C38E1E0
1C38E1C0
1C30E1C0
1C7071C0
1C7071C0
0E707380
0EE03B80
0EE03B80
0EE03B80
07E03F80
07C01F00
07C01F00
07C01F00
03800E00
03800E00
ENDCHAR
STARTCHAR wdieresis
ENCODING 7813
SWIDTH 722 0
DWIDTH 23 0
BBX 23 22 0 0
BITMAP
00E700
00E700
00E700
000000
E0380E
E0380E
707C1C
707C1C
706C1C
38EE1C
38EE38
38EE38
38C638
18C630
1DC770
1DC770
1DC770
0D8360
0F83E0
0F83E0
0701C0
0701C0
ENDCHAR
STARTCHAR uni1E86
ENCODING 7814
SWIDTH 944 0
DWIDTH 31 0
BBX 29 29 1 0
BITMAP
00070000
00070000
00070000
00000000
F0070078
F0070078
F00F8078
700F8070
700F8070
781DC0F0
781DC0F0
381DC0E0
381DC0E0
3838E0E0
3C38E1E0
1C38E1C0
1C30E1C0
1C7071C0
1C7071C0
0E707380
0EE03B80
0EE03B80
0EE03B80
07E03F80
07C01F00
07C01F00
07C01F00
03800E00
03800E00
ENDCHAR
STARTCHAR uni1E87
ENCODING 7815
SWIDTH 722 0
DWIDTH 23 0
BBX 23 22 0 0
BITMAP
003800
003800
003800
000000
E0380E
E0380E
707C1C
707C1C
706C1C
38EE1C
38EE38
38EE38
38C638
18C630
1DC770
1DC770
1DC770
0D8360
0F83E0
0F83E0
0701C0
0701C0
ENDCHAR
STARTCHAR uni1E88
ENCODING 7816
SWIDTH 944 0
DWIDTH 31 0
BBX 29 29 1 -4
BITMAP
F0070078
F0070078
F00F8078
700F8070
700F8070
781DC0F0
781DC0F0
381DC0E0
381DC0E0
3838E0E0
3C38E1E0
1C38E1C0
1C30E1C0
1C7071C0
1C7071C0
0E707380
0EE03B80
0EE03B80
0EE03B80
07E03F80
07C01F00
07C01F00
07C01F00
03800E00
03800E00
00000000
00070000
00070000
00070000
ENDCHAR
STARTCHAR uni1E89
ENCODING 7817
SWIDTH 722 0
DWIDTH 23 0
BBX 23 22 0 -4
BITMAP
E0380E
E0380E
707C1C
707C1C
706C1C
38EE1C
38EE38
38EE38
38C638
18C630
1DC770
1DC770
1DC770
0D8360
0F83E0
0F83E0
0701C0
0701C0
000000
003800
003800
003800
ENDCHAR
STARTCHAR uni1E8A
ENCODING 7818
SWIDTH 667 0
DWIDTH 22 0
BBX 20 29 1 0
BITMAP
00E000
00E000
00E000
000000
F800F0
7801E0
3C03C0
1C03C0
1E0780
0F0700
0F0F00
079E00
039C00
03FC00
01F800
00F000
00F000
01F800
01F800
039C00
079E00
070E00
0F0F00
1E0780
1E0780
3C03C0
7801E0
7801E0
F000F0
ENDCHAR
STARTCHAR uni1E8B
ENCODING 7819
SWIDTH 500 0
DWIDTH 16 0
BBX 15 22 0 0
BITMAP
0380
0380
0380
0000
F01E
781C
3838
3C70
1C70
0EE0
0FE0
07C0
0380
07C0
07C0
0FE0
1EE0
1C70
3878
3838
701C
F01E
ENDCHAR
STARTCHAR uni1E8C
ENCODING 7820
SWIDTH 667 0
DWIDTH 22 0
BBX 20 29 1 0
BITMAP
039C00
039C00
039C00
000000
F800F0
7801E0
3C03C0
1C03C0
1E0780
0F0700
0F0F00
079E00
039C00
03FC00
01F800
00F000
00F000
01F800
01F800
039C00
079E00
070E00
0F0F00
1E0780
1E0780
3C03C0
7801E0
7801E0
F000F0
ENDCHAR
STARTCHAR uni1E8D
ENCODING 7821
SWIDTH 500 0
DWIDTH 16 0
BBX 15 22 0 0
BITMAP
1CE0
1CE0
1CE0
0000
F01E
781C
3838
3C70
1C70
0EE0
0FE0
07C0
0380
07C0
07C0
0FE0
1EE0
1C70
3878
3838
701C
F01E
ENDCHAR
STARTCHAR uni1E8E
ENCODING 7822
SWIDTH 667 0
DWIDTH 22 0
BBX 21 29 0 0
BITMAP
007000
007000
007000
000000
F00078
7800F0
7800E0
3C01E0
1C01C0
1E03C0
0E0780
0F0780
078F00
038E00
03DE00
01DC00
01FC00
00F800
00F800
007000
007000
007000
007000
007000
007000
007000
007000
007000
007000
ENDCHAR
STARTCHAR uni1E8F
ENCODING 7823
SWIDTH 500 0
DWIDTH 16 0
BBX 14 29 1 -7
BITMAP
0700
0700
0700
0000
E01C
E01C
F038
7038
7038
7070
3870
3870
38E0
3CE0
1CE0
1DC0
1DC0
0FC0
0F80
0F80
0700
0700
0700
0E00
0E00
1C00
7C00
7800
7000
ENDCHAR
STARTCHAR uni1E90
ENCODING 7824
SWIDTH 611 0
DWIDTH 20 0
BBX 18 31 1 0
BITMAP
002000
007000
00F800
01DC00
038E00
000000
7FFFC0
7FFFC0
7FFFC0
000780
000F80
000F00
001E00
003C00
003C00
007800
00F000
01E000
01E000
03C000
078000
078000
0F0000
1E0000
3C0000
3C0000
780000
F00000
FFFFC0
FFFFC0
FFFFC0
ENDCHAR
STARTCHAR uni1E91
ENCODING 7825
SWIDTH 500 0
DWIDTH 16 0
BBX 14 24 1 0
BITMAP
0100
0380
07C0
0EE0
1C70
0000
7FF8
7FF8
7FF8
0078
00F0
00E0
01C0
03C0
0780
0700
0E00
1C00
3C00
7800
7000
FFFC
FFFC
FFFC
ENDCHAR
STARTCHAR uni1E92
ENCODING 7826
SWIDTH 611 0
DWIDTH 20 0
BBX 18 29 1 -4
BITMAP
7FFFC0
7FFFC0
7FFFC0
000780
000F80
000F00
001E00
003C00
003C00
007800
00F000
01E000
01E000
03C000
078000
078000
0F0000
1E0000
3C0000
3C0000
780000
F00000
FFFFC0
FFFFC0
FFFFC0
000000
01C000
01C000
01C000
ENDCHAR
STARTCHAR uni1E93
ENCODING 7827
SWIDTH 500 0
DWIDTH 16 0
BBX 14 22 1 -4
BITMAP
7FF8
7FF8
7FF8
0078
00F0
00E0
01C0
03C0
0780
0700
0E00
1C00
3C00
7800
7000
FFFC
FFFC
FFFC
0000
0700
0700
0700
ENDCHAR
STARTCHAR uni1E94
ENCODING 7828
SWIDTH 611 0
DWIDTH 20 0
BBX 18 28 1 -3
BITMAP
7FFFC0
7FFFC0
7FFFC0
000780
000F80
000F00
001E00
003C00
003C00
007800
00F000
01E000
01E000
03C000
078000
078000
0F0000
1E0000
3C0000
3C0000
780000
F00000
FFFFC0
FFFFC0
FFFFC0
000000
0FF800
0FF800
ENDCHAR
STARTCHAR uni1E95
ENCODING 7829
SWIDTH 500 0
DWIDTH 16 0
BBX 14 21 1 -3
BITMAP
7FF8
7FF8
7FF8
0078
00F0
00E0
01C0
03C0
0780
0700
0E00
1C00
3C00
7800
7000
FFFC
FFFC
FFFC
0000
3FE0
3FE0
ENDCHAR
STARTCHAR uni1E96
ENCODING 7830
SWIDTH 556 0
DWIDTH 18 0
BBX 14 28 2 -3
BITMAP
E000
E000
E000
E000
E000
E000
E000
E3E0
EFF0
FFF8
F83C
F01C
E01C
E01C
E01C
E01C
E01C
E01C
E01C
E01C
E01C
E01C
E01C
E01C
E01C
0000
1FF0
1FF0
ENDCHAR
STARTCHAR uni1E97
ENCODING 7831
SWIDTH 278 0
DWIDTH 9 0
BBX 8 26 1 0
BITMAP
E7
E7
E7
00
38
38
38
38
FF
FF
FF
38
38
38
38
38
38
38
38
38
38
38
38
3C
3F
1F
ENDCHAR
STARTCHAR uni1E98
ENCODING 7832
SWIDTH 722 0
DWIDTH 23 0
BBX 23 25 0 0
BITMAP
003800
006C00
004400
004400
006C00
003800
000000
E0380E
E0380E
707C1C
707C1C
706C1C
38EE1C
38EE38
38EE38
38C638
18C630
1DC770
1DC770
1DC770
0D8360
0F83E0
0F83E0
0701C0
0701C0
ENDCHAR
STARTCHAR uni1E99
ENCODING 7833
SWIDTH 500 0
DWIDTH 16 0
BBX 14 32 1 -7
BITMAP
0700
0D80
0880
0880
0D80
0700
0000
E01C
E01C
F038
7038
7038
7070
3870
3870
38E0
3CE0
1CE0
1DC0
1DC0
0FC0
0F80
0F80
0700
0700
0700
0E00
0E00
1C00
7C00
7800
7000
ENDCHAR
STARTCHAR uni1EA0
ENCODING 7840
SWIDTH 667 0
DWIDTH 22 0
BBX 20 29 1 -4
BITMAP
00F000
00F000
00F800
01F800
01F800
039C00
039C00
039C00
079E00
070E00
070E00
0F0F00
0F0F00
0E0700
1E0780
1FFF80
1FFF80
3FFFC0
3C03C0
3801C0
7801E0
7801E0
7000E0
F000F0
F000F0
000000
007000
007000
007000
ENDCHAR
STARTCHAR uni1EA1
ENCODING 7841
SWIDTH 556 0
DWIDTH 18 0
BBX 16 22 1 -4
BITMAP
0FE0
3FF8
3C78
703C
701C
001C
003C
01FC
1FFC
7E1C
781C
F01C
E01C
E03C
E07C
79FE
7FDF
3F8F
0000
01C0
01C0
01C0
ENDCHAR
STARTCHAR uni1EA4
ENCODING 7844
SWIDTH 667 0
DWIDTH 22 0
BBX 20 37 1 0
BITMAP
003C00
007800
007000
00E000
01C000
000000
004000
00E000
01F000
03B800
071C00
000000
00F000
00F000
00F000
01F800
01F800
03FC00
039C00
039C00
079E00
070E00
070E00
0F0F00
0F0F00
0E0700
1E0780
1FFF80
1FFF80
3FFFC0
3C03C0
3801C0
7801E0
7801E0
7000E0
F000F0
F000F0
ENDCHAR
STARTCHAR uni1EA5
ENCODING 7845
SWIDTH 556 0
DWIDTH 18 0
BBX 16 31 1 0
BITMAP
00F0
01E0
01C0
0380
0700
0000
0100
0380
07C0
0EE0
1C70
0000
0000
0FE0
3FF8
3C7C
701C
701C
001C
001C
00FC
1FFC
7F9C
781C
F01C
E01C
E03C
E07C
78FC
7FDF
3F8F
ENDCHAR
STARTCHAR uni1EA6
ENCODING 7846
SWIDTH 667 0
DWIDTH 22 0
BBX 20 37 1 0
BITMAP
038000
03C000
01C000
00E000
007000
000000
004000
00E000
01F000
03B800
071C00
000000
00F000
00F000
00F000
01F800
01F800
03FC00
039C00
039C00
079E00
070E00
070E00
0F0F00
0F0F00
0E0700
1E0780
1FFF80
1FFF80
3FFFC0
3C03C0
3801C0
7801E0
7801E0
7000E0
F000F0
F000F0
ENDCHAR
STARTCHAR uni1EA7
ENCODING 7847
SWIDTH 556 0
DWIDTH 18 0
BBX 16 31 1 0
BITMAP
0E00
0F00
0700
0380
01C0
0000
0100
0380
07C0
0EE0
1C70
0000
0000
0FE0
3FF8
3C7C
701C
701C
001C
001C
00FC
1FFC
7F9C
781C
F01C
E01C
E03C
E07C
78FC
7FDF
3F8F
ENDCHAR
STARTCHAR uni1EAA
ENCODING 7850
SWIDTH 667 0
DWIDTH 22 0
BBX 20 36 1 0
BITMAP
01C600
03FE00
07FC00
063800
000000
004000
00E000
01F000
03B800
071C00
000000
00F000
00F000
00F000
01F800
01F800
03FC00
039C00
039C00
079E00
070E00
070E00
0F0F00
0F0F00
0E0700
1E0780
1FFF80
1FFF80
3FFFC0
3C03C0
3801C0
7801E0
7801E0
7000E0
F000F0
F000F0
ENDCHAR
STARTCHAR uni1EAB
ENCODING 7851
SWIDTH 556 0
DWIDTH 18 0
BBX 16 30 1 0
BITMAP
0718
0FF8
1FF0
18E0
0000
0100
0380
07C0
0EE0
1C70
0000
0000
0FE0
3FF8
3C7C
701C
701C
001C
001C
00FC
1FFC
7F9C
781C
F01C
E01C
E03C
E07C
78FC
7FDF
3F8F
ENDCHAR
STARTCHAR uni1EAC
ENCODING 7852
SWIDTH 667 0
DWIDTH 22 0
BBX 20 35 1 -4
BITMAP
002000
007000
00F800
01DC00
038E00
000000
00F000
00F000
00F800
01F800
01F800
039C00
039C00
039C00
079E00
070E00
070E00
0F0F00
0F0F00
0E0700
1E0780
1FFF80
1FFF80
3FFFC0
3C03C0
3801C0
7801E0
7801E0
7000E0
F000F0
F000F0
000000
007000
007000
007000
ENDCHAR
STARTCHAR uni1EAD
ENCODING 7853
SWIDTH 556 0
DWIDTH 18 0
BBX 16 28 1 -4
BITMAP
0100
0380
07C0
0EE0
1C70
0000
0FE0
3FF8
3C78
703C
701C
001C
003C
01FC
1FFC
7E1C
781C
F01C
E01C
E03C
E07C
79FE
7FDF
3F8F
0000
01C0
01C0
01C0
ENDCHAR
STARTCHAR uni1EAE
ENCODING 7854
SWIDTH 667 0
DWIDTH 22 0
BBX 20 36 1 0
BITMAP
001E00
003C00
003800
007000
00E000
000000
020200
038600
01FC00
00F800
000000
00F000
00F000
00F800
01F800
01F800
039C00
039C00
039C00
079E00
070E00
070E00
0F0F00
0F0F00
0E0700
1E0780
1FFF80
1FFF80
3FFFC0
3C03C0
3801C0
7801E0
7801E0
7000E0
F000F0
F000F0
ENDCHAR
STARTCHAR uni1EAF
ENCODING 7855
SWIDTH 556 0
DWIDTH 18 0
BBX 16 29 1 0
BITMAP
00F0
01E0
01C0
0380
0700
0000
1010
1C30
0FE0
07C0
0000
0FE0
3FF8
3C78
703C
701C
001C
003C
01FC
1FFC
7E1C
781C
F01C
E01C
E03C
E07C
79FE
7FDF
3F8F
ENDCHAR
STARTCHAR uni1EB0
ENCODING 7856
SWIDTH 667 0
DWIDTH 22 0
BBX 20 36 1 0
BITMAP
01C000
01E000
00E000
007000
003800
000000
020200
038600
01FC00
00F800
000000
00F000
00F000
00F800
01F800
01F800
039C00
039C00
039C00
079E00
070E00
070E00
0F0F00
0F0F00
0E0700
1E0780
1FFF80
1FFF80
3FFFC0
3C03C0
3801C0
7801E0
7801E0
7000E0
F000F0
F000F0
ENDCHAR
STARTCHAR uni1EB1
ENCODING 7857
SWIDTH 556 0
DWIDTH 18 0
BBX 16 29 1 0
BITMAP
0E00
0F00
0700
0380
01C0
0000
1010
1C30
0FE0
07C0
0000
0FE0
3FF8
3C78
703C
701C
001C
003C
01FC
1FFC
7E1C
781C
F01C
E01C
E03C
E07C
79FE
7FDF
3F8F
ENDCHAR
STARTCHAR uni1EB4
ENCODING 7860
SWIDTH 667 0
DWIDTH 22 0
BBX 20 35 1 0
BITMAP
00E300
01FF00
03FE00
031C00
000000
020200
038600
01FC00
00F800
000000
00F000
00F000
00F800
01F800
01F800
039C00
039C00
039C00
079E00
070E00
070E00
0F0F00
0F0F00
0E0700
1E0780
1FFF80
1FFF80
3FFFC0
3C03C0
3801C0
7801E0
7801E0
7000E0
F000F0
F000F0
ENDCHAR
STARTCHAR uni1EB5
ENCODING 7861
SWIDTH 556 0
DWIDTH 18 0
BBX 16 28 1 0
BITMAP
0718
0FF8
1FF0
18E0
0000
1010
1C30
0FE0
07C0
0000
0FE0
3FF8
3C78
703C
701C
001C
003C
01FC
1FFC
7E1C
781C
F01C
E01C
E03C
E07C
79FE
7FDF
3F8F
ENDCHAR
STARTCHAR uni1EB6
ENCODING 7862
SWIDTH 667 0
DWIDTH 22 0
BBX 20 34 1 -4
BITMAP
020200
038600
01FC00
00F800
000000
00F000
00F000
00F800
01F800
01F800
039C00
039C00
039C00
079E00
070E00
070E00
0F0F00
0F0F00
0E0700
1E0780
1FFF80
1FFF80
3FFFC0
3C03C0
3801C0
7801E0
7801E0
7000E0
F000F0
F000F0
000000
007000
007000
007000
ENDCHAR
STARTCHAR uni1EB7
ENCODING 7863
SWIDTH 556 0
DWIDTH 18 0
BBX 16 27 1 -4
BITMAP
1010
1C30
0FE0
07C0
0000
0FE0
3FF8
3C78
703C
701C
001C
003C
01FC
1FFC
7E1C
781C
F01C
E01C
E03C
E07C
79FE
7FDF
3F8F
0000
01C0
01C0
01C0
ENDCHAR
STARTCHAR uni1EB8
ENCODING 7864
SWIDTH 667 0
DWIDTH 22 0
BBX 17 29 3 -4
BITMAP
FFFF00
FFFF00
FFFF00
E00000
E00000
E00000
E00000
E00000
E00000
E00000
E00000
FFFF00
FFFF00
FFFF00
E00000
E00000
E00000
E00000
E00000
E00000
E00000
E00000
FFFF80
FFFF80
FFFF80
000000
038000
038000
038000
ENDCHAR
STARTCHAR uni1EB9
ENCODING 7865
SWIDTH 556 0
DWIDTH 18 0
BBX 15 22 2 -4
BITMAP
07C0
1FF0
3FF8
783C
701C
F00E
E00E
E00E
FFFE
FFFE
E000
E000
F00E
701E
783C
3FF8
1FF0
07C0
0000
0380
0380
0380
ENDCHAR
STARTCHAR uni1EBC
ENCODING 7868
SWIDTH 667 0
DWIDTH 22 0
BBX 17 30 3 0
BITMAP
071800
0FF800
1FF000
18E000
000000
FFFF00
FFFF00
FFFF00
E00000
E00000
E00000
E00000
E00000
E00000
E00000
E00000
FFFF00
FFFF00
FFFF00
E00000
E00000
E00000
E00000
E00000
E00000
E00000
E00000
FFFF80
FFFF80
FFFF80
ENDCHAR
STARTCHAR uni1EBD
ENCODING 7869
SWIDTH 556 0
DWIDTH 18 0
BBX 15 23 2 0
BITMAP
0718
0FF8
1FF0
18E0
0000
07C0
1FF0
3FF8
783C
701C
F00E
E00E
E00E
FFFE
FFFE
E000
E000
F00E
701E
783C
3FF8
1FF0
07C0
ENDCHAR
STARTCHAR uni1EBE
ENCODING 7870
SWIDTH 667 0
DWIDTH 22 0
BBX 17 37 3 0
BITMAP
007800
00F000
00E000
01C000
038000
000000
008000
01C000
03E000
077000
0E3800
000000
FFFF00
FFFF00
FFFF00
E00000
E00000
E00000
E00000
E00000
E00000
E00000
E00000
FFFF00
FFFF00
FFFF00
E00000
E00000
E00000
E00000
E00000
E00000
E00000
E00000
FFFF80
FFFF80
FFFF80
ENDCHAR
STARTCHAR uni1EBF
ENCODING 7871
SWIDTH 556 0
DWIDTH 18 0
BBX 15 31 1 0
BITMAP
00F0
01E0
01C0
0380
0700
0000
0100
0380
07C0
0EE0
1C70
0000
0000
07C0
1FF0
3C78
781C
701C
F00E
E00E
E00E
FFFE
FFFE
E000
E000
E00E
700E
781C
3C7C
1FF0
07C0
ENDCHAR
STARTCHAR uni1EC0
ENCODING 7872
SWIDTH 667 0
DWIDTH 22 0
BBX 17 37 3 0
BITMAP
070000
078000
038000
01C000
00E000
000000
008000
01C000
03E000
077000
0E3800
000000
FFFF00
FFFF00
FFFF00
E00000
E00000
E00000
E00000
E00000
E00000
E00000
E00000
FFFF00
FFFF00
FFFF00
E00000
E00000
E00000
E00000
E00000
E00000
E00000
E00000
FFFF80
FFFF80
FFFF80
ENDCHAR
STARTCHAR uni1EC1
ENCODING 7873
SWIDTH 556 0
DWIDTH 18 0
BBX 15 31 1 0
BITMAP
0E00
0F00
0700
0380
01C0
0000
0100
0380
07C0
0EE0
1C70
0000
0000
07C0
1FF0
3C78
781C
701C
F00E
E00E
E00E
FFFE
FFFE
E000
E000
E00E
700E
781C
3C7C
1FF0
07C0
ENDCHAR
STARTCHAR uni1EC4
ENCODING 7876
SWIDTH 667 0
DWIDTH 22 0
BBX 17 36 3 0
BITMAP
038C00
07FC00
0FF800
0C7000
000000
008000
01C000
03E000
077000
0E3800
000000
FFFF00
FFFF00
FFFF00
E00000
E00000
E00000
E00000
E00000
E00000
E00000
E00000
FFFF00
FFFF00
FFFF00
E00000
E00000
E00000
E00000
E00000
E00000
E00000
E00000
FFFF80
FFFF80
FFFF80
ENDCHAR
STARTCHAR uni1EC5
ENCODING 7877
SWIDTH 556 0
DWIDTH 18 0
BBX 15 30 1 0
BITMAP
0718
0FF8
1FF0
18E0
0000
0100
0380
07C0
0EE0
1C70
0000
0000
07C0
1FF0
3C78
781C
701C
F00E
E00E
E00E
FFFE
FFFE
E000
E000
E00E
700E
781C
3C7C
1FF0
07C0
ENDCHAR
STARTCHAR uni1EC6
ENCODING 7878
SWIDTH 667 0
DWIDTH 22 0
BBX 17 35 3 -4
BITMAP
010000
038000
07C000
0EE000
1C7000
000000
FFFF00
FFFF00
FFFF00
E00000
E00000
E00000
E00000
E00000
E00000
E00000
E00000
FFFF00
FFFF00
FFFF00
E00000
E00000
E00000
E00000
E00000
E00000
E00000
E00000
FFFF80
FFFF80
FFFF80
000000
038000
038000
038000
ENDCHAR
STARTCHAR uni1EC7
ENCODING 7879
SWIDTH 556 0
DWIDTH 18 0
BBX 15 28 2 -4
BITMAP
0100
0380
07C0
0EE0
1C70
0000
07C0
1FF0
3FF8
783C
701C
F00E
E00E
E00E
FFFE
FFFE
E000
E000
F00E
701E
783C
3FF8
1FF0
07C0
0000
0380
0380
0380
ENDCHAR
STARTCHAR uni1ECA
ENCODING 7882
SWIDTH 278 0
DWIDTH 9 0
BBX 3 29 3 -4
BITMAP
E0
E0
E0
E0
E0
E0
E0
E0
E0
E0
E0
E0
E0
E0
E0
E0
E0
E0
E0
E0
E0
E0
E0
E0
E0
00
E0
E0
E0
ENDCHAR
STARTCHAR uni1ECB
ENCODING 7883
SWIDTH 222 0
DWIDTH 7 0
BBX 3 29 2 -4
BITMAP
E0
E0
E0
E0
00
00
00
E0
E0
E0
E0
E0
E0
E0
E0
E0
E0
E0
E0
E0
E0
E0
E0
E0
E0
00
E0
E0
E0
ENDCHAR
STARTCHAR uni1ECC
ENCODING 7884
SWIDTH 778 0
DWIDTH 25 0
BBX 23 29 1 -4
BITMAP
00FE00
03FF80
0FEFE0
1F01F0
3E00F8
3C0078
78003C
70001C
F0001E
E0000E
E0000E
E0000E
E0000E
E0000E
E0000E
E0000E
F0001E
F0001E
78003C
3C0078
3E00F8
1F01F0
0FEFE0
03FF80
00FE00
000000
003800
003800
003800
ENDCHAR
STARTCHAR uni1ECD
ENCODING 7885
SWIDTH 556 0
DWIDTH 18 0
BBX 15 22 1 -4
BITMAP
07C0
1FF0
3FF8
783C
701C
F01E
E00E
E00E
E00E
E00E
E00E
E00E
F01E
701C
783C
3FF8
1FF0
07C0
0000
0380
0380
0380
ENDCHAR
STARTCHAR uni1ED0
ENCODING 7888
SWIDTH 778 0
DWIDTH 25 0
BBX 23 37 1 0
BITMAP
000F00
001E00
001C00
003800
007000
000000
001000
003800
007C00
00EE00
01C700
000000
00FE00
03FF80
0FFFE0
1F01F0
3E00F8
3C0078
78003C
70001C
70001C
F0001E
E0000E
E0000E
E0000E
E0000E
E0000E
F0001E
F0001E
70001C
78003C
3C0078
3E00F8
1F01F0
0FFFE0
03FF80
00FE00
ENDCHAR
STARTCHAR uni1ED1
ENCODING 7889
SWIDTH 556 0
DWIDTH 19 0
BBX 15 31 1 0
BITMAP
00F0
01E0
01C0
0380
0700
0000
0100
0380
07C0
0EE0
1C70
0000
0000
07C0
1FF0
3FF8
783C
701C
701C
E00E
E00E
E00E
E00E
E00E
E00E
701C
701C
783C
3FF8
1FF0
07C0
ENDCHAR
STARTCHAR uni1ED2
ENCODING 7890
SWIDTH 778 0
DWIDTH 25 0
BBX 23 37 1 0
BITMAP
00E000
00F000
007000
003800
001C00
000000
001000
003800
007C00
00EE00
01C700
000000
00FE00
03FF80
0FFFE0
1F01F0
3E00F8
3C0078
78003C
70001C
70001C
F0001E
E0000E
E0000E
E0000E
E0000E
E0000E
F0001E
F0001E
70001C
78003C
3C0078
3E00F8
1F01F0
0FFFE0
03FF80
00FE00
ENDCHAR
STARTCHAR uni1ED3
ENCODING 7891
SWIDTH 556 0
DWIDTH 19 0
BBX 15 31 1 0
BITMAP
0E00
0F00
0700
0380
01C0
0000
0100
0380
07C0
0EE0
1C70
0000
0000
07C0
1FF0
3FF8
783C
701C
701C
E00E
E00E
E00E
E00E
E00E
E00E
701C
701C
783C
3FF8
1FF0
07C0
ENDCHAR
STARTCHAR uni1ED6
ENCODING 7894
SWIDTH 778 0
DWIDTH 25 0
BBX 23 36 1 0
BITMAP
007180
00FF80
01FF00
018E00
000000
001000
003800
007C00
00EE00
01C700
000000
00FE00
03FF80
0FFFE0
1F01F0
3E00F8
3C0078
78003C
70001C
70001C
F0001E
E0000E
E0000E
E0000E
E0000E
E0000E
F0001E
F0001E
70001C
78003C
3C0078
3E00F8
1F01F0
0FFFE0
03FF80
00FE00
ENDCHAR
STARTCHAR uni1ED7
ENCODING 7895
SWIDTH 556 0
DWIDTH 19 0
BBX 15 30 1 0
BITMAP
0718
0FF8
1FF0
18E0
0000
0100
0380
07C0
0EE0
1C70
0000
0000
07C0
1FF0
3FF8
783C
701C
701C
E00E
E00E
E00E
E00E
E00E
E00E
701C
701C
783C
3FF8
1FF0
07C0
ENDCHAR
STARTCHAR uni1ED8
ENCODING 7896
SWIDTH 778 0
DWIDTH 25 0
BBX 23 35 1 -4
BITMAP
001000
003800
007C00
00EE00
01C700
000000
00FE00
03FF80
0FEFE0
1F01F0
3E00F8
3C0078
78003C
70001C
F0001E
E0000E
E0000E
E0000E
E0000E
E0000E
E0000E
E0000E
F0001E
F0001E
78003C
3C0078
3E00F8
1F01F0
0FEFE0
03FF80
00FE00
000000
003800
003800
003800
ENDCHAR
STARTCHAR uni1ED9
ENCODING 7897
SWIDTH 556 0
DWIDTH 18 0
BBX 15 28 1 -4
BITMAP
0100
0380
07C0
0EE0
1C70
0000
07C0
1FF0
3FF8
783C
701C
F01E
E00E
E00E
E00E
E00E
E00E
E00E
F01E
701C
783C
3FF8
1FF0
07C0
0000
0380
0380
0380
ENDCHAR
STARTCHAR uni1EDA
ENCODING 7898
SWIDTH 778 0
DWIDTH 25 0
BBX 24 31 1 0
BITMAP
0003C0
000780
000700
000E00
001C00
000000
00FE07
03FF87
0FEFE7
1F01F7
3E00F9
3C007B
78003E
70001C
F0001E
E0000E
E0000E
E0000E
E0000E
E0000E
E0000E
E0000E
F0001E
F0001E
78003C
3C0078
3E00F8
1F01F0
0FEFE0
03FF80
00FE00
ENDCHAR
STARTCHAR uni1EDB
ENCODING 7899
SWIDTH 556 0
DWIDTH 18 0
BBX 17 24 1 0
BITMAP
003C00
007800
007000
00E000
01C000
000000
07C380
1FF380
3FFB80
783F80
701C80
F01F80
E00F00
E00E00
E00E00
E00E00
E00E00
E00E00
F01E00
701C00
783C00
3FF800
1FF000
07C000
ENDCHAR
STARTCHAR uni1EDC
ENCODING 7900
SWIDTH 778 0
DWIDTH 25 0
BBX 24 31 1 0
BITMAP
007000
007800
003800
001C00
000E00
000000
00FE07
03FF87
0FEFE7
1F01F7
3E00F9
3C007B
78003E
70001C
F0001E
E0000E
E0000E
E0000E
E0000E
E0000E
E0000E
E0000E
F0001E
F0001E
78003C
3C0078
3E00F8
1F01F0
0FEFE0
03FF80
00FE00
ENDCHAR
STARTCHAR uni1EDD
ENCODING 7901
SWIDTH 556 0
DWIDTH 18 0
BBX 17 24 1 0
BITMAP
038000
03C000
01C000
00E000
007000
000000
07C380
1FF380
3FFB80
783F80
701C80
F01F80
E00F00
E00E00
E00E00
E00E00
E00E00
E00E00
F01E00
701C00
783C00
3FF800
1FF000
07C000
ENDCHAR
STARTCHAR uni1EE0
ENCODING 7904
SWIDTH 778 0
DWIDTH 25 0
BBX 24 30 1 0
BITMAP
0038C0
007FC0
00FF80
00C700
000000
00FE07
03FF87
0FEFE7
1F01F7
3E00F9
3C007B
78003E
70001C
F0001E
E0000E
E0000E
E0000E
E0000E
E0000E
E0000E
E0000E
F0001E
F0001E
78003C
3C0078
3E00F8
1F01F0
0FEFE0
03FF80
00FE00
ENDCHAR
STARTCHAR uni1EE1
ENCODING 7905
SWIDTH 556 0
DWIDTH 18 0
BBX 17 23 1 0
BITMAP
01C600
03FE00
07FC00
063800
000000
07C380
1FF380
3FFB80
783F80
701C80
F01F80
E00F00
E00E00
E00E00
E00E00
E00E00
E00E00
F01E00
701C00
783C00
3FF800
1FF000
07C000
ENDCHAR
STARTCHAR uni1EE2
ENCODING 7906
SWIDTH 778 0
DWIDTH 25 0
BBX 24 29 1 -4
BITMAP
00FE07
03FF87
0FEFE7
1F01F7
3E00F9
3C007B
78003E
70001C
F0001E
E0000E
E0000E
E0000E
E0000E
E0000E
E0000E
E0000E
F0001E
F0001E
78003C
3C0078
3E00F8
1F01F0
0FEFE0
03FF80
00FE00
000000
003800
003800
003800
ENDCHAR
STARTCHAR uni1EE3
ENCODING 7907
SWIDTH 556 0
DWIDTH 18 0
BBX 17 22 1 -4
BITMAP
07C380
1FF380
3FFB80
783F80
701C80
F01F80
E00F00
E00E00
E00E00
E00E00
E00E00
E00E00
F01E00
701C00
783C00
3FF800
1FF000
07C000
000000
038000
038000
038000
ENDCHAR
STARTCHAR uni1EE4
ENCODING 7908
SWIDTH 722 0
DWIDTH 24 0
BBX 18 29 3 -4
BITMAP
E001C0
E001C0
E001C0
E001C0
E001C0
E001C0
E001C0
E001C0
E001C0
E001C0
E001C0
E001C0
E001C0
E001C0
E001C0
E001C0
E001C0
E001C0
E001C0
F003C0
780780
7C0F80
3FFF00
1FFE00
03F000
000000
00E000
00E000
00E000
ENDCHAR
STARTCHAR uni1EE5
ENCODING 7909
SWIDTH 556 0
DWIDTH 18 0
BBX 14 22 2 -4
BITMAP
E01C
E01C
E01C
E01C
E01C
E01C
E01C
E01C
E01C
E01C
E01C
E01C
E01C
E03C
F07C
7FFC
7FDC
1F1C
0000
0380
0380
0380
ENDCHAR
STARTCHAR uni1EE8
ENCODING 7912
SWIDTH 722 0
DWIDTH 24 0
BBX 19 31 3 0
BITMAP
003C00
007800
007000
00E000
01C000
000000
E001E0
E001E0
E001E0
E001E0
E001E0
E001E0
E001C0
E001C0
E001C0
E001C0
E001C0
E001C0
E001C0
E001C0
E001C0
E001C0
E001C0
E001C0
E001C0
F003C0
780780
7C0F80
3FFF00
1FFE00
03F000
ENDCHAR
STARTCHAR uni1EE9
ENCODING 7913
SWIDTH 556 0
DWIDTH 18 0
BBX 16 24 2 0
BITMAP
0078
00F0
00E0
01C0
0380
0000
E01F
E01F
E01F
E01F
E01D
E01F
E01E
E01C
E01C
E01C
E01C
E01C
E01C
E03C
F07C
7FFC
7FDC
1F1C
ENDCHAR
STARTCHAR uni1EEA
ENCODING 7914
SWIDTH 722 0
DWIDTH 24 0
BBX 19 31 3 0
BITMAP
038000
03C000
01C000
00E000
007000
000000
E001E0
E001E0
E001E0
E001E0
E001E0
E001E0
E001C0
E001C0
E001C0
E001C0
E001C0
E001C0
E001C0
E001C0
E001C0
E001C0
E001C0
E001C0
E001C0
F003C0
780780
7C0F80
3FFF00
1FFE00
03F000
ENDCHAR
STARTCHAR uni1EEB
ENCODING 7915
SWIDTH 556 0
DWIDTH 18 0
BBX 16 24 2 0
BITMAP
0700
0780
0380
01C0
00E0
0000
E01F
E01F
E01F
E01F
E01D
E01F
E01E
E01C
E01C
E01C
E01C
E01C
E01C
E03C
F07C
7FFC
7FDC
1F1C
ENDCHAR
STARTCHAR uni1EEE
ENCODING 7918
SWIDTH 722 0
DWIDTH 24 0
BBX 19 30 3 0
BITMAP
01C600
03FE00
07FC00
063800
000000
E001E0
E001E0
E001E0
E001E0
E001E0
E001E0
E001C0
E001C0
E001C0
E001C0
E001C0
E001C0
E001C0
E001C0
E001C0
E001C0
E001C0
E001C0
E001C0
F003C0
780780
7C0F80
3FFF00
1FFE00
03F000
ENDCHAR
STARTCHAR uni1EEF
ENCODING 7919
SWIDTH 556 0
DWIDTH 18 0
BBX 16 23 2 0
BITMAP
038C
07FC
0FF8
0C70
0000
E01F
E01F
E01F
E01F
E01D
E01F
E01E
E01C
E01C
E01C
E01C
E01C
E01C
E03C
F07C
7FFC
7FDC
1F1C
ENDCHAR
STARTCHAR uni1EF0
ENCODING 7920
SWIDTH 722 0
DWIDTH 24 0
BBX 19 29 3 -4
BITMAP
E001E0
E001E0
E001E0
E001E0
E001E0
E001E0
E001C0
E001C0
E001C0
E001C0
E001C0
E001C0
E001C0
E001C0
E001C0
E001C0
E001C0
E001C0
E001C0
F003C0
780780
7C0F80
3FFF00
1FFE00
03F000
000000
00E000
00E000
00E000
ENDCHAR
STARTCHAR uni1EF1
ENCODING 7921
SWIDTH 556 0
DWIDTH 18 0
BBX 16 22 2 -4
BITMAP
E01F
E01F
E01F
E01F
E01D
E01F
E01E
E01C
E01C
E01C
E01C
E01C
E01C
E03C
F07C
7FFC
7FDC
1F1C
0000
0380
0380
0380
ENDCHAR
STARTCHAR Ygrave
ENCODING 7922
SWIDTH 667 0
DWIDTH 22 0
BBX 21 31 0 0
BITMAP
01C000
01E000
00E000
007000
003800
000000
F00078
7800F0
7800E0
3C01E0
1C01C0
1E03C0
0E0780
0F0780
078F00
038E00
03DE00
01DC00
01FC00
00F800
00F800
007000
007000
007000
007000
007000
007000
007000
007000
007000
007000
ENDCHAR
STARTCHAR ygrave
ENCODING 7923
SWIDTH 500 0
DWIDTH 16 0
BBX 14 31 1 -7
BITMAP
1C00
1E00
0E00
0700
0380
0000
E01C
E01C
F038
7038
7038
7070
3870
3870
38E0
3CE0
1CE0
1DC0
1DC0
0FC0
0F80
0F80
0700
0700
0700
0E00
0E00
1C00
7C00
7800
7000
ENDCHAR
STARTCHAR uni1EF4
ENCODING 7924
SWIDTH 667 0
DWIDTH 22 0
BBX 21 29 0 -4
BITMAP
F00078
7800F0
7800E0
3C01E0
1C01C0
1E03C0
0E0780
0F0780
078F00
038E00
03DE00
01DC00
01FC00
00F800
00F800
007000
007000
007000
007000
007000
007000
007000
007000
007000
007000
000000
007000
007000
007000
ENDCHAR
STARTCHAR uni1EF5
ENCODING 7925
SWIDTH 500 0
DWIDTH 16 0
BBX 14 29 1 -11
BITMAP
E01C
E01C
F038
7038
7038
7070
3870
3870
38E0
3CE0
1CE0
1DC0
1DC0
0FC0
0F80
0F80
0700
0700
0700
0E00
0E00
1C00
7C00
7800
7000
0000
0E00
0E00
0E00
ENDCHAR
STARTCHAR uni1EF8
ENCODING 7928
SWIDTH 667 0
DWIDTH 22 0
BBX 21 30 0 0
BITMAP
00E300
01FF00
03FE00
031C00
000000
F00078
7800F0
7800E0
3C01E0
1C01C0
1E03C0
0E0780
0F0780
078F00
038E00
03DE00
01DC00
01FC00
00F800
00F800
007000
007000
007000
007000
007000
007000
007000
007000
007000
007000
ENDCHAR
STARTCHAR uni1EF9
ENCODING 7929
SWIDTH 500 0
DWIDTH 16 0
BBX 14 30 1 -7
BITMAP
0E30
1FF0
3FE0
31C0
0000
E01C
E01C
F038
7038
7038
7070
3870
3870
38E0
3CE0
1CE0
1DC0
1DC0
0FC0
0F80
0F80
0700
0700
0700
0E00
0E00
1C00
7C00
7800
7000
ENDCHAR
STARTCHAR uni2000
ENCODING 8192
SWIDTH 500 0
DWIDTH 17 0
BBX 1 1 0 0
BITMAP
00
ENDCHAR
STARTCHAR uni2001
ENCODING 8193
SWIDTH 1000 0
DWIDTH 33 0
BBX 1 1 0 0
BITMAP
00
ENDCHAR
STARTCHAR uni2002
ENCODING 8194
SWIDTH 500 0
DWIDTH 17 0
BBX 1 1 0 0
BITMAP
00
ENDCHAR
STARTCHAR uni2003
ENCODING 8195
SWIDTH 1000 0
DWIDTH 33 0
BBX 1 1 0 0
BITMAP
00
ENDCHAR
STARTCHAR uni2004
ENCODING 8196
SWIDTH 333 0
DWIDTH 11 0
BBX 1 1 0 0
BITMAP
00
ENDCHAR
STARTCHAR uni2005
ENCODING 8197
SWIDTH 250 0
DWIDTH 8 0
BBX 1 1 0 0
BITMAP
00
ENDCHAR
STARTCHAR uni2006
ENCODING 8198
SWIDTH 167 0
DWIDTH 6 0
BBX 1 1 0 0
BITMAP
00
ENDCHAR
STARTCHAR uni2007
ENCODING 8199
SWIDTH 556 0
DWIDTH 18 0
BBX 1 1 0 0
BITMAP
00
ENDCHAR
STARTCHAR uni2008
ENCODING 8200
SWIDTH 278 0
DWIDTH 9 0
BBX 1 1 0 0
BITMAP
00
ENDCHAR
STARTCHAR uni2009
ENCODING 8201
SWIDTH 200 0
DWIDTH 7 0
BBX 1 1 0 0
BITMAP
00
ENDCHAR
STARTCHAR uni200A
ENCODING 8202
SWIDTH 100 0
DWIDTH 3 0
BBX 1 1 0 0
BITMAP
00
ENDCHAR
STARTCHAR uni200B
ENCODING 8203
SWIDTH 0 0
DWIDTH 0 0
BBX 1 1 0 0
BITMAP
00
ENDCHAR
STARTCHAR uni2010
ENCODING 8208
SWIDTH 333 0
DWIDTH 11 0
BBX 8 2 1 8
BITMAP
FF
FF
ENDCHAR
STARTCHAR uni2011
ENCODING 8209
SWIDTH 333 0
DWIDTH 11 0
BBX 8 2 1 8
BITMAP
FF
FF
ENDCHAR
STARTCHAR figuredash
ENCODING 8210
SWIDTH 556 0
DWIDTH 18 0
BBX 18 2 0 8
BITMAP
FFFFC0
FFFFC0
ENDCHAR
STARTCHAR endash
ENCODING 8211
SWIDTH 556 0
DWIDTH 18 0
BBX 18 2 0 8
BITMAP
FFFFC0
FFFFC0
ENDCHAR
STARTCHAR emdash
ENCODING 8212
SWIDTH 1000 0
DWIDTH 32 0
BBX 32 2 0 8
BITMAP
FFFFFFFF
FFFFFFFF
ENDCHAR
STARTCHAR afii00208
ENCODING 8213
SWIDTH 1000 0
DWIDTH 32 0
BBX 32 2 0 8
BITMAP
FFFFFFFF
FFFFFFFF
ENDCHAR
STARTCHAR quoteleft
ENCODING 8216
SWIDTH 222 0
DWIDTH 7 0
BBX 3 7 2 18
BITMAP
60
C0
80
E0
E0
E0
E0
ENDCHAR
STARTCHAR quoteright
ENCODING 8217
SWIDTH 222 0
DWIDTH 7 0
BBX 3 7 2 18
BITMAP
E0
E0
E0
E0
20
60
C0
ENDCHAR
STARTCHAR quotesinglbase
ENCODING 8218
SWIDTH 222 0
DWIDTH 7 0
BBX 3 7 2 -4
BITMAP
E0
E0
E0
60
60
60
C0
ENDCHAR
STARTCHAR quotereversed
ENCODING 8219
SWIDTH 222 0
DWIDTH 7 0
BBX 3 7 2 18
BITMAP
E0
E0
E0
E0
80
C0
60
ENDCHAR
STARTCHAR quotedblleft
ENCODING 8220
SWIDTH 333 0
DWIDTH 11 0
BBX 9 8 1 16
BITMAP
2080
6180
4300
C300
C300
E380
E380
E380
ENDCHAR
STARTCHAR quotedblright
ENCODING 8221
SWIDTH 333 0
DWIDTH 11 0
BBX 8 7 2 16
BITMAP
E7
E7
E7
63
63
63
C6
ENDCHAR
STARTCHAR quotedblbase
ENCODING 8222
SWIDTH 333 0
DWIDTH 11 0
BBX 9 7 1 -4
BITMAP
E380
E380
E380
6180
6180
6100
C300
ENDCHAR
STARTCHAR uni201F
ENCODING 8223
SWIDTH 333 0
DWIDTH 11 0
BBX 8 7 2 16
BITMAP
E7
E7
E7
C6
C6
C6
63
ENDCHAR
STARTCHAR dagger
ENCODING 8224
SWIDTH 556 0
DWIDTH 18 0
BBX 15 30 1 -6
BITMAP
0380
0380
0380
0380
0380
0380
0380
FFFE
FFFE
FFFE
0380
0380
0380
0380
0380
0380
0380
0380
0380
0380
0380
0380
0380
0380
0380
0380
0380
0380
0380
0380
ENDCHAR
STARTCHAR daggerdbl
ENCODING 8225
SWIDTH 556 0
DWIDTH 18 0
BBX 15 30 1 -6
BITMAP
0380
0380
0380
0380
0380
0380
0380
FFFE
FFFE
FFFE
0380
0380
0380
0380
0380
0380
0380
0380
0380
0380
FFFE
FFFE
FFFE
0380
0380
0380
0380
0380
0380
0380
ENDCHAR
STARTCHAR bullet
ENCODING 8226
SWIDTH 350 0
DWIDTH 11 0
BBX 8 8 2 7
BITMAP
3C
7E
FF
FF
FF
FF
7E
3C
ENDCHAR
STARTCHAR ellipsis
ENCODING 8230
SWIDTH 1000 0
DWIDTH 33 0
BBX 25 3 4 0
BITMAP
E01C0380
E01C0380
E01C0380
ENDCHAR
STARTCHAR perthousand
ENCODING 8240
SWIDTH 1000 0
DWIDTH 32 0
BBX 32 25 0 0
BITMAP
1E018000
7F818000
73830000
E1C30000
C0C60000
C0C60000
C0CC0000
E1CC0000
73980000
7F980000
1E300000
00300000
00600000
00600000
00C00000
00C00000
0187C078
018FE1FE
031C7386
03183303
06183303
06183303
0E1C7386
0C0FE1FE
1C07C078
ENDCHAR
STARTCHAR guilsinglleft
ENCODING 8249
SWIDTH 333 0
DWIDTH 11 0
BBX 5 9 3 5
BITMAP
18
38
70
E0
C0
E0
70
38
18
ENDCHAR
STARTCHAR guilsinglright
ENCODING 8250
SWIDTH 333 0
DWIDTH 11 0
BBX 5 9 3 5
BITMAP
C0
E0
70
38
18
38
70
E0
C0
ENDCHAR
STARTCHAR fraction
ENCODING 8260
SWIDTH 167 0
DWIDTH 6 0
BBX 15 24 -5 0
BITMAP
0002
0006
000C
000C
0018
0018
0030
0060
0060
00C0
01C0
0180
0300
0300
0600
0C00
0C00
1800
1800
3000
6000
6000
C000
C000
ENDCHAR
STARTCHAR oneinferior
ENCODING 8321
SWIDTH 333 0
DWIDTH 11 0
BBX 5 15 2 -7
BITMAP
18
38
F8
F8
18
18
18
18
18
18
18
18
18
18
18
ENDCHAR
STARTCHAR twoinferior
ENCODING 8322
SWIDTH 333 0
DWIDTH 11 0
BBX 9 15 1 -7
BITMAP
1E00
7F00
6300
C180
C180
0180
0300
0700
1E00
3800
7000
E000
C000
FF80
FF80
ENDCHAR
STARTCHAR threeinferior
ENCODING 8323
SWIDTH 333 0
DWIDTH 11 0
BBX 9 15 1 -7
BITMAP
3E00
7F00
E380
C180
C180
0380
0F00
0F00
0380
0180
C180
C180
E380
7F00
3E00
ENDCHAR
STARTCHAR uni20A5
ENCODING 8357
SWIDTH 833 0
DWIDTH 27 0
BBX 23 24 2 -3
BITMAP
000300
000300
000300
E3C6F0
EFF7FC
FFF7FC
F87E1E
F03C0E
E03C0E
E0380E
E0380E
E0380E
E0380E
E0380E
E0380E
E0380E
E0780E
E0780E
E0780E
E0F80E
E0F80E
00C000
018000
018000
ENDCHAR
STARTCHAR uni20A6
ENCODING 8358
SWIDTH 722 0
DWIDTH 24 0
BBX 19 25 2 0
BITMAP
F000E0
F000E0
F800E0
FC00E0
FC00E0
FE00E0
EF00E0
E700E0
FFFFE0
FFFFE0
FFFFE0
E1E0E0
E0E0E0
E0F0E0
FFFFE0
FFFFE0
FFFFE0
E01CE0
E01EE0
E00FE0
E007E0
E007E0
E003E0
E001E0
E001E0
ENDCHAR
STARTCHAR uni20A9
ENCODING 8361
SWIDTH 944 0
DWIDTH 31 0
BBX 29 25 1 0
BITMAP
F0070078
F0070078
F00F8078
700F8070
700F8070
781DC0F0
781DC0F0
381DC0E0
39FFFCE0
39FFFCE0
3DFFFDE0
1C38E1C0
1C30E1C0
1C7071C0
1DFFFDC0
0FFFFF80
0FFFFF80
0EE03B80
0EE03B80
07E03F80
07C01F00
07C01F00
07C01F00
03800E00
03800E00
ENDCHAR
STARTCHAR Euro
ENCODING 8364
SWIDTH 722 0
DWIDTH 24 0
BBX 23 25 -1 0
BITMAP
003F80
00FFE0
01FFF0
03E0F8
07803C
07001C
0E001E
0E000E
FFFE00
FFFE00
FFFE00
1C0000
1C0000
1C0000
FFFE00
FFFE00
FFFE0E
1E000E
0E001E
0F001C
07803C
07E0F8
03FFF0
00FFC0
003F00
ENDCHAR
STARTCHAR uni20AD
ENCODING 8365
SWIDTH 667 0
DWIDTH 22 0
BBX 20 25 3 0
BITMAP
E003C0
E00780
E00F00
E01E00
E03C00
E07800
E0F000
E1E000
E3C000
E7C000
EF8000
FFFFF0
FFFFF0
F9E000
F0F000
E07000
E07800
E03C00
E01C00
E01E00
E00F00
E00780
E003C0
E003E0
E001F0
ENDCHAR
STARTCHAR uni2103
ENCODING 8451
SWIDTH 1102 0
DWIDTH 36 0
BBX 32 25 2 0
BITMAP
00001FC0
3E007FF0
7F00FFF8
E381F07C
C183C01E
C183800E
C187000F
E3870007
7F0E0000
3E0E0000
000E0000
000E0000
000E0000
000E0000
000E0000
000E0000
000E0007
000F0007
0007000F
0007800E
0003C01E
0003F07C
0001FFF8
00007FE0
00001F80
ENDCHAR
STARTCHAR uni2109
ENCODING 8457
SWIDTH 991 0
DWIDTH 32 0
BBX 29 25 2 0
BITMAP
0007FFF8
3E07FFF8
7F07FFF8
E3870000
C1870000
C1870000
C1870000
E3870000
7F070000
3E070000
00070000
0007FFE0
0007FFE0
0007FFE0
00070000
00070000
00070000
00070000
00070000
00070000
00070000
00070000
00070000
00070000
00070000
ENDCHAR
STARTCHAR trademark
ENCODING 8482
SWIDTH 1000 0
DWIDTH 33 0
BBX 28 14 2 11
BITMAP
FFE780F0
FFE780F0
0C07C1F0
0C06C1B0
0C06C1B0
0C06E3B0
0C066330
0C067730
0C063630
0C063630
0C063E30
0C061C30
0C061C30
0C061830
ENDCHAR
STARTCHAR uni212A
ENCODING 8490
SWIDTH 667 0
DWIDTH 22 0
BBX 20 25 3 0
BITMAP
E003C0
E00780
E00F00
E01E00
E03C00
E07800
E0F000
E1E000
E3C000
E7C000
EF8000
FFC000
FFC000
F9E000
F0F000
E07000
E07800
E03C00
E01C00
E01E00
E00F00
E00780
E003C0
E003E0
E001F0
ENDCHAR
STARTCHAR uni212B
ENCODING 8491
SWIDTH 667 0
DWIDTH 22 0
BBX 20 31 1 0
BITMAP
00F000
019800
010800
010800
019800
00F000
000000
00F000
00F000
01F800
01F800
03FC00
039C00
039C00
079E00
070E00
070E00
0F0F00
0E0F00
0E0700
1E0780
1FFF80
1FFF80
3FFFC0
3C03C0
3801C0
7801E0
7801E0
7000E0
F000F0
F000F0
ENDCHAR
STARTCHAR uni2132
ENCODING 8498
SWIDTH 611 0
DWIDTH 20 0
BBX 16 25 3 0
BITMAP
0007
0007
0007
0007
0007
0007
0007
0007
0007
0007
0007
3FFF
3FFF
3FFF
0007
0007
0007
0007
0007
0007
0007
0007
FFFF
FFFF
FFFF
ENDCHAR
STARTCHAR universal
ENCODING 8704
SWIDTH 667 0
DWIDTH 22 0
BBX 20 25 1 0
BITMAP
F000F0
F000F0
7000E0
7801E0
7801E0
3801C0
3C03C0
3FFFC0
1FFF80
1FFF80
1E0780
0E0700
0F0F00
0F0F00
070E00
070E00
079E00
039C00
039C00
039C00
01F800
01F800
00F800
00F000
00F000
ENDCHAR
STARTCHAR existential
ENCODING 8707
SWIDTH 667 0
DWIDTH 22 0
BBX 17 25 3 0
BITMAP
7FFF80
7FFF80
7FFF80
000380
000380
000380
000380
000380
000380
000380
000380
7FFF80
7FFF80
7FFF80
000380
000380
000380
000380
000380
000380
000380
000380
FFFF80
FFFF80
FFFF80
ENDCHAR
STARTCHAR uni2204
ENCODING 8708
SWIDTH 667 0
DWIDTH 22 0
BBX 17 25 3 0
BITMAP
7FFF80
7FFF80
7FFF80
003380
003380
003380
006380
006380
006380
00C380
00C380
7FFF80
7FFF80
7FFF80
018380
018380
030380
030380
030380
060380
060380
060380
FFFF80
FFFF80
FFFF80
ENDCHAR
STARTCHAR minus
ENCODING 8722
SWIDTH 584 0
DWIDTH 19 0
BBX 16 3 1 7
BITMAP
FFFF
FFFF
FFFF
ENDCHAR
STARTCHAR fraction
ENCODING 8725
SWIDTH 167 0
DWIDTH 6 0
BBX 15 24 -5 0
BITMAP
0002
0006
000C
000C
0018
0018
0030
0060
0060
00C0
01C0
0180
0300
0300
0600
0C00
0C00
1800
1800
3000
6000
6000
C000
C000
ENDCHAR
STARTCHAR periodcentered
ENCODING 8729
SWIDTH 278 0
DWIDTH 9 0
BBX 4 4 3 11
BITMAP
60
F0
F0
60
ENDCHAR
STARTCHAR uni2236
ENCODING 8758
SWIDTH 278 0
DWIDTH 9 0
BBX 3 18 4 0
BITMAP
E0
E0
E0
E0
00
00
00
00
00
00
00
00
00
00
E0
E0
E0
E0
ENDCHAR
STARTCHAR uni2259
ENCODING 8793
SWIDTH 584 0
DWIDTH 19 0
BBX 15 15 2 4
BITMAP
0100
0380
07C0
0EE0
1C70
0000
FFFE
FFFE
FFFE
0000
0000
0000
FFFE
FFFE
FFFE
ENDCHAR
STARTCHAR uni225A
ENCODING 8794
SWIDTH 584 0
DWIDTH 19 0
BBX 15 15 2 4
BITMAP
1C70
0EE0
07C0
0380
0100
0000
FFFE
FFFE
FFFE
0000
0000
0000
FFFE
FFFE
FFFE
ENDCHAR
STARTCHAR notequal
ENCODING 8800
SWIDTH 584 0
DWIDTH 19 0
BBX 15 24 2 -3
BITMAP
0030
0030
0030
0060
0060
0060
00C0
00C0
FFFE
FFFE
FFFE
0180
0100
0300
FFFE
FFFE
FFFE
0600
0600
0C00
0C00
0C00
1800
1800
ENDCHAR
STARTCHAR equivalence
ENCODING 8801
SWIDTH 584 0
DWIDTH 19 0
BBX 15 8 0 5
BITMAP
FFFE
FFFE
0000
FFFE
FFFE
0000
FFFE
FFFE
ENDCHAR
STARTCHAR uni2262
ENCODING 8802
SWIDTH 584 0
DWIDTH 19 0
BBX 15 24 0 -3
BITMAP
0030
0030
0030
0060
0060
0060
00C0
00C0
FFFE
FFFE
0180
FFFE
FFFE
0300
FFFE
FFFE
0600
0600
0600
0C00
0C00
0C00
1800
1800
ENDCHAR
STARTCHAR lessequal
ENCODING 8804
SWIDTH 584 0
DWIDTH 19 0
BBX 16 19 2 -3
BITMAP
0003
000F
003F
01FC
07E0
1F80
FE00
F000
F000
FE00
1F80
07E0
01FC
007F
000F
0003
0000
FFFF
FFFF
ENDCHAR
STARTCHAR greaterequal
ENCODING 8805
SWIDTH 584 0
DWIDTH 19 0
BBX 16 19 1 -3
BITMAP
C000
F000
FE00
3F80
07E0
01F8
007F
000F
000F
007F
01F8
07E0
3F80
FE00
F000
C000
0000
FFFF
FFFF
ENDCHAR
STARTCHAR uni226E
ENCODING 8814
SWIDTH 584 0
DWIDTH 19 0
BBX 16 24 2 -4
BITMAP
0018
0018
0018
0030
0033
003F
007F
01FC
07E0
1FC0
FEC0
F0C0
F080
FF80
1F80
07E0
03FC
037F
030F
0603
0600
0600
0C00
0C00
ENDCHAR
STARTCHAR uni226F
ENCODING 8815
SWIDTH 584 0
DWIDTH 19 0
BBX 16 24 1 -4
BITMAP
0018
0018
0018
0030
C030
F030
FE60
3FE0
07E0
01F8
00FF
00CF
008F
01FF
01F8
07E0
3F80
FF00
F300
C600
0600
0600
0C00
0C00
ENDCHAR
STARTCHAR uni2270
ENCODING 8816
SWIDTH 584 0
DWIDTH 19 0
BBX 16 24 2 -5
BITMAP
0018
0018
0018
0033
003F
003F
01FC
07E0
1FE0
FEC0
F0C0
F0C0
FE80
1F80
07E0
01FC
037F
030F
0303
0600
FFFF
FFFF
0C00
0C00
ENDCHAR
STARTCHAR uni2271
ENCODING 8817
SWIDTH 584 0
DWIDTH 19 0
BBX 16 24 1 -5
BITMAP
0018
0018
0018
C030
F030
FE30
3FE0
07E0
01F8
00FF
00CF
00CF
00FF
01F8
07E0
3F80
FF00
F300
C300
0600
FFFF
FFFF
0C00
0C00
ENDCHAR
STARTCHAR fi
ENCODING -1
SWIDTH 500 0
DWIDTH 16 0
BBX 14 25 0 0
BITMAP
0F1C
1F1C
3E1C
381C
3800
3800
3800
FF1C
FF1C
FF1C
381C
381C
381C
381C
381C
381C
381C
381C
381C
381C
381C
381C
381C
381C
381C
ENDCHAR
STARTCHAR fl
ENCODING -1
SWIDTH 500 0
DWIDTH 16 0
BBX 13 25 1 0
BITMAP
0E38
1E38
3C38
3838
3838
3838
3838
FE38
FE38
FE38
3838
3838
3838
3838
3838
3838
3838
3838
3838
3838
3838
3838
3838
3838
3838
ENDCHAR
ENDFONT
